<?xml version="1.0" encoding="utf-8" standalone="no"?>
<!DOCTYPE svg PUBLIC "-//W3C//DTD SVG 1.1//EN"
  "http://www.w3.org/Graphics/SVG/1.1/DTD/svg11.dtd">
<svg xmlns:xlink="http://www.w3.org/1999/xlink" width="1462.680562pt" height="736.348058pt" viewBox="0 0 1462.680562 736.348058" xmlns="http://www.w3.org/2000/svg" version="1.1">
 <metadata>
  <rdf:RDF xmlns:dc="http://purl.org/dc/elements/1.1/" xmlns:cc="http://creativecommons.org/ns#" xmlns:rdf="http://www.w3.org/1999/02/22-rdf-syntax-ns#">
   <cc:Work>
    <dc:type rdf:resource="http://purl.org/dc/dcmitype/StillImage"/>
    <dc:date>2022-01-30T20:21:39.831216</dc:date>
    <dc:format>image/svg+xml</dc:format>
    <dc:creator>
     <cc:Agent>
      <dc:title>Matplotlib v3.5.0, https://matplotlib.org/</dc:title>
     </cc:Agent>
    </dc:creator>
   </cc:Work>
  </rdf:RDF>
 </metadata>
 <defs>
  <style type="text/css">*{stroke-linejoin: round; stroke-linecap: butt}</style>
 </defs>
 <g id="figure_1">
  <g id="patch_1">
   <path d="M 0 736.348058 
L 1462.680563 736.348058 
L 1462.680563 0 
L 0 0 
L 0 736.348058 
z
" style="fill: none"/>
  </g>
  <g id="axes_1">
   <g id="patch_2">
    <path d="M 70.039938 691.385371 
L 1186.039937 691.385371 
L 1186.039937 26.105371 
L 70.039938 26.105371 
L 70.039938 691.385371 
z
" style="fill: none"/>
   </g>
   <g id="matplotlib.axis_1">
    <g id="xtick_1">
     <g id="line2d_1">
      <path d="M 70.039938 691.385371 
L 70.039938 26.105371 
" clip-path="url(#p01ad01a730)" style="fill: none; stroke: #e5e5e5; stroke-width: 0.8"/>
     </g>
     <g id="text_1">
      <!-- 0 -->
      <g style="fill: #4d4d4d" transform="translate(67.240438 712.271996)scale(0.088 -0.088)">
       <defs>
        <path id="DejaVuSans-30" d="M 2034 4250 
Q 1547 4250 1301 3770 
Q 1056 3291 1056 2328 
Q 1056 1369 1301 889 
Q 1547 409 2034 409 
Q 2525 409 2770 889 
Q 3016 1369 3016 2328 
Q 3016 3291 2770 3770 
Q 2525 4250 2034 4250 
z
M 2034 4750 
Q 2819 4750 3233 4129 
Q 3647 3509 3647 2328 
Q 3647 1150 3233 529 
Q 2819 -91 2034 -91 
Q 1250 -91 836 529 
Q 422 1150 422 2328 
Q 422 3509 836 4129 
Q 1250 4750 2034 4750 
z
" transform="scale(0.015625)"/>
       </defs>
       <use xlink:href="#DejaVuSans-30"/>
      </g>
     </g>
    </g>
    <g id="xtick_2">
     <g id="line2d_2">
      <path d="M 107.239938 691.385371 
L 107.239938 26.105371 
" clip-path="url(#p01ad01a730)" style="fill: none; stroke: #e5e5e5; stroke-width: 0.8"/>
     </g>
     <g id="text_2">
      <!-- 1 -->
      <g style="fill: #4d4d4d" transform="translate(104.440438 712.271996)scale(0.088 -0.088)">
       <defs>
        <path id="DejaVuSans-31" d="M 794 531 
L 1825 531 
L 1825 4091 
L 703 3866 
L 703 4441 
L 1819 4666 
L 2450 4666 
L 2450 531 
L 3481 531 
L 3481 0 
L 794 0 
L 794 531 
z
" transform="scale(0.015625)"/>
       </defs>
       <use xlink:href="#DejaVuSans-31"/>
      </g>
     </g>
    </g>
    <g id="xtick_3">
     <g id="line2d_3">
      <path d="M 144.439938 691.385371 
L 144.439938 26.105371 
" clip-path="url(#p01ad01a730)" style="fill: none; stroke: #e5e5e5; stroke-width: 0.8"/>
     </g>
     <g id="text_3">
      <!-- 2 -->
      <g style="fill: #4d4d4d" transform="translate(141.640438 712.271996)scale(0.088 -0.088)">
       <defs>
        <path id="DejaVuSans-32" d="M 1228 531 
L 3431 531 
L 3431 0 
L 469 0 
L 469 531 
Q 828 903 1448 1529 
Q 2069 2156 2228 2338 
Q 2531 2678 2651 2914 
Q 2772 3150 2772 3378 
Q 2772 3750 2511 3984 
Q 2250 4219 1831 4219 
Q 1534 4219 1204 4116 
Q 875 4013 500 3803 
L 500 4441 
Q 881 4594 1212 4672 
Q 1544 4750 1819 4750 
Q 2544 4750 2975 4387 
Q 3406 4025 3406 3419 
Q 3406 3131 3298 2873 
Q 3191 2616 2906 2266 
Q 2828 2175 2409 1742 
Q 1991 1309 1228 531 
z
" transform="scale(0.015625)"/>
       </defs>
       <use xlink:href="#DejaVuSans-32"/>
      </g>
     </g>
    </g>
    <g id="xtick_4">
     <g id="line2d_4">
      <path d="M 181.639938 691.385371 
L 181.639938 26.105371 
" clip-path="url(#p01ad01a730)" style="fill: none; stroke: #e5e5e5; stroke-width: 0.8"/>
     </g>
     <g id="text_4">
      <!-- 3 -->
      <g style="fill: #4d4d4d" transform="translate(178.840438 712.271996)scale(0.088 -0.088)">
       <defs>
        <path id="DejaVuSans-33" d="M 2597 2516 
Q 3050 2419 3304 2112 
Q 3559 1806 3559 1356 
Q 3559 666 3084 287 
Q 2609 -91 1734 -91 
Q 1441 -91 1130 -33 
Q 819 25 488 141 
L 488 750 
Q 750 597 1062 519 
Q 1375 441 1716 441 
Q 2309 441 2620 675 
Q 2931 909 2931 1356 
Q 2931 1769 2642 2001 
Q 2353 2234 1838 2234 
L 1294 2234 
L 1294 2753 
L 1863 2753 
Q 2328 2753 2575 2939 
Q 2822 3125 2822 3475 
Q 2822 3834 2567 4026 
Q 2313 4219 1838 4219 
Q 1578 4219 1281 4162 
Q 984 4106 628 3988 
L 628 4550 
Q 988 4650 1302 4700 
Q 1616 4750 1894 4750 
Q 2613 4750 3031 4423 
Q 3450 4097 3450 3541 
Q 3450 3153 3228 2886 
Q 3006 2619 2597 2516 
z
" transform="scale(0.015625)"/>
       </defs>
       <use xlink:href="#DejaVuSans-33"/>
      </g>
     </g>
    </g>
    <g id="xtick_5">
     <g id="line2d_5">
      <path d="M 218.839938 691.385371 
L 218.839938 26.105371 
" clip-path="url(#p01ad01a730)" style="fill: none; stroke: #e5e5e5; stroke-width: 0.8"/>
     </g>
     <g id="text_5">
      <!-- 4 -->
      <g style="fill: #4d4d4d" transform="translate(216.040438 712.271996)scale(0.088 -0.088)">
       <defs>
        <path id="DejaVuSans-34" d="M 2419 4116 
L 825 1625 
L 2419 1625 
L 2419 4116 
z
M 2253 4666 
L 3047 4666 
L 3047 1625 
L 3713 1625 
L 3713 1100 
L 3047 1100 
L 3047 0 
L 2419 0 
L 2419 1100 
L 313 1100 
L 313 1709 
L 2253 4666 
z
" transform="scale(0.015625)"/>
       </defs>
       <use xlink:href="#DejaVuSans-34"/>
      </g>
     </g>
    </g>
    <g id="xtick_6">
     <g id="line2d_6">
      <path d="M 256.039938 691.385371 
L 256.039938 26.105371 
" clip-path="url(#p01ad01a730)" style="fill: none; stroke: #e5e5e5; stroke-width: 0.8"/>
     </g>
     <g id="text_6">
      <!-- 5 -->
      <g style="fill: #4d4d4d" transform="translate(253.240438 712.271996)scale(0.088 -0.088)">
       <defs>
        <path id="DejaVuSans-35" d="M 691 4666 
L 3169 4666 
L 3169 4134 
L 1269 4134 
L 1269 2991 
Q 1406 3038 1543 3061 
Q 1681 3084 1819 3084 
Q 2600 3084 3056 2656 
Q 3513 2228 3513 1497 
Q 3513 744 3044 326 
Q 2575 -91 1722 -91 
Q 1428 -91 1123 -41 
Q 819 9 494 109 
L 494 744 
Q 775 591 1075 516 
Q 1375 441 1709 441 
Q 2250 441 2565 725 
Q 2881 1009 2881 1497 
Q 2881 1984 2565 2268 
Q 2250 2553 1709 2553 
Q 1456 2553 1204 2497 
Q 953 2441 691 2322 
L 691 4666 
z
" transform="scale(0.015625)"/>
       </defs>
       <use xlink:href="#DejaVuSans-35"/>
      </g>
     </g>
    </g>
    <g id="xtick_7">
     <g id="line2d_7">
      <path d="M 442.039938 691.385371 
L 442.039938 26.105371 
" clip-path="url(#p01ad01a730)" style="fill: none; stroke: #e5e5e5; stroke-width: 0.8"/>
     </g>
     <g id="text_7">
      <!-- 10 -->
      <g style="fill: #4d4d4d" transform="translate(436.440938 712.271996)scale(0.088 -0.088)">
       <use xlink:href="#DejaVuSans-31"/>
       <use xlink:href="#DejaVuSans-30" x="63.623047"/>
      </g>
     </g>
    </g>
    <g id="xtick_8">
     <g id="line2d_8">
      <path d="M 814.039937 691.385371 
L 814.039937 26.105371 
" clip-path="url(#p01ad01a730)" style="fill: none; stroke: #e5e5e5; stroke-width: 0.8"/>
     </g>
     <g id="text_8">
      <!-- 20 -->
      <g style="fill: #4d4d4d" transform="translate(808.440937 712.271996)scale(0.088 -0.088)">
       <use xlink:href="#DejaVuSans-32"/>
       <use xlink:href="#DejaVuSans-30" x="63.623047"/>
      </g>
     </g>
    </g>
    <g id="xtick_9">
     <g id="line2d_9">
      <path d="M 1186.039937 691.385371 
L 1186.039937 26.105371 
" clip-path="url(#p01ad01a730)" style="fill: none; stroke: #e5e5e5; stroke-width: 0.8"/>
     </g>
     <g id="text_9">
      <!-- 30 -->
      <g style="fill: #4d4d4d" transform="translate(1180.440938 712.271996)scale(0.088 -0.088)">
       <use xlink:href="#DejaVuSans-33"/>
       <use xlink:href="#DejaVuSans-30" x="63.623047"/>
      </g>
     </g>
    </g>
    <g id="xtick_10">
     <g id="line2d_10">
      <path d="M 88.639938 691.385371 
L 88.639938 26.105371 
" clip-path="url(#p01ad01a730)" style="fill: none; stroke: #fafafa"/>
     </g>
    </g>
    <g id="xtick_11">
     <g id="line2d_11">
      <path d="M 125.839938 691.385371 
L 125.839938 26.105371 
" clip-path="url(#p01ad01a730)" style="fill: none; stroke: #fafafa"/>
     </g>
    </g>
    <g id="xtick_12">
     <g id="line2d_12">
      <path d="M 163.039938 691.385371 
L 163.039938 26.105371 
" clip-path="url(#p01ad01a730)" style="fill: none; stroke: #fafafa"/>
     </g>
    </g>
    <g id="xtick_13">
     <g id="line2d_13">
      <path d="M 200.239938 691.385371 
L 200.239938 26.105371 
" clip-path="url(#p01ad01a730)" style="fill: none; stroke: #fafafa"/>
     </g>
    </g>
    <g id="xtick_14">
     <g id="line2d_14">
      <path d="M 237.439938 691.385371 
L 237.439938 26.105371 
" clip-path="url(#p01ad01a730)" style="fill: none; stroke: #fafafa"/>
     </g>
    </g>
    <g id="xtick_15">
     <g id="line2d_15">
      <path d="M 349.039938 691.385371 
L 349.039938 26.105371 
" clip-path="url(#p01ad01a730)" style="fill: none; stroke: #fafafa"/>
     </g>
    </g>
    <g id="xtick_16">
     <g id="line2d_16">
      <path d="M 628.039937 691.385371 
L 628.039937 26.105371 
" clip-path="url(#p01ad01a730)" style="fill: none; stroke: #fafafa"/>
     </g>
    </g>
    <g id="xtick_17">
     <g id="line2d_17">
      <path d="M 1000.039938 691.385371 
L 1000.039938 26.105371 
" clip-path="url(#p01ad01a730)" style="fill: none; stroke: #fafafa"/>
     </g>
    </g>
    <g id="text_10">
     <!-- distance between schools -->
     <g transform="translate(538.955875 726.860402)scale(0.11 -0.11)">
      <defs>
       <path id="DejaVuSans-64" d="M 2906 2969 
L 2906 4863 
L 3481 4863 
L 3481 0 
L 2906 0 
L 2906 525 
Q 2725 213 2448 61 
Q 2172 -91 1784 -91 
Q 1150 -91 751 415 
Q 353 922 353 1747 
Q 353 2572 751 3078 
Q 1150 3584 1784 3584 
Q 2172 3584 2448 3432 
Q 2725 3281 2906 2969 
z
M 947 1747 
Q 947 1113 1208 752 
Q 1469 391 1925 391 
Q 2381 391 2643 752 
Q 2906 1113 2906 1747 
Q 2906 2381 2643 2742 
Q 2381 3103 1925 3103 
Q 1469 3103 1208 2742 
Q 947 2381 947 1747 
z
" transform="scale(0.015625)"/>
       <path id="DejaVuSans-69" d="M 603 3500 
L 1178 3500 
L 1178 0 
L 603 0 
L 603 3500 
z
M 603 4863 
L 1178 4863 
L 1178 4134 
L 603 4134 
L 603 4863 
z
" transform="scale(0.015625)"/>
       <path id="DejaVuSans-73" d="M 2834 3397 
L 2834 2853 
Q 2591 2978 2328 3040 
Q 2066 3103 1784 3103 
Q 1356 3103 1142 2972 
Q 928 2841 928 2578 
Q 928 2378 1081 2264 
Q 1234 2150 1697 2047 
L 1894 2003 
Q 2506 1872 2764 1633 
Q 3022 1394 3022 966 
Q 3022 478 2636 193 
Q 2250 -91 1575 -91 
Q 1294 -91 989 -36 
Q 684 19 347 128 
L 347 722 
Q 666 556 975 473 
Q 1284 391 1588 391 
Q 1994 391 2212 530 
Q 2431 669 2431 922 
Q 2431 1156 2273 1281 
Q 2116 1406 1581 1522 
L 1381 1569 
Q 847 1681 609 1914 
Q 372 2147 372 2553 
Q 372 3047 722 3315 
Q 1072 3584 1716 3584 
Q 2034 3584 2315 3537 
Q 2597 3491 2834 3397 
z
" transform="scale(0.015625)"/>
       <path id="DejaVuSans-74" d="M 1172 4494 
L 1172 3500 
L 2356 3500 
L 2356 3053 
L 1172 3053 
L 1172 1153 
Q 1172 725 1289 603 
Q 1406 481 1766 481 
L 2356 481 
L 2356 0 
L 1766 0 
Q 1100 0 847 248 
Q 594 497 594 1153 
L 594 3053 
L 172 3053 
L 172 3500 
L 594 3500 
L 594 4494 
L 1172 4494 
z
" transform="scale(0.015625)"/>
       <path id="DejaVuSans-61" d="M 2194 1759 
Q 1497 1759 1228 1600 
Q 959 1441 959 1056 
Q 959 750 1161 570 
Q 1363 391 1709 391 
Q 2188 391 2477 730 
Q 2766 1069 2766 1631 
L 2766 1759 
L 2194 1759 
z
M 3341 1997 
L 3341 0 
L 2766 0 
L 2766 531 
Q 2569 213 2275 61 
Q 1981 -91 1556 -91 
Q 1019 -91 701 211 
Q 384 513 384 1019 
Q 384 1609 779 1909 
Q 1175 2209 1959 2209 
L 2766 2209 
L 2766 2266 
Q 2766 2663 2505 2880 
Q 2244 3097 1772 3097 
Q 1472 3097 1187 3025 
Q 903 2953 641 2809 
L 641 3341 
Q 956 3463 1253 3523 
Q 1550 3584 1831 3584 
Q 2591 3584 2966 3190 
Q 3341 2797 3341 1997 
z
" transform="scale(0.015625)"/>
       <path id="DejaVuSans-6e" d="M 3513 2113 
L 3513 0 
L 2938 0 
L 2938 2094 
Q 2938 2591 2744 2837 
Q 2550 3084 2163 3084 
Q 1697 3084 1428 2787 
Q 1159 2491 1159 1978 
L 1159 0 
L 581 0 
L 581 3500 
L 1159 3500 
L 1159 2956 
Q 1366 3272 1645 3428 
Q 1925 3584 2291 3584 
Q 2894 3584 3203 3211 
Q 3513 2838 3513 2113 
z
" transform="scale(0.015625)"/>
       <path id="DejaVuSans-63" d="M 3122 3366 
L 3122 2828 
Q 2878 2963 2633 3030 
Q 2388 3097 2138 3097 
Q 1578 3097 1268 2742 
Q 959 2388 959 1747 
Q 959 1106 1268 751 
Q 1578 397 2138 397 
Q 2388 397 2633 464 
Q 2878 531 3122 666 
L 3122 134 
Q 2881 22 2623 -34 
Q 2366 -91 2075 -91 
Q 1284 -91 818 406 
Q 353 903 353 1747 
Q 353 2603 823 3093 
Q 1294 3584 2113 3584 
Q 2378 3584 2631 3529 
Q 2884 3475 3122 3366 
z
" transform="scale(0.015625)"/>
       <path id="DejaVuSans-65" d="M 3597 1894 
L 3597 1613 
L 953 1613 
Q 991 1019 1311 708 
Q 1631 397 2203 397 
Q 2534 397 2845 478 
Q 3156 559 3463 722 
L 3463 178 
Q 3153 47 2828 -22 
Q 2503 -91 2169 -91 
Q 1331 -91 842 396 
Q 353 884 353 1716 
Q 353 2575 817 3079 
Q 1281 3584 2069 3584 
Q 2775 3584 3186 3129 
Q 3597 2675 3597 1894 
z
M 3022 2063 
Q 3016 2534 2758 2815 
Q 2500 3097 2075 3097 
Q 1594 3097 1305 2825 
Q 1016 2553 972 2059 
L 3022 2063 
z
" transform="scale(0.015625)"/>
       <path id="DejaVuSans-20" transform="scale(0.015625)"/>
       <path id="DejaVuSans-62" d="M 3116 1747 
Q 3116 2381 2855 2742 
Q 2594 3103 2138 3103 
Q 1681 3103 1420 2742 
Q 1159 2381 1159 1747 
Q 1159 1113 1420 752 
Q 1681 391 2138 391 
Q 2594 391 2855 752 
Q 3116 1113 3116 1747 
z
M 1159 2969 
Q 1341 3281 1617 3432 
Q 1894 3584 2278 3584 
Q 2916 3584 3314 3078 
Q 3713 2572 3713 1747 
Q 3713 922 3314 415 
Q 2916 -91 2278 -91 
Q 1894 -91 1617 61 
Q 1341 213 1159 525 
L 1159 0 
L 581 0 
L 581 4863 
L 1159 4863 
L 1159 2969 
z
" transform="scale(0.015625)"/>
       <path id="DejaVuSans-77" d="M 269 3500 
L 844 3500 
L 1563 769 
L 2278 3500 
L 2956 3500 
L 3675 769 
L 4391 3500 
L 4966 3500 
L 4050 0 
L 3372 0 
L 2619 2869 
L 1863 0 
L 1184 0 
L 269 3500 
z
" transform="scale(0.015625)"/>
       <path id="DejaVuSans-68" d="M 3513 2113 
L 3513 0 
L 2938 0 
L 2938 2094 
Q 2938 2591 2744 2837 
Q 2550 3084 2163 3084 
Q 1697 3084 1428 2787 
Q 1159 2491 1159 1978 
L 1159 0 
L 581 0 
L 581 4863 
L 1159 4863 
L 1159 2956 
Q 1366 3272 1645 3428 
Q 1925 3584 2291 3584 
Q 2894 3584 3203 3211 
Q 3513 2838 3513 2113 
z
" transform="scale(0.015625)"/>
       <path id="DejaVuSans-6f" d="M 1959 3097 
Q 1497 3097 1228 2736 
Q 959 2375 959 1747 
Q 959 1119 1226 758 
Q 1494 397 1959 397 
Q 2419 397 2687 759 
Q 2956 1122 2956 1747 
Q 2956 2369 2687 2733 
Q 2419 3097 1959 3097 
z
M 1959 3584 
Q 2709 3584 3137 3096 
Q 3566 2609 3566 1747 
Q 3566 888 3137 398 
Q 2709 -91 1959 -91 
Q 1206 -91 779 398 
Q 353 888 353 1747 
Q 353 2609 779 3096 
Q 1206 3584 1959 3584 
z
" transform="scale(0.015625)"/>
       <path id="DejaVuSans-6c" d="M 603 4863 
L 1178 4863 
L 1178 0 
L 603 0 
L 603 4863 
z
" transform="scale(0.015625)"/>
      </defs>
      <use xlink:href="#DejaVuSans-64"/>
      <use xlink:href="#DejaVuSans-69" x="63.476562"/>
      <use xlink:href="#DejaVuSans-73" x="91.259766"/>
      <use xlink:href="#DejaVuSans-74" x="143.359375"/>
      <use xlink:href="#DejaVuSans-61" x="182.568359"/>
      <use xlink:href="#DejaVuSans-6e" x="243.847656"/>
      <use xlink:href="#DejaVuSans-63" x="307.226562"/>
      <use xlink:href="#DejaVuSans-65" x="362.207031"/>
      <use xlink:href="#DejaVuSans-20" x="423.730469"/>
      <use xlink:href="#DejaVuSans-62" x="455.517578"/>
      <use xlink:href="#DejaVuSans-65" x="518.994141"/>
      <use xlink:href="#DejaVuSans-74" x="580.517578"/>
      <use xlink:href="#DejaVuSans-77" x="619.726562"/>
      <use xlink:href="#DejaVuSans-65" x="701.513672"/>
      <use xlink:href="#DejaVuSans-65" x="763.037109"/>
      <use xlink:href="#DejaVuSans-6e" x="824.560547"/>
      <use xlink:href="#DejaVuSans-20" x="887.939453"/>
      <use xlink:href="#DejaVuSans-73" x="919.726562"/>
      <use xlink:href="#DejaVuSans-63" x="971.826172"/>
      <use xlink:href="#DejaVuSans-68" x="1026.806641"/>
      <use xlink:href="#DejaVuSans-6f" x="1090.185547"/>
      <use xlink:href="#DejaVuSans-6f" x="1151.367188"/>
      <use xlink:href="#DejaVuSans-6c" x="1212.548828"/>
      <use xlink:href="#DejaVuSans-73" x="1240.332031"/>
     </g>
    </g>
   </g>
   <g id="matplotlib.axis_2">
    <g id="ytick_1">
     <g id="line2d_18">
      <path d="M 70.039938 691.385371 
L 1186.039937 691.385371 
" clip-path="url(#p01ad01a730)" style="fill: none; stroke: #e5e5e5; stroke-width: 0.8"/>
     </g>
     <g id="text_11">
      <!-- 40000 -->
      <g style="fill: #4d4d4d" transform="translate(27.844938 693.813621)scale(0.088 -0.088)">
       <use xlink:href="#DejaVuSans-34"/>
       <use xlink:href="#DejaVuSans-30" x="63.623047"/>
       <use xlink:href="#DejaVuSans-30" x="127.246094"/>
       <use xlink:href="#DejaVuSans-30" x="190.869141"/>
       <use xlink:href="#DejaVuSans-30" x="254.492188"/>
      </g>
     </g>
    </g>
    <g id="ytick_2">
     <g id="line2d_19">
      <path d="M 70.039938 580.505371 
L 1186.039937 580.505371 
" clip-path="url(#p01ad01a730)" style="fill: none; stroke: #e5e5e5; stroke-width: 0.8"/>
     </g>
     <g id="text_12">
      <!-- 60000 -->
      <g style="fill: #4d4d4d" transform="translate(27.844938 582.933621)scale(0.088 -0.088)">
       <defs>
        <path id="DejaVuSans-36" d="M 2113 2584 
Q 1688 2584 1439 2293 
Q 1191 2003 1191 1497 
Q 1191 994 1439 701 
Q 1688 409 2113 409 
Q 2538 409 2786 701 
Q 3034 994 3034 1497 
Q 3034 2003 2786 2293 
Q 2538 2584 2113 2584 
z
M 3366 4563 
L 3366 3988 
Q 3128 4100 2886 4159 
Q 2644 4219 2406 4219 
Q 1781 4219 1451 3797 
Q 1122 3375 1075 2522 
Q 1259 2794 1537 2939 
Q 1816 3084 2150 3084 
Q 2853 3084 3261 2657 
Q 3669 2231 3669 1497 
Q 3669 778 3244 343 
Q 2819 -91 2113 -91 
Q 1303 -91 875 529 
Q 447 1150 447 2328 
Q 447 3434 972 4092 
Q 1497 4750 2381 4750 
Q 2619 4750 2861 4703 
Q 3103 4656 3366 4563 
z
" transform="scale(0.015625)"/>
       </defs>
       <use xlink:href="#DejaVuSans-36"/>
       <use xlink:href="#DejaVuSans-30" x="63.623047"/>
       <use xlink:href="#DejaVuSans-30" x="127.246094"/>
       <use xlink:href="#DejaVuSans-30" x="190.869141"/>
       <use xlink:href="#DejaVuSans-30" x="254.492188"/>
      </g>
     </g>
    </g>
    <g id="ytick_3">
     <g id="line2d_20">
      <path d="M 70.039938 469.625371 
L 1186.039937 469.625371 
" clip-path="url(#p01ad01a730)" style="fill: none; stroke: #e5e5e5; stroke-width: 0.8"/>
     </g>
     <g id="text_13">
      <!-- 80000 -->
      <g style="fill: #4d4d4d" transform="translate(27.844938 472.053621)scale(0.088 -0.088)">
       <defs>
        <path id="DejaVuSans-38" d="M 2034 2216 
Q 1584 2216 1326 1975 
Q 1069 1734 1069 1313 
Q 1069 891 1326 650 
Q 1584 409 2034 409 
Q 2484 409 2743 651 
Q 3003 894 3003 1313 
Q 3003 1734 2745 1975 
Q 2488 2216 2034 2216 
z
M 1403 2484 
Q 997 2584 770 2862 
Q 544 3141 544 3541 
Q 544 4100 942 4425 
Q 1341 4750 2034 4750 
Q 2731 4750 3128 4425 
Q 3525 4100 3525 3541 
Q 3525 3141 3298 2862 
Q 3072 2584 2669 2484 
Q 3125 2378 3379 2068 
Q 3634 1759 3634 1313 
Q 3634 634 3220 271 
Q 2806 -91 2034 -91 
Q 1263 -91 848 271 
Q 434 634 434 1313 
Q 434 1759 690 2068 
Q 947 2378 1403 2484 
z
M 1172 3481 
Q 1172 3119 1398 2916 
Q 1625 2713 2034 2713 
Q 2441 2713 2670 2916 
Q 2900 3119 2900 3481 
Q 2900 3844 2670 4047 
Q 2441 4250 2034 4250 
Q 1625 4250 1398 4047 
Q 1172 3844 1172 3481 
z
" transform="scale(0.015625)"/>
       </defs>
       <use xlink:href="#DejaVuSans-38"/>
       <use xlink:href="#DejaVuSans-30" x="63.623047"/>
       <use xlink:href="#DejaVuSans-30" x="127.246094"/>
       <use xlink:href="#DejaVuSans-30" x="190.869141"/>
       <use xlink:href="#DejaVuSans-30" x="254.492188"/>
      </g>
     </g>
    </g>
    <g id="ytick_4">
     <g id="line2d_21">
      <path d="M 70.039938 358.745371 
L 1186.039937 358.745371 
" clip-path="url(#p01ad01a730)" style="fill: none; stroke: #e5e5e5; stroke-width: 0.8"/>
     </g>
     <g id="text_14">
      <!-- 100000 -->
      <g style="fill: #4d4d4d" transform="translate(22.245938 361.173621)scale(0.088 -0.088)">
       <use xlink:href="#DejaVuSans-31"/>
       <use xlink:href="#DejaVuSans-30" x="63.623047"/>
       <use xlink:href="#DejaVuSans-30" x="127.246094"/>
       <use xlink:href="#DejaVuSans-30" x="190.869141"/>
       <use xlink:href="#DejaVuSans-30" x="254.492188"/>
       <use xlink:href="#DejaVuSans-30" x="318.115234"/>
      </g>
     </g>
    </g>
    <g id="ytick_5">
     <g id="line2d_22">
      <path d="M 70.039938 247.865371 
L 1186.039937 247.865371 
" clip-path="url(#p01ad01a730)" style="fill: none; stroke: #e5e5e5; stroke-width: 0.8"/>
     </g>
     <g id="text_15">
      <!-- 120000 -->
      <g style="fill: #4d4d4d" transform="translate(22.245938 250.293621)scale(0.088 -0.088)">
       <use xlink:href="#DejaVuSans-31"/>
       <use xlink:href="#DejaVuSans-32" x="63.623047"/>
       <use xlink:href="#DejaVuSans-30" x="127.246094"/>
       <use xlink:href="#DejaVuSans-30" x="190.869141"/>
       <use xlink:href="#DejaVuSans-30" x="254.492188"/>
       <use xlink:href="#DejaVuSans-30" x="318.115234"/>
      </g>
     </g>
    </g>
    <g id="ytick_6">
     <g id="line2d_23">
      <path d="M 70.039938 136.985371 
L 1186.039937 136.985371 
" clip-path="url(#p01ad01a730)" style="fill: none; stroke: #e5e5e5; stroke-width: 0.8"/>
     </g>
     <g id="text_16">
      <!-- 140000 -->
      <g style="fill: #4d4d4d" transform="translate(22.245938 139.413621)scale(0.088 -0.088)">
       <use xlink:href="#DejaVuSans-31"/>
       <use xlink:href="#DejaVuSans-34" x="63.623047"/>
       <use xlink:href="#DejaVuSans-30" x="127.246094"/>
       <use xlink:href="#DejaVuSans-30" x="190.869141"/>
       <use xlink:href="#DejaVuSans-30" x="254.492188"/>
       <use xlink:href="#DejaVuSans-30" x="318.115234"/>
      </g>
     </g>
    </g>
    <g id="ytick_7">
     <g id="line2d_24">
      <path d="M 70.039938 26.105371 
L 1186.039937 26.105371 
" clip-path="url(#p01ad01a730)" style="fill: none; stroke: #e5e5e5; stroke-width: 0.8"/>
     </g>
     <g id="text_17">
      <!-- 160000 -->
      <g style="fill: #4d4d4d" transform="translate(22.245938 28.533621)scale(0.088 -0.088)">
       <use xlink:href="#DejaVuSans-31"/>
       <use xlink:href="#DejaVuSans-36" x="63.623047"/>
       <use xlink:href="#DejaVuSans-30" x="127.246094"/>
       <use xlink:href="#DejaVuSans-30" x="190.869141"/>
       <use xlink:href="#DejaVuSans-30" x="254.492188"/>
       <use xlink:href="#DejaVuSans-30" x="318.115234"/>
      </g>
     </g>
    </g>
    <g id="ytick_8">
     <g id="line2d_25">
      <path d="M 70.039938 635.945371 
L 1186.039937 635.945371 
" clip-path="url(#p01ad01a730)" style="fill: none; stroke: #fafafa"/>
     </g>
    </g>
    <g id="ytick_9">
     <g id="line2d_26">
      <path d="M 70.039938 525.065371 
L 1186.039937 525.065371 
" clip-path="url(#p01ad01a730)" style="fill: none; stroke: #fafafa"/>
     </g>
    </g>
    <g id="ytick_10">
     <g id="line2d_27">
      <path d="M 70.039938 414.185371 
L 1186.039937 414.185371 
" clip-path="url(#p01ad01a730)" style="fill: none; stroke: #fafafa"/>
     </g>
    </g>
    <g id="ytick_11">
     <g id="line2d_28">
      <path d="M 70.039938 303.305371 
L 1186.039937 303.305371 
" clip-path="url(#p01ad01a730)" style="fill: none; stroke: #fafafa"/>
     </g>
    </g>
    <g id="ytick_12">
     <g id="line2d_29">
      <path d="M 70.039938 192.425371 
L 1186.039937 192.425371 
" clip-path="url(#p01ad01a730)" style="fill: none; stroke: #fafafa"/>
     </g>
    </g>
    <g id="ytick_13">
     <g id="line2d_30">
      <path d="M 70.039938 81.545371 
L 1186.039937 81.545371 
" clip-path="url(#p01ad01a730)" style="fill: none; stroke: #fafafa"/>
     </g>
    </g>
    <g id="text_18">
     <!-- median household income -->
     <g transform="translate(15.558281 427.139668)rotate(-90)scale(0.11 -0.11)">
      <defs>
       <path id="DejaVuSans-6d" d="M 3328 2828 
Q 3544 3216 3844 3400 
Q 4144 3584 4550 3584 
Q 5097 3584 5394 3201 
Q 5691 2819 5691 2113 
L 5691 0 
L 5113 0 
L 5113 2094 
Q 5113 2597 4934 2840 
Q 4756 3084 4391 3084 
Q 3944 3084 3684 2787 
Q 3425 2491 3425 1978 
L 3425 0 
L 2847 0 
L 2847 2094 
Q 2847 2600 2669 2842 
Q 2491 3084 2119 3084 
Q 1678 3084 1418 2786 
Q 1159 2488 1159 1978 
L 1159 0 
L 581 0 
L 581 3500 
L 1159 3500 
L 1159 2956 
Q 1356 3278 1631 3431 
Q 1906 3584 2284 3584 
Q 2666 3584 2933 3390 
Q 3200 3197 3328 2828 
z
" transform="scale(0.015625)"/>
       <path id="DejaVuSans-75" d="M 544 1381 
L 544 3500 
L 1119 3500 
L 1119 1403 
Q 1119 906 1312 657 
Q 1506 409 1894 409 
Q 2359 409 2629 706 
Q 2900 1003 2900 1516 
L 2900 3500 
L 3475 3500 
L 3475 0 
L 2900 0 
L 2900 538 
Q 2691 219 2414 64 
Q 2138 -91 1772 -91 
Q 1169 -91 856 284 
Q 544 659 544 1381 
z
M 1991 3584 
L 1991 3584 
z
" transform="scale(0.015625)"/>
      </defs>
      <use xlink:href="#DejaVuSans-6d"/>
      <use xlink:href="#DejaVuSans-65" x="97.412109"/>
      <use xlink:href="#DejaVuSans-64" x="158.935547"/>
      <use xlink:href="#DejaVuSans-69" x="222.412109"/>
      <use xlink:href="#DejaVuSans-61" x="250.195312"/>
      <use xlink:href="#DejaVuSans-6e" x="311.474609"/>
      <use xlink:href="#DejaVuSans-20" x="374.853516"/>
      <use xlink:href="#DejaVuSans-68" x="406.640625"/>
      <use xlink:href="#DejaVuSans-6f" x="470.019531"/>
      <use xlink:href="#DejaVuSans-75" x="531.201172"/>
      <use xlink:href="#DejaVuSans-73" x="594.580078"/>
      <use xlink:href="#DejaVuSans-65" x="646.679688"/>
      <use xlink:href="#DejaVuSans-68" x="708.203125"/>
      <use xlink:href="#DejaVuSans-6f" x="771.582031"/>
      <use xlink:href="#DejaVuSans-6c" x="832.763672"/>
      <use xlink:href="#DejaVuSans-64" x="860.546875"/>
      <use xlink:href="#DejaVuSans-20" x="924.023438"/>
      <use xlink:href="#DejaVuSans-69" x="955.810547"/>
      <use xlink:href="#DejaVuSans-6e" x="983.59375"/>
      <use xlink:href="#DejaVuSans-63" x="1046.972656"/>
      <use xlink:href="#DejaVuSans-6f" x="1101.953125"/>
      <use xlink:href="#DejaVuSans-6d" x="1163.134766"/>
      <use xlink:href="#DejaVuSans-65" x="1260.546875"/>
     </g>
    </g>
   </g>
   <g id="PathCollection_1">
    <path d="M 70.039938 667.583353 
C 70.509998 667.583353 70.960869 667.396596 71.293252 667.064213 
C 71.625634 666.73183 71.812391 666.280959 71.812391 665.810899 
C 71.812391 665.340838 71.625634 664.889967 71.293252 664.557585 
C 70.960869 664.225202 70.509998 664.038445 70.039938 664.038445 
C 69.569877 664.038445 69.119006 664.225202 68.786623 664.557585 
C 68.454241 664.889967 68.267484 665.340838 68.267484 665.810899 
C 68.267484 666.280959 68.454241 666.73183 68.786623 667.064213 
C 69.119006 667.396596 69.569877 667.583353 70.039938 667.583353 
z
" clip-path="url(#p01ad01a730)" style="fill: #57d3db; stroke: #57d3db; stroke-width: 0.886227"/>
    <path d="M 70.039938 667.583353 
C 70.509998 667.583353 70.960869 667.396596 71.293252 667.064213 
C 71.625634 666.73183 71.812391 666.280959 71.812391 665.810899 
C 71.812391 665.340838 71.625634 664.889967 71.293252 664.557585 
C 70.960869 664.225202 70.509998 664.038445 70.039938 664.038445 
C 69.569877 664.038445 69.119006 664.225202 68.786623 664.557585 
C 68.454241 664.889967 68.267484 665.340838 68.267484 665.810899 
C 68.267484 666.280959 68.454241 666.73183 68.786623 667.064213 
C 69.119006 667.396596 69.569877 667.583353 70.039938 667.583353 
z
" clip-path="url(#p01ad01a730)" style="fill: #57d3db; stroke: #57d3db; stroke-width: 0.886227"/>
    <path d="M 70.039938 667.583353 
C 70.509998 667.583353 70.960869 667.396596 71.293252 667.064213 
C 71.625634 666.73183 71.812391 666.280959 71.812391 665.810899 
C 71.812391 665.340838 71.625634 664.889967 71.293252 664.557585 
C 70.960869 664.225202 70.509998 664.038445 70.039938 664.038445 
C 69.569877 664.038445 69.119006 664.225202 68.786623 664.557585 
C 68.454241 664.889967 68.267484 665.340838 68.267484 665.810899 
C 68.267484 666.280959 68.454241 666.73183 68.786623 667.064213 
C 69.119006 667.396596 69.569877 667.583353 70.039938 667.583353 
z
" clip-path="url(#p01ad01a730)" style="fill: #db5f57; stroke: #db5f57; stroke-width: 0.886227"/>
    <path d="M 70.039938 667.583353 
C 70.509998 667.583353 70.960869 667.396596 71.293252 667.064213 
C 71.625634 666.73183 71.812391 666.280959 71.812391 665.810899 
C 71.812391 665.340838 71.625634 664.889967 71.293252 664.557585 
C 70.960869 664.225202 70.509998 664.038445 70.039938 664.038445 
C 69.569877 664.038445 69.119006 664.225202 68.786623 664.557585 
C 68.454241 664.889967 68.267484 665.340838 68.267484 665.810899 
C 68.267484 666.280959 68.454241 666.73183 68.786623 667.064213 
C 69.119006 667.396596 69.569877 667.583353 70.039938 667.583353 
z
" clip-path="url(#p01ad01a730)" style="fill: #db5f57; stroke: #db5f57; stroke-width: 0.886227"/>
    <path d="M 70.039938 667.583353 
C 70.509998 667.583353 70.960869 667.396596 71.293252 667.064213 
C 71.625634 666.73183 71.812391 666.280959 71.812391 665.810899 
C 71.812391 665.340838 71.625634 664.889967 71.293252 664.557585 
C 70.960869 664.225202 70.509998 664.038445 70.039938 664.038445 
C 69.569877 664.038445 69.119006 664.225202 68.786623 664.557585 
C 68.454241 664.889967 68.267484 665.340838 68.267484 665.810899 
C 68.267484 666.280959 68.454241 666.73183 68.786623 667.064213 
C 69.119006 667.396596 69.569877 667.583353 70.039938 667.583353 
z
" clip-path="url(#p01ad01a730)" style="fill: #db5f57; stroke: #db5f57; stroke-width: 0.886227"/>
    <path d="M 70.039938 667.583353 
C 70.509998 667.583353 70.960869 667.396596 71.293252 667.064213 
C 71.625634 666.73183 71.812391 666.280959 71.812391 665.810899 
C 71.812391 665.340838 71.625634 664.889967 71.293252 664.557585 
C 70.960869 664.225202 70.509998 664.038445 70.039938 664.038445 
C 69.569877 664.038445 69.119006 664.225202 68.786623 664.557585 
C 68.454241 664.889967 68.267484 665.340838 68.267484 665.810899 
C 68.267484 666.280959 68.454241 666.73183 68.786623 667.064213 
C 69.119006 667.396596 69.569877 667.583353 70.039938 667.583353 
z
" clip-path="url(#p01ad01a730)" style="fill: #db5f57; stroke: #db5f57; stroke-width: 0.886227"/>
    <path d="M 70.039938 667.583353 
C 70.509998 667.583353 70.960869 667.396596 71.293252 667.064213 
C 71.625634 666.73183 71.812391 666.280959 71.812391 665.810899 
C 71.812391 665.340838 71.625634 664.889967 71.293252 664.557585 
C 70.960869 664.225202 70.509998 664.038445 70.039938 664.038445 
C 69.569877 664.038445 69.119006 664.225202 68.786623 664.557585 
C 68.454241 664.889967 68.267484 665.340838 68.267484 665.810899 
C 68.267484 666.280959 68.454241 666.73183 68.786623 667.064213 
C 69.119006 667.396596 69.569877 667.583353 70.039938 667.583353 
z
" clip-path="url(#p01ad01a730)" style="fill: #db5f57; stroke: #db5f57; stroke-width: 0.886227"/>
    <path d="M 70.039938 667.583353 
C 70.509998 667.583353 70.960869 667.396596 71.293252 667.064213 
C 71.625634 666.73183 71.812391 666.280959 71.812391 665.810899 
C 71.812391 665.340838 71.625634 664.889967 71.293252 664.557585 
C 70.960869 664.225202 70.509998 664.038445 70.039938 664.038445 
C 69.569877 664.038445 69.119006 664.225202 68.786623 664.557585 
C 68.454241 664.889967 68.267484 665.340838 68.267484 665.810899 
C 68.267484 666.280959 68.454241 666.73183 68.786623 667.064213 
C 69.119006 667.396596 69.569877 667.583353 70.039938 667.583353 
z
" clip-path="url(#p01ad01a730)" style="fill: #db5f57; stroke: #db5f57; stroke-width: 0.886227"/>
    <path d="M 70.039938 667.583353 
C 70.509998 667.583353 70.960869 667.396596 71.293252 667.064213 
C 71.625634 666.73183 71.812391 666.280959 71.812391 665.810899 
C 71.812391 665.340838 71.625634 664.889967 71.293252 664.557585 
C 70.960869 664.225202 70.509998 664.038445 70.039938 664.038445 
C 69.569877 664.038445 69.119006 664.225202 68.786623 664.557585 
C 68.454241 664.889967 68.267484 665.340838 68.267484 665.810899 
C 68.267484 666.280959 68.454241 666.73183 68.786623 667.064213 
C 69.119006 667.396596 69.569877 667.583353 70.039938 667.583353 
z
" clip-path="url(#p01ad01a730)" style="fill: #db5f57; stroke: #db5f57; stroke-width: 0.886227"/>
    <path d="M 70.039938 667.583353 
C 70.509998 667.583353 70.960869 667.396596 71.293252 667.064213 
C 71.625634 666.73183 71.812391 666.280959 71.812391 665.810899 
C 71.812391 665.340838 71.625634 664.889967 71.293252 664.557585 
C 70.960869 664.225202 70.509998 664.038445 70.039938 664.038445 
C 69.569877 664.038445 69.119006 664.225202 68.786623 664.557585 
C 68.454241 664.889967 68.267484 665.340838 68.267484 665.810899 
C 68.267484 666.280959 68.454241 666.73183 68.786623 667.064213 
C 69.119006 667.396596 69.569877 667.583353 70.039938 667.583353 
z
" clip-path="url(#p01ad01a730)" style="fill: #db5f57; stroke: #db5f57; stroke-width: 0.886227"/>
    <path d="M 70.039938 667.583353 
C 70.509998 667.583353 70.960869 667.396596 71.293252 667.064213 
C 71.625634 666.73183 71.812391 666.280959 71.812391 665.810899 
C 71.812391 665.340838 71.625634 664.889967 71.293252 664.557585 
C 70.960869 664.225202 70.509998 664.038445 70.039938 664.038445 
C 69.569877 664.038445 69.119006 664.225202 68.786623 664.557585 
C 68.454241 664.889967 68.267484 665.340838 68.267484 665.810899 
C 68.267484 666.280959 68.454241 666.73183 68.786623 667.064213 
C 69.119006 667.396596 69.569877 667.583353 70.039938 667.583353 
z
" clip-path="url(#p01ad01a730)" style="fill: #db5f57; stroke: #db5f57; stroke-width: 0.886227"/>
    <path d="M 70.039938 667.583353 
C 70.509998 667.583353 70.960869 667.396596 71.293252 667.064213 
C 71.625634 666.73183 71.812391 666.280959 71.812391 665.810899 
C 71.812391 665.340838 71.625634 664.889967 71.293252 664.557585 
C 70.960869 664.225202 70.509998 664.038445 70.039938 664.038445 
C 69.569877 664.038445 69.119006 664.225202 68.786623 664.557585 
C 68.454241 664.889967 68.267484 665.340838 68.267484 665.810899 
C 68.267484 666.280959 68.454241 666.73183 68.786623 667.064213 
C 69.119006 667.396596 69.569877 667.583353 70.039938 667.583353 
z
" clip-path="url(#p01ad01a730)" style="fill: #db5f57; stroke: #db5f57; stroke-width: 0.886227"/>
    <path d="M 70.039938 667.583353 
C 70.509998 667.583353 70.960869 667.396596 71.293252 667.064213 
C 71.625634 666.73183 71.812391 666.280959 71.812391 665.810899 
C 71.812391 665.340838 71.625634 664.889967 71.293252 664.557585 
C 70.960869 664.225202 70.509998 664.038445 70.039938 664.038445 
C 69.569877 664.038445 69.119006 664.225202 68.786623 664.557585 
C 68.454241 664.889967 68.267484 665.340838 68.267484 665.810899 
C 68.267484 666.280959 68.454241 666.73183 68.786623 667.064213 
C 69.119006 667.396596 69.569877 667.583353 70.039938 667.583353 
z
" clip-path="url(#p01ad01a730)" style="fill: #db5f57; stroke: #db5f57; stroke-width: 0.886227"/>
    <path d="M 70.039938 667.583353 
C 70.509998 667.583353 70.960869 667.396596 71.293252 667.064213 
C 71.625634 666.73183 71.812391 666.280959 71.812391 665.810899 
C 71.812391 665.340838 71.625634 664.889967 71.293252 664.557585 
C 70.960869 664.225202 70.509998 664.038445 70.039938 664.038445 
C 69.569877 664.038445 69.119006 664.225202 68.786623 664.557585 
C 68.454241 664.889967 68.267484 665.340838 68.267484 665.810899 
C 68.267484 666.280959 68.454241 666.73183 68.786623 667.064213 
C 69.119006 667.396596 69.569877 667.583353 70.039938 667.583353 
z
" clip-path="url(#p01ad01a730)" style="fill: #db5f57; stroke: #db5f57; stroke-width: 0.886227"/>
    <path d="M 70.039938 667.583353 
C 70.509998 667.583353 70.960869 667.396596 71.293252 667.064213 
C 71.625634 666.73183 71.812391 666.280959 71.812391 665.810899 
C 71.812391 665.340838 71.625634 664.889967 71.293252 664.557585 
C 70.960869 664.225202 70.509998 664.038445 70.039938 664.038445 
C 69.569877 664.038445 69.119006 664.225202 68.786623 664.557585 
C 68.454241 664.889967 68.267484 665.340838 68.267484 665.810899 
C 68.267484 666.280959 68.454241 666.73183 68.786623 667.064213 
C 69.119006 667.396596 69.569877 667.583353 70.039938 667.583353 
z
" clip-path="url(#p01ad01a730)" style="fill: #db5f57; stroke: #db5f57; stroke-width: 0.886227"/>
    <path d="M 70.039938 667.583353 
C 70.509998 667.583353 70.960869 667.396596 71.293252 667.064213 
C 71.625634 666.73183 71.812391 666.280959 71.812391 665.810899 
C 71.812391 665.340838 71.625634 664.889967 71.293252 664.557585 
C 70.960869 664.225202 70.509998 664.038445 70.039938 664.038445 
C 69.569877 664.038445 69.119006 664.225202 68.786623 664.557585 
C 68.454241 664.889967 68.267484 665.340838 68.267484 665.810899 
C 68.267484 666.280959 68.454241 666.73183 68.786623 667.064213 
C 69.119006 667.396596 69.569877 667.583353 70.039938 667.583353 
z
" clip-path="url(#p01ad01a730)" style="fill: #db5f57; stroke: #db5f57; stroke-width: 0.886227"/>
    <path d="M 70.039938 667.583353 
C 70.509998 667.583353 70.960869 667.396596 71.293252 667.064213 
C 71.625634 666.73183 71.812391 666.280959 71.812391 665.810899 
C 71.812391 665.340838 71.625634 664.889967 71.293252 664.557585 
C 70.960869 664.225202 70.509998 664.038445 70.039938 664.038445 
C 69.569877 664.038445 69.119006 664.225202 68.786623 664.557585 
C 68.454241 664.889967 68.267484 665.340838 68.267484 665.810899 
C 68.267484 666.280959 68.454241 666.73183 68.786623 667.064213 
C 69.119006 667.396596 69.569877 667.583353 70.039938 667.583353 
z
" clip-path="url(#p01ad01a730)" style="fill: #db5f57; stroke: #db5f57; stroke-width: 0.886227"/>
    <path d="M 70.039938 667.583353 
C 70.509998 667.583353 70.960869 667.396596 71.293252 667.064213 
C 71.625634 666.73183 71.812391 666.280959 71.812391 665.810899 
C 71.812391 665.340838 71.625634 664.889967 71.293252 664.557585 
C 70.960869 664.225202 70.509998 664.038445 70.039938 664.038445 
C 69.569877 664.038445 69.119006 664.225202 68.786623 664.557585 
C 68.454241 664.889967 68.267484 665.340838 68.267484 665.810899 
C 68.267484 666.280959 68.454241 666.73183 68.786623 667.064213 
C 69.119006 667.396596 69.569877 667.583353 70.039938 667.583353 
z
" clip-path="url(#p01ad01a730)" style="fill: #db5f57; stroke: #db5f57; stroke-width: 0.886227"/>
    <path d="M 70.039938 667.583353 
C 70.509998 667.583353 70.960869 667.396596 71.293252 667.064213 
C 71.625634 666.73183 71.812391 666.280959 71.812391 665.810899 
C 71.812391 665.340838 71.625634 664.889967 71.293252 664.557585 
C 70.960869 664.225202 70.509998 664.038445 70.039938 664.038445 
C 69.569877 664.038445 69.119006 664.225202 68.786623 664.557585 
C 68.454241 664.889967 68.267484 665.340838 68.267484 665.810899 
C 68.267484 666.280959 68.454241 666.73183 68.786623 667.064213 
C 69.119006 667.396596 69.569877 667.583353 70.039938 667.583353 
z
" clip-path="url(#p01ad01a730)" style="fill: #db5f57; stroke: #db5f57; stroke-width: 0.886227"/>
    <path d="M 70.039938 667.583353 
C 70.509998 667.583353 70.960869 667.396596 71.293252 667.064213 
C 71.625634 666.73183 71.812391 666.280959 71.812391 665.810899 
C 71.812391 665.340838 71.625634 664.889967 71.293252 664.557585 
C 70.960869 664.225202 70.509998 664.038445 70.039938 664.038445 
C 69.569877 664.038445 69.119006 664.225202 68.786623 664.557585 
C 68.454241 664.889967 68.267484 665.340838 68.267484 665.810899 
C 68.267484 666.280959 68.454241 666.73183 68.786623 667.064213 
C 69.119006 667.396596 69.569877 667.583353 70.039938 667.583353 
z
" clip-path="url(#p01ad01a730)" style="fill: #db5f57; stroke: #db5f57; stroke-width: 0.886227"/>
    <path d="M 70.039938 667.583353 
C 70.509998 667.583353 70.960869 667.396596 71.293252 667.064213 
C 71.625634 666.73183 71.812391 666.280959 71.812391 665.810899 
C 71.812391 665.340838 71.625634 664.889967 71.293252 664.557585 
C 70.960869 664.225202 70.509998 664.038445 70.039938 664.038445 
C 69.569877 664.038445 69.119006 664.225202 68.786623 664.557585 
C 68.454241 664.889967 68.267484 665.340838 68.267484 665.810899 
C 68.267484 666.280959 68.454241 666.73183 68.786623 667.064213 
C 69.119006 667.396596 69.569877 667.583353 70.039938 667.583353 
z
" clip-path="url(#p01ad01a730)" style="fill: #db5f57; stroke: #db5f57; stroke-width: 0.886227"/>
    <path d="M 70.039938 667.583353 
C 70.509998 667.583353 70.960869 667.396596 71.293252 667.064213 
C 71.625634 666.73183 71.812391 666.280959 71.812391 665.810899 
C 71.812391 665.340838 71.625634 664.889967 71.293252 664.557585 
C 70.960869 664.225202 70.509998 664.038445 70.039938 664.038445 
C 69.569877 664.038445 69.119006 664.225202 68.786623 664.557585 
C 68.454241 664.889967 68.267484 665.340838 68.267484 665.810899 
C 68.267484 666.280959 68.454241 666.73183 68.786623 667.064213 
C 69.119006 667.396596 69.569877 667.583353 70.039938 667.583353 
z
" clip-path="url(#p01ad01a730)" style="fill: #db5f57; stroke: #db5f57; stroke-width: 0.886227"/>
    <path d="M 70.039938 667.583353 
C 70.509998 667.583353 70.960869 667.396596 71.293252 667.064213 
C 71.625634 666.73183 71.812391 666.280959 71.812391 665.810899 
C 71.812391 665.340838 71.625634 664.889967 71.293252 664.557585 
C 70.960869 664.225202 70.509998 664.038445 70.039938 664.038445 
C 69.569877 664.038445 69.119006 664.225202 68.786623 664.557585 
C 68.454241 664.889967 68.267484 665.340838 68.267484 665.810899 
C 68.267484 666.280959 68.454241 666.73183 68.786623 667.064213 
C 69.119006 667.396596 69.569877 667.583353 70.039938 667.583353 
z
" clip-path="url(#p01ad01a730)" style="fill: #db5f57; stroke: #db5f57; stroke-width: 0.886227"/>
    <path d="M 70.039938 667.583353 
C 70.509998 667.583353 70.960869 667.396596 71.293252 667.064213 
C 71.625634 666.73183 71.812391 666.280959 71.812391 665.810899 
C 71.812391 665.340838 71.625634 664.889967 71.293252 664.557585 
C 70.960869 664.225202 70.509998 664.038445 70.039938 664.038445 
C 69.569877 664.038445 69.119006 664.225202 68.786623 664.557585 
C 68.454241 664.889967 68.267484 665.340838 68.267484 665.810899 
C 68.267484 666.280959 68.454241 666.73183 68.786623 667.064213 
C 69.119006 667.396596 69.569877 667.583353 70.039938 667.583353 
z
" clip-path="url(#p01ad01a730)" style="fill: #db5f57; stroke: #db5f57; stroke-width: 0.886227"/>
    <path d="M 129.023761 315.777745 
C 129.493821 315.777745 129.944692 315.590988 130.277075 315.258605 
C 130.609458 314.926222 130.796215 314.475351 130.796215 314.005291 
C 130.796215 313.53523 130.609458 313.084359 130.277075 312.751977 
C 129.944692 312.419594 129.493821 312.232837 129.023761 312.232837 
C 128.5537 312.232837 128.102829 312.419594 127.770447 312.751977 
C 127.438064 313.084359 127.251307 313.53523 127.251307 314.005291 
C 127.251307 314.475351 127.438064 314.926222 127.770447 315.258605 
C 128.102829 315.590988 128.5537 315.777745 129.023761 315.777745 
z
" clip-path="url(#p01ad01a730)" style="fill: #57d3db; stroke: #57d3db; stroke-width: 0.886227"/>
    <path d="M 159.601871 384.911425 
C 160.071931 384.911425 160.522802 384.724668 160.855185 384.392285 
C 161.187568 384.059902 161.374324 383.609031 161.374324 383.138971 
C 161.374324 382.66891 161.187568 382.218039 160.855185 381.885657 
C 160.522802 381.553274 160.071931 381.366517 159.601871 381.366517 
C 159.13181 381.366517 158.680939 381.553274 158.348556 381.885657 
C 158.016174 382.218039 157.829417 382.66891 157.829417 383.138971 
C 157.829417 383.609031 158.016174 384.059902 158.348556 384.392285 
C 158.680939 384.724668 159.13181 384.911425 159.601871 384.911425 
z
" clip-path="url(#p01ad01a730)" style="fill: #57d3db; stroke: #57d3db; stroke-width: 0.886227"/>
    <path d="M 188.739875 485.346529 
C 189.209936 485.346529 189.660807 485.159772 189.99319 484.827389 
C 190.325572 484.495006 190.512329 484.044135 190.512329 483.574075 
C 190.512329 483.104014 190.325572 482.653143 189.99319 482.320761 
C 189.660807 481.988378 189.209936 481.801621 188.739875 481.801621 
C 188.269815 481.801621 187.818944 481.988378 187.486561 482.320761 
C 187.154178 482.653143 186.967422 483.104014 186.967422 483.574075 
C 186.967422 484.044135 187.154178 484.495006 187.486561 484.827389 
C 187.818944 485.159772 188.269815 485.346529 188.739875 485.346529 
z
" clip-path="url(#p01ad01a730)" style="fill: #db5f57; stroke: #db5f57; stroke-width: 0.886227"/>
    <path d="M 327.069701 530.020081 
C 327.539762 530.020081 327.990633 529.833324 328.323015 529.500941 
C 328.655398 529.168558 328.842155 528.717687 328.842155 528.247627 
C 328.842155 527.777566 328.655398 527.326695 328.323015 526.994313 
C 327.990633 526.66193 327.539762 526.475173 327.069701 526.475173 
C 326.599641 526.475173 326.14877 526.66193 325.816387 526.994313 
C 325.484004 527.326695 325.297247 527.777566 325.297247 528.247627 
C 325.297247 528.717687 325.484004 529.168558 325.816387 529.500941 
C 326.14877 529.833324 326.599641 530.020081 327.069701 530.020081 
z
" clip-path="url(#p01ad01a730)" style="fill: #db5f57; stroke: #db5f57; stroke-width: 0.886227"/>
    <path d="M 381.321382 202.702321 
C 381.791442 202.702321 382.242313 202.515564 382.574696 202.183181 
C 382.907079 201.850798 383.093835 201.399927 383.093835 200.929867 
C 383.093835 200.459806 382.907079 200.008935 382.574696 199.676553 
C 382.242313 199.34417 381.791442 199.157413 381.321382 199.157413 
C 380.851321 199.157413 380.40045 199.34417 380.068067 199.676553 
C 379.735685 200.008935 379.548928 200.459806 379.548928 200.929867 
C 379.548928 201.399927 379.735685 201.850798 380.068067 202.183181 
C 380.40045 202.515564 380.851321 202.702321 381.321382 202.702321 
z
" clip-path="url(#p01ad01a730)" style="fill: #db5f57; stroke: #db5f57; stroke-width: 0.886227"/>
    <path d="M 412.954624 343.192825 
C 413.424684 343.192825 413.875555 343.006068 414.207938 342.673685 
C 414.540321 342.341302 414.727078 341.890431 414.727078 341.420371 
C 414.727078 340.95031 414.540321 340.499439 414.207938 340.167057 
C 413.875555 339.834674 413.424684 339.647917 412.954624 339.647917 
C 412.484564 339.647917 412.033693 339.834674 411.70131 340.167057 
C 411.368927 340.499439 411.18217 340.95031 411.18217 341.420371 
C 411.18217 341.890431 411.368927 342.341302 411.70131 342.673685 
C 412.033693 343.006068 412.484564 343.192825 412.954624 343.192825 
z
" clip-path="url(#p01ad01a730)" style="fill: #db5f57; stroke: #db5f57; stroke-width: 0.886227"/>
    <path d="M 432.600381 220.786849 
C 433.070441 220.786849 433.521312 220.600092 433.853695 220.267709 
C 434.186078 219.935326 434.372835 219.484455 434.372835 219.014395 
C 434.372835 218.544334 434.186078 218.093463 433.853695 217.761081 
C 433.521312 217.428698 433.070441 217.241941 432.600381 217.241941 
C 432.130321 217.241941 431.67945 217.428698 431.347067 217.761081 
C 431.014684 218.093463 430.827927 218.544334 430.827927 219.014395 
C 430.827927 219.484455 431.014684 219.935326 431.347067 220.267709 
C 431.67945 220.600092 432.130321 220.786849 432.600381 220.786849 
z
" clip-path="url(#p01ad01a730)" style="fill: #db5f57; stroke: #db5f57; stroke-width: 0.886227"/>
    <path d="M 514.743164 201.732121 
C 515.213225 201.732121 515.664096 201.545364 515.996479 201.212981 
C 516.328861 200.880598 516.515618 200.429727 516.515618 199.959667 
C 516.515618 199.489606 516.328861 199.038735 515.996479 198.706353 
C 515.664096 198.37397 515.213225 198.187213 514.743164 198.187213 
C 514.273104 198.187213 513.822233 198.37397 513.48985 198.706353 
C 513.157467 199.038735 512.970711 199.489606 512.970711 199.959667 
C 512.970711 200.429727 513.157467 200.880598 513.48985 201.212981 
C 513.822233 201.545364 514.273104 201.732121 514.743164 201.732121 
z
" clip-path="url(#p01ad01a730)" style="fill: #db5f57; stroke: #db5f57; stroke-width: 0.886227"/>
    <path d="M 522.753104 272.318329 
C 523.223164 272.318329 523.674035 272.131572 524.006418 271.799189 
C 524.338801 271.466806 524.525558 271.015935 524.525558 270.545875 
C 524.525558 270.075814 524.338801 269.624943 524.006418 269.292561 
C 523.674035 268.960178 523.223164 268.773421 522.753104 268.773421 
C 522.283044 268.773421 521.832173 268.960178 521.49979 269.292561 
C 521.167407 269.624943 520.98065 270.075814 520.98065 270.545875 
C 520.98065 271.015935 521.167407 271.466806 521.49979 271.799189 
C 521.832173 272.131572 522.283044 272.318329 522.753104 272.318329 
z
" clip-path="url(#p01ad01a730)" style="fill: #db5f57; stroke: #db5f57; stroke-width: 0.886227"/>
    <path d="M 561.80277 420.115825 
C 562.27283 420.115825 562.723702 419.929068 563.056084 419.596685 
C 563.388467 419.264302 563.575224 418.813431 563.575224 418.343371 
C 563.575224 417.87331 563.388467 417.422439 563.056084 417.090057 
C 562.723702 416.757674 562.27283 416.570917 561.80277 416.570917 
C 561.33271 416.570917 560.881839 416.757674 560.549456 417.090057 
C 560.217073 417.422439 560.030316 417.87331 560.030316 418.343371 
C 560.030316 418.813431 560.217073 419.264302 560.549456 419.596685 
C 560.881839 419.929068 561.33271 420.115825 561.80277 420.115825 
z
" clip-path="url(#p01ad01a730)" style="fill: #db5f57; stroke: #db5f57; stroke-width: 0.886227"/>
    <path d="M 566.511937 509.002777 
C 566.981997 509.002777 567.432868 508.81602 567.765251 508.483637 
C 568.097634 508.151254 568.284391 507.700383 568.284391 507.230323 
C 568.284391 506.760262 568.097634 506.309391 567.765251 505.977009 
C 567.432868 505.644626 566.981997 505.457869 566.511937 505.457869 
C 566.041877 505.457869 565.591005 505.644626 565.258623 505.977009 
C 564.92624 506.309391 564.739483 506.760262 564.739483 507.230323 
C 564.739483 507.700383 564.92624 508.151254 565.258623 508.483637 
C 565.591005 508.81602 566.041877 509.002777 566.511937 509.002777 
z
" clip-path="url(#p01ad01a730)" style="fill: #db5f57; stroke: #db5f57; stroke-width: 0.886227"/>
    <path d="M 625.750864 398.150497 
C 626.220925 398.150497 626.671796 397.96374 627.004178 397.631357 
C 627.336561 397.298974 627.523318 396.848103 627.523318 396.378043 
C 627.523318 395.907982 627.336561 395.457111 627.004178 395.124729 
C 626.671796 394.792346 626.220925 394.605589 625.750864 394.605589 
C 625.280804 394.605589 624.829933 394.792346 624.49755 395.124729 
C 624.165167 395.457111 623.97841 395.907982 623.97841 396.378043 
C 623.97841 396.848103 624.165167 397.298974 624.49755 397.631357 
C 624.829933 397.96374 625.280804 398.150497 625.750864 398.150497 
z
" clip-path="url(#p01ad01a730)" style="fill: #db5f57; stroke: #db5f57; stroke-width: 0.886227"/>
    <path d="M 631.301296 457.715233 
C 631.771357 457.715233 632.222228 457.528476 632.55461 457.196093 
C 632.886993 456.86371 633.07375 456.412839 633.07375 455.942779 
C 633.07375 455.472718 632.886993 455.021847 632.55461 454.689465 
C 632.222228 454.357082 631.771357 454.170325 631.301296 454.170325 
C 630.831236 454.170325 630.380365 454.357082 630.047982 454.689465 
C 629.715599 455.021847 629.528842 455.472718 629.528842 455.942779 
C 629.528842 456.412839 629.715599 456.86371 630.047982 457.196093 
C 630.380365 457.528476 630.831236 457.715233 631.301296 457.715233 
z
" clip-path="url(#p01ad01a730)" style="fill: #db5f57; stroke: #db5f57; stroke-width: 0.886227"/>
    <path d="M 650.592813 305.970409 
C 651.062873 305.970409 651.513744 305.783652 651.846127 305.451269 
C 652.17851 305.118886 652.365267 304.668015 652.365267 304.197955 
C 652.365267 303.727894 652.17851 303.277023 651.846127 302.944641 
C 651.513744 302.612258 651.062873 302.425501 650.592813 302.425501 
C 650.122753 302.425501 649.671882 302.612258 649.339499 302.944641 
C 649.007116 303.277023 648.820359 303.727894 648.820359 304.197955 
C 648.820359 304.668015 649.007116 305.118886 649.339499 305.451269 
C 649.671882 305.783652 650.122753 305.970409 650.592813 305.970409 
z
" clip-path="url(#p01ad01a730)" style="fill: #db5f57; stroke: #db5f57; stroke-width: 0.886227"/>
    <path d="M 654.398499 206.322553 
C 654.868559 206.322553 655.31943 206.135796 655.651813 205.803413 
C 655.984196 205.47103 656.170953 205.020159 656.170953 204.550099 
C 656.170953 204.080038 655.984196 203.629167 655.651813 203.296785 
C 655.31943 202.964402 654.868559 202.777645 654.398499 202.777645 
C 653.928439 202.777645 653.477568 202.964402 653.145185 203.296785 
C 652.812802 203.629167 652.626045 204.080038 652.626045 204.550099 
C 652.626045 205.020159 652.812802 205.47103 653.145185 205.803413 
C 653.477568 206.135796 653.928439 206.322553 654.398499 206.322553 
z
" clip-path="url(#p01ad01a730)" style="fill: #db5f57; stroke: #db5f57; stroke-width: 0.886227"/>
    <path d="M 665.459584 468.149041 
C 665.929644 468.149041 666.380515 467.962284 666.712898 467.629901 
C 667.045281 467.297518 667.232038 466.846647 667.232038 466.376587 
C 667.232038 465.906526 667.045281 465.455655 666.712898 465.123273 
C 666.380515 464.79089 665.929644 464.604133 665.459584 464.604133 
C 664.989524 464.604133 664.538653 464.79089 664.20627 465.123273 
C 663.873887 465.455655 663.68713 465.906526 663.68713 466.376587 
C 663.68713 466.846647 663.873887 467.297518 664.20627 467.629901 
C 664.538653 467.962284 664.989524 468.149041 665.459584 468.149041 
z
" clip-path="url(#p01ad01a730)" style="fill: #db5f57; stroke: #db5f57; stroke-width: 0.886227"/>
    <path d="M 706.02502 423.347977 
C 706.49508 423.347977 706.945951 423.16122 707.278334 422.828837 
C 707.610717 422.496454 707.797473 422.045583 707.797473 421.575523 
C 707.797473 421.105462 707.610717 420.654591 707.278334 420.322209 
C 706.945951 419.989826 706.49508 419.803069 706.02502 419.803069 
C 705.554959 419.803069 705.104088 419.989826 704.771705 420.322209 
C 704.439323 420.654591 704.252566 421.105462 704.252566 421.575523 
C 704.252566 422.045583 704.439323 422.496454 704.771705 422.828837 
C 705.104088 423.16122 705.554959 423.347977 706.02502 423.347977 
z
" clip-path="url(#p01ad01a730)" style="fill: #db5f57; stroke: #db5f57; stroke-width: 0.886227"/>
    <path d="M 718.858503 533.446273 
C 719.328564 533.446273 719.779435 533.259516 720.111818 532.927133 
C 720.4442 532.59475 720.630957 532.143879 720.630957 531.673819 
C 720.630957 531.203758 720.4442 530.752887 720.111818 530.420505 
C 719.779435 530.088122 719.328564 529.901365 718.858503 529.901365 
C 718.388443 529.901365 717.937572 530.088122 717.605189 530.420505 
C 717.272806 530.752887 717.08605 531.203758 717.08605 531.673819 
C 717.08605 532.143879 717.272806 532.59475 717.605189 532.927133 
C 717.937572 533.259516 718.388443 533.446273 718.858503 533.446273 
z
" clip-path="url(#p01ad01a730)" style="fill: #db5f57; stroke: #db5f57; stroke-width: 0.886227"/>
    <path d="M 740.255558 603.450361 
C 740.725618 603.450361 741.176489 603.263604 741.508872 602.931221 
C 741.841255 602.598838 742.028012 602.147967 742.028012 601.677907 
C 742.028012 601.207846 741.841255 600.756975 741.508872 600.424593 
C 741.176489 600.09221 740.725618 599.905453 740.255558 599.905453 
C 739.785498 599.905453 739.334627 600.09221 739.002244 600.424593 
C 738.669861 600.756975 738.483104 601.207846 738.483104 601.677907 
C 738.483104 602.147967 738.669861 602.598838 739.002244 602.931221 
C 739.334627 603.263604 739.785498 603.450361 740.255558 603.450361 
z
" clip-path="url(#p01ad01a730)" style="fill: #db5f57; stroke: #db5f57; stroke-width: 0.886227"/>
    <path d="M 761.385371 286.189417 
C 761.855431 286.189417 762.306302 286.00266 762.638685 285.670277 
C 762.971068 285.337894 763.157825 284.887023 763.157825 284.416963 
C 763.157825 283.946902 762.971068 283.496031 762.638685 283.163649 
C 762.306302 282.831266 761.855431 282.644509 761.385371 282.644509 
C 760.915311 282.644509 760.46444 282.831266 760.132057 283.163649 
C 759.799674 283.496031 759.612917 283.946902 759.612917 284.416963 
C 759.612917 284.887023 759.799674 285.337894 760.132057 285.670277 
C 760.46444 286.00266 760.915311 286.189417 761.385371 286.189417 
z
" clip-path="url(#p01ad01a730)" style="fill: #db5f57; stroke: #db5f57; stroke-width: 0.886227"/>
    <path d="M 800.420347 231.159673 
C 800.890407 231.159673 801.341278 230.972916 801.673661 230.640533 
C 802.006044 230.30815 802.192801 229.857279 802.192801 229.387219 
C 802.192801 228.917158 802.006044 228.466287 801.673661 228.133905 
C 801.341278 227.801522 800.890407 227.614765 800.420347 227.614765 
C 799.950287 227.614765 799.499415 227.801522 799.167033 228.133905 
C 798.83465 228.466287 798.647893 228.917158 798.647893 229.387219 
C 798.647893 229.857279 798.83465 230.30815 799.167033 230.640533 
C 799.499415 230.972916 799.950287 231.159673 800.420347 231.159673 
z
" clip-path="url(#p01ad01a730)" style="fill: #db5f57; stroke: #db5f57; stroke-width: 0.886227"/>
    <path d="M 839.385211 89.671249 
C 839.855272 89.671249 840.306143 89.484492 840.638525 89.152109 
C 840.970908 88.819726 841.157665 88.368855 841.157665 87.898795 
C 841.157665 87.428734 840.970908 86.977863 840.638525 86.645481 
C 840.306143 86.313098 839.855272 86.126341 839.385211 86.126341 
C 838.915151 86.126341 838.46428 86.313098 838.131897 86.645481 
C 837.799514 86.977863 837.612757 87.428734 837.612757 87.898795 
C 837.612757 88.368855 837.799514 88.819726 838.131897 89.152109 
C 838.46428 89.484492 838.915151 89.671249 839.385211 89.671249 
z
" clip-path="url(#p01ad01a730)" style="fill: #db5f57; stroke: #db5f57; stroke-width: 0.886227"/>
    <path d="M 978.638826 512.567569 
C 979.108887 512.567569 979.559758 512.380812 979.89214 512.048429 
C 980.224523 511.716046 980.41128 511.265175 980.41128 510.795115 
C 980.41128 510.325054 980.224523 509.874183 979.89214 509.541801 
C 979.559758 509.209418 979.108887 509.022661 978.638826 509.022661 
C 978.168766 509.022661 977.717895 509.209418 977.385512 509.541801 
C 977.053129 509.874183 976.866372 510.325054 976.866372 510.795115 
C 976.866372 511.265175 977.053129 511.716046 977.385512 512.048429 
C 977.717895 512.380812 978.168766 512.567569 978.638826 512.567569 
z
" clip-path="url(#p01ad01a730)" style="fill: #db5f57; stroke: #db5f57; stroke-width: 0.886227"/>
    <path d="M 1086.973881 442.524673 
C 1087.443941 442.524673 1087.894812 442.337916 1088.227195 442.005533 
C 1088.559578 441.67315 1088.746335 441.222279 1088.746335 440.752219 
C 1088.746335 440.282158 1088.559578 439.831287 1088.227195 439.498905 
C 1087.894812 439.166522 1087.443941 438.979765 1086.973881 438.979765 
C 1086.503821 438.979765 1086.05295 439.166522 1085.720567 439.498905 
C 1085.388184 439.831287 1085.201427 440.282158 1085.201427 440.752219 
C 1085.201427 441.222279 1085.388184 441.67315 1085.720567 442.005533 
C 1086.05295 442.337916 1086.503821 442.524673 1086.973881 442.524673 
z
" clip-path="url(#p01ad01a730)" style="fill: #db5f57; stroke: #db5f57; stroke-width: 0.886227"/>
   </g>
   <g id="line2d_31">
    <path d="M 70.039938 665.810899 
L 631.301296 455.942779 
" clip-path="url(#p01ad01a730)" style="fill: none; stroke: #db5f57; stroke-width: 0.886227"/>
   </g>
   <g id="line2d_32">
    <path d="M 70.039938 665.810899 
L 159.601871 383.138971 
" clip-path="url(#p01ad01a730)" style="fill: none; stroke: #57d3db; stroke-width: 0.886227"/>
   </g>
   <g id="line2d_33">
    <path d="M 70.039938 665.810899 
L 665.459584 466.376587 
" clip-path="url(#p01ad01a730)" style="fill: none; stroke: #db5f57; stroke-width: 0.886227"/>
   </g>
   <g id="line2d_34">
    <path d="M 70.039938 665.810899 
L 561.80277 418.343371 
" clip-path="url(#p01ad01a730)" style="fill: none; stroke: #db5f57; stroke-width: 0.886227"/>
   </g>
   <g id="line2d_35">
    <path d="M 70.039938 665.810899 
L 381.321382 200.929867 
" clip-path="url(#p01ad01a730)" style="fill: none; stroke: #db5f57; stroke-width: 0.886227"/>
   </g>
   <g id="line2d_36">
    <path d="M 70.039938 665.810899 
L 978.638826 510.795115 
" clip-path="url(#p01ad01a730)" style="fill: none; stroke: #db5f57; stroke-width: 0.886227"/>
   </g>
   <g id="line2d_37">
    <path d="M 70.039938 665.810899 
L 412.954624 341.420371 
" clip-path="url(#p01ad01a730)" style="fill: none; stroke: #db5f57; stroke-width: 0.886227"/>
   </g>
   <g id="line2d_38">
    <path d="M 70.039938 665.810899 
L 654.398499 204.550099 
" clip-path="url(#p01ad01a730)" style="fill: none; stroke: #db5f57; stroke-width: 0.886227"/>
   </g>
   <g id="line2d_39">
    <path d="M 70.039938 665.810899 
L 327.069701 528.247627 
" clip-path="url(#p01ad01a730)" style="fill: none; stroke: #db5f57; stroke-width: 0.886227"/>
   </g>
   <g id="line2d_40">
    <path d="M 70.039938 665.810899 
L 625.750864 396.378043 
" clip-path="url(#p01ad01a730)" style="fill: none; stroke: #db5f57; stroke-width: 0.886227"/>
   </g>
   <g id="line2d_41">
    <path d="M 70.039938 665.810899 
L 740.255558 601.677907 
" clip-path="url(#p01ad01a730)" style="fill: none; stroke: #db5f57; stroke-width: 0.886227"/>
   </g>
   <g id="line2d_42">
    <path d="M 70.039938 665.810899 
L 514.743164 199.959667 
" clip-path="url(#p01ad01a730)" style="fill: none; stroke: #db5f57; stroke-width: 0.886227"/>
   </g>
   <g id="line2d_43">
    <path d="M 70.039938 665.810899 
L 839.385211 87.898795 
" clip-path="url(#p01ad01a730)" style="fill: none; stroke: #db5f57; stroke-width: 0.886227"/>
   </g>
   <g id="line2d_44">
    <path d="M 70.039938 665.810899 
L 800.420347 229.387219 
" clip-path="url(#p01ad01a730)" style="fill: none; stroke: #db5f57; stroke-width: 0.886227"/>
   </g>
   <g id="line2d_45">
    <path d="M 70.039938 665.810899 
L 188.739875 483.574075 
" clip-path="url(#p01ad01a730)" style="fill: none; stroke: #db5f57; stroke-width: 0.886227"/>
   </g>
   <g id="line2d_46">
    <path d="M 70.039938 665.810899 
L 432.600381 219.014395 
" clip-path="url(#p01ad01a730)" style="fill: none; stroke: #db5f57; stroke-width: 0.886227"/>
   </g>
   <g id="line2d_47">
    <path d="M 70.039938 665.810899 
L 650.592813 304.197955 
" clip-path="url(#p01ad01a730)" style="fill: none; stroke: #db5f57; stroke-width: 0.886227"/>
   </g>
   <g id="line2d_48">
    <path d="M 70.039938 665.810899 
L 129.023761 314.005291 
" clip-path="url(#p01ad01a730)" style="fill: none; stroke: #57d3db; stroke-width: 0.886227"/>
   </g>
   <g id="line2d_49">
    <path d="M 70.039938 665.810899 
L 566.511937 507.230323 
" clip-path="url(#p01ad01a730)" style="fill: none; stroke: #db5f57; stroke-width: 0.886227"/>
   </g>
   <g id="line2d_50">
    <path d="M 70.039938 665.810899 
L 1086.973881 440.752219 
" clip-path="url(#p01ad01a730)" style="fill: none; stroke: #db5f57; stroke-width: 0.886227"/>
   </g>
   <g id="line2d_51">
    <path d="M 70.039938 665.810899 
L 522.753104 270.545875 
" clip-path="url(#p01ad01a730)" style="fill: none; stroke: #db5f57; stroke-width: 0.886227"/>
   </g>
   <g id="line2d_52">
    <path d="M 70.039938 665.810899 
L 718.858503 531.673819 
" clip-path="url(#p01ad01a730)" style="fill: none; stroke: #db5f57; stroke-width: 0.886227"/>
   </g>
   <g id="line2d_53">
    <path d="M 70.039938 665.810899 
L 706.02502 421.575523 
" clip-path="url(#p01ad01a730)" style="fill: none; stroke: #db5f57; stroke-width: 0.886227"/>
   </g>
   <g id="line2d_54">
    <path d="M 70.039938 665.810899 
L 761.385371 284.416963 
" clip-path="url(#p01ad01a730)" style="fill: none; stroke: #db5f57; stroke-width: 0.886227"/>
   </g>
   <g id="patch_3">
    <path d="M 1193.239937 391.141308 
L 1455.480562 391.141308 
L 1455.480562 317.709433 
L 1193.239937 317.709433 
L 1193.239937 391.141308 
z
" style="fill: none"/>
   </g>
   <g id="text_19">
    <!-- town_high.isin(['North Andover','Andover']) -->
    <g transform="translate(1205.439938 341.150058)scale(0.11 -0.11)">
     <defs>
      <path id="DejaVuSans-5f" d="M 3263 -1063 
L 3263 -1509 
L -63 -1509 
L -63 -1063 
L 3263 -1063 
z
" transform="scale(0.015625)"/>
      <path id="DejaVuSans-67" d="M 2906 1791 
Q 2906 2416 2648 2759 
Q 2391 3103 1925 3103 
Q 1463 3103 1205 2759 
Q 947 2416 947 1791 
Q 947 1169 1205 825 
Q 1463 481 1925 481 
Q 2391 481 2648 825 
Q 2906 1169 2906 1791 
z
M 3481 434 
Q 3481 -459 3084 -895 
Q 2688 -1331 1869 -1331 
Q 1566 -1331 1297 -1286 
Q 1028 -1241 775 -1147 
L 775 -588 
Q 1028 -725 1275 -790 
Q 1522 -856 1778 -856 
Q 2344 -856 2625 -561 
Q 2906 -266 2906 331 
L 2906 616 
Q 2728 306 2450 153 
Q 2172 0 1784 0 
Q 1141 0 747 490 
Q 353 981 353 1791 
Q 353 2603 747 3093 
Q 1141 3584 1784 3584 
Q 2172 3584 2450 3431 
Q 2728 3278 2906 2969 
L 2906 3500 
L 3481 3500 
L 3481 434 
z
" transform="scale(0.015625)"/>
      <path id="DejaVuSans-2e" d="M 684 794 
L 1344 794 
L 1344 0 
L 684 0 
L 684 794 
z
" transform="scale(0.015625)"/>
      <path id="DejaVuSans-28" d="M 1984 4856 
Q 1566 4138 1362 3434 
Q 1159 2731 1159 2009 
Q 1159 1288 1364 580 
Q 1569 -128 1984 -844 
L 1484 -844 
Q 1016 -109 783 600 
Q 550 1309 550 2009 
Q 550 2706 781 3412 
Q 1013 4119 1484 4856 
L 1984 4856 
z
" transform="scale(0.015625)"/>
      <path id="DejaVuSans-5b" d="M 550 4863 
L 1875 4863 
L 1875 4416 
L 1125 4416 
L 1125 -397 
L 1875 -397 
L 1875 -844 
L 550 -844 
L 550 4863 
z
" transform="scale(0.015625)"/>
      <path id="DejaVuSans-27" d="M 1147 4666 
L 1147 2931 
L 616 2931 
L 616 4666 
L 1147 4666 
z
" transform="scale(0.015625)"/>
      <path id="DejaVuSans-4e" d="M 628 4666 
L 1478 4666 
L 3547 763 
L 3547 4666 
L 4159 4666 
L 4159 0 
L 3309 0 
L 1241 3903 
L 1241 0 
L 628 0 
L 628 4666 
z
" transform="scale(0.015625)"/>
      <path id="DejaVuSans-72" d="M 2631 2963 
Q 2534 3019 2420 3045 
Q 2306 3072 2169 3072 
Q 1681 3072 1420 2755 
Q 1159 2438 1159 1844 
L 1159 0 
L 581 0 
L 581 3500 
L 1159 3500 
L 1159 2956 
Q 1341 3275 1631 3429 
Q 1922 3584 2338 3584 
Q 2397 3584 2469 3576 
Q 2541 3569 2628 3553 
L 2631 2963 
z
" transform="scale(0.015625)"/>
      <path id="DejaVuSans-41" d="M 2188 4044 
L 1331 1722 
L 3047 1722 
L 2188 4044 
z
M 1831 4666 
L 2547 4666 
L 4325 0 
L 3669 0 
L 3244 1197 
L 1141 1197 
L 716 0 
L 50 0 
L 1831 4666 
z
" transform="scale(0.015625)"/>
      <path id="DejaVuSans-76" d="M 191 3500 
L 800 3500 
L 1894 563 
L 2988 3500 
L 3597 3500 
L 2284 0 
L 1503 0 
L 191 3500 
z
" transform="scale(0.015625)"/>
      <path id="DejaVuSans-2c" d="M 750 794 
L 1409 794 
L 1409 256 
L 897 -744 
L 494 -744 
L 750 256 
L 750 794 
z
" transform="scale(0.015625)"/>
      <path id="DejaVuSans-5d" d="M 1947 4863 
L 1947 -844 
L 622 -844 
L 622 -397 
L 1369 -397 
L 1369 4416 
L 622 4416 
L 622 4863 
L 1947 4863 
z
" transform="scale(0.015625)"/>
      <path id="DejaVuSans-29" d="M 513 4856 
L 1013 4856 
Q 1481 4119 1714 3412 
Q 1947 2706 1947 2009 
Q 1947 1309 1714 600 
Q 1481 -109 1013 -844 
L 513 -844 
Q 928 -128 1133 580 
Q 1338 1288 1338 2009 
Q 1338 2731 1133 3434 
Q 928 4138 513 4856 
z
" transform="scale(0.015625)"/>
     </defs>
     <use xlink:href="#DejaVuSans-74"/>
     <use xlink:href="#DejaVuSans-6f" x="39.208984"/>
     <use xlink:href="#DejaVuSans-77" x="100.390625"/>
     <use xlink:href="#DejaVuSans-6e" x="182.177734"/>
     <use xlink:href="#DejaVuSans-5f" x="245.556641"/>
     <use xlink:href="#DejaVuSans-68" x="295.556641"/>
     <use xlink:href="#DejaVuSans-69" x="358.935547"/>
     <use xlink:href="#DejaVuSans-67" x="386.71875"/>
     <use xlink:href="#DejaVuSans-68" x="450.195312"/>
     <use xlink:href="#DejaVuSans-2e" x="513.574219"/>
     <use xlink:href="#DejaVuSans-69" x="545.361328"/>
     <use xlink:href="#DejaVuSans-73" x="573.144531"/>
     <use xlink:href="#DejaVuSans-69" x="625.244141"/>
     <use xlink:href="#DejaVuSans-6e" x="653.027344"/>
     <use xlink:href="#DejaVuSans-28" x="716.40625"/>
     <use xlink:href="#DejaVuSans-5b" x="755.419922"/>
     <use xlink:href="#DejaVuSans-27" x="794.433594"/>
     <use xlink:href="#DejaVuSans-4e" x="821.923828"/>
     <use xlink:href="#DejaVuSans-6f" x="896.728516"/>
     <use xlink:href="#DejaVuSans-72" x="957.910156"/>
     <use xlink:href="#DejaVuSans-74" x="999.023438"/>
     <use xlink:href="#DejaVuSans-68" x="1038.232422"/>
     <use xlink:href="#DejaVuSans-20" x="1101.611328"/>
     <use xlink:href="#DejaVuSans-41" x="1133.398438"/>
     <use xlink:href="#DejaVuSans-6e" x="1201.806641"/>
     <use xlink:href="#DejaVuSans-64" x="1265.185547"/>
     <use xlink:href="#DejaVuSans-6f" x="1328.662109"/>
     <use xlink:href="#DejaVuSans-76" x="1389.84375"/>
     <use xlink:href="#DejaVuSans-65" x="1449.023438"/>
     <use xlink:href="#DejaVuSans-72" x="1510.546875"/>
     <use xlink:href="#DejaVuSans-27" x="1551.660156"/>
     <use xlink:href="#DejaVuSans-2c" x="1579.150391"/>
     <use xlink:href="#DejaVuSans-27" x="1610.9375"/>
     <use xlink:href="#DejaVuSans-41" x="1638.427734"/>
     <use xlink:href="#DejaVuSans-6e" x="1706.835938"/>
     <use xlink:href="#DejaVuSans-64" x="1770.214844"/>
     <use xlink:href="#DejaVuSans-6f" x="1833.691406"/>
     <use xlink:href="#DejaVuSans-76" x="1894.873047"/>
     <use xlink:href="#DejaVuSans-65" x="1954.052734"/>
     <use xlink:href="#DejaVuSans-72" x="2015.576172"/>
     <use xlink:href="#DejaVuSans-27" x="2056.689453"/>
     <use xlink:href="#DejaVuSans-5d" x="2084.179688"/>
     <use xlink:href="#DejaVuSans-29" x="2123.193359"/>
    </g>
   </g>
   <g id="patch_4">
    <path d="M 1205.439938 361.101308 
L 1221.279937 361.101308 
L 1221.279937 345.261308 
L 1205.439938 345.261308 
L 1205.439938 361.101308 
z
" clip-path="url(#pbea9982a30)" style="fill: none"/>
   </g>
   <g id="line2d_55">
    <path d="M 1213.359938 353.181308 
" clip-path="url(#pbea9982a30)" style="fill: none; stroke: #1f77b4; stroke-width: 1.5; stroke-linecap: square"/>
    <defs>
     <path id="mb42022c652" d="M 0 1.772454 
C 0.47006 1.772454 0.920931 1.585697 1.253314 1.253314 
C 1.585697 0.920931 1.772454 0.47006 1.772454 0 
C 1.772454 -0.47006 1.585697 -0.920931 1.253314 -1.253314 
C 0.920931 -1.585697 0.47006 -1.772454 0 -1.772454 
C -0.47006 -1.772454 -0.920931 -1.585697 -1.253314 -1.253314 
C -1.585697 -0.920931 -1.772454 -0.47006 -1.772454 0 
C -1.772454 0.47006 -1.585697 0.920931 -1.253314 1.253314 
C -0.920931 1.585697 -0.47006 1.772454 0 1.772454 
z
" style="stroke: #db5f57; stroke-width: 0.886227"/>
    </defs>
    <g clip-path="url(#pbea9982a30)">
     <use xlink:href="#mb42022c652" x="1213.359938" y="353.181308" style="fill: #db5f57; stroke: #db5f57; stroke-width: 0.886227"/>
    </g>
   </g>
   <g id="line2d_56">
    <path d="M 1205.439938 353.181308 
L 1221.279937 353.181308 
" clip-path="url(#pbea9982a30)" style="fill: none; stroke: #db5f57; stroke-width: 0.886227"/>
   </g>
   <g id="text_20">
    <!-- False -->
    <g transform="translate(1224.279937 355.609558)scale(0.088 -0.088)">
     <defs>
      <path id="DejaVuSans-46" d="M 628 4666 
L 3309 4666 
L 3309 4134 
L 1259 4134 
L 1259 2759 
L 3109 2759 
L 3109 2228 
L 1259 2228 
L 1259 0 
L 628 0 
L 628 4666 
z
" transform="scale(0.015625)"/>
     </defs>
     <use xlink:href="#DejaVuSans-46"/>
     <use xlink:href="#DejaVuSans-61" x="48.394531"/>
     <use xlink:href="#DejaVuSans-6c" x="109.673828"/>
     <use xlink:href="#DejaVuSans-73" x="137.457031"/>
     <use xlink:href="#DejaVuSans-65" x="189.556641"/>
    </g>
   </g>
   <g id="patch_5">
    <path d="M 1205.439938 378.941308 
L 1221.279937 378.941308 
L 1221.279937 363.101308 
L 1205.439938 363.101308 
L 1205.439938 378.941308 
z
" clip-path="url(#p0573c02453)" style="fill: none"/>
   </g>
   <g id="line2d_57">
    <path d="M 1213.359938 371.021308 
" clip-path="url(#p0573c02453)" style="fill: none; stroke: #1f77b4; stroke-width: 1.5; stroke-linecap: square"/>
    <defs>
     <path id="m1812f43247" d="M 0 1.772454 
C 0.47006 1.772454 0.920931 1.585697 1.253314 1.253314 
C 1.585697 0.920931 1.772454 0.47006 1.772454 0 
C 1.772454 -0.47006 1.585697 -0.920931 1.253314 -1.253314 
C 0.920931 -1.585697 0.47006 -1.772454 0 -1.772454 
C -0.47006 -1.772454 -0.920931 -1.585697 -1.253314 -1.253314 
C -1.585697 -0.920931 -1.772454 -0.47006 -1.772454 0 
C -1.772454 0.47006 -1.585697 0.920931 -1.253314 1.253314 
C -0.920931 1.585697 -0.47006 1.772454 0 1.772454 
z
" style="stroke: #57d3db; stroke-width: 0.886227"/>
    </defs>
    <g clip-path="url(#p0573c02453)">
     <use xlink:href="#m1812f43247" x="1213.359938" y="371.021308" style="fill: #57d3db; stroke: #57d3db; stroke-width: 0.886227"/>
    </g>
   </g>
   <g id="line2d_58">
    <path d="M 1205.439938 371.021308 
L 1221.279937 371.021308 
" clip-path="url(#p0573c02453)" style="fill: none; stroke: #57d3db; stroke-width: 0.886227"/>
   </g>
   <g id="text_21">
    <!-- True -->
    <g transform="translate(1224.279937 373.449558)scale(0.088 -0.088)">
     <defs>
      <path id="DejaVuSans-54" d="M -19 4666 
L 3928 4666 
L 3928 4134 
L 2272 4134 
L 2272 0 
L 1638 0 
L 1638 4134 
L -19 4134 
L -19 4666 
z
" transform="scale(0.015625)"/>
     </defs>
     <use xlink:href="#DejaVuSans-54"/>
     <use xlink:href="#DejaVuSans-72" x="46.333984"/>
     <use xlink:href="#DejaVuSans-75" x="87.447266"/>
     <use xlink:href="#DejaVuSans-65" x="150.826172"/>
    </g>
   </g>
  </g>
  <g id="text_22">
   <!-- Lawrence Distance to Other School Districts -->
   <g transform="translate(464.655344 17.229937)scale(0.132 -0.132)">
    <defs>
     <path id="DejaVuSans-4c" d="M 628 4666 
L 1259 4666 
L 1259 531 
L 3531 531 
L 3531 0 
L 628 0 
L 628 4666 
z
" transform="scale(0.015625)"/>
     <path id="DejaVuSans-44" d="M 1259 4147 
L 1259 519 
L 2022 519 
Q 2988 519 3436 956 
Q 3884 1394 3884 2338 
Q 3884 3275 3436 3711 
Q 2988 4147 2022 4147 
L 1259 4147 
z
M 628 4666 
L 1925 4666 
Q 3281 4666 3915 4102 
Q 4550 3538 4550 2338 
Q 4550 1131 3912 565 
Q 3275 0 1925 0 
L 628 0 
L 628 4666 
z
" transform="scale(0.015625)"/>
     <path id="DejaVuSans-4f" d="M 2522 4238 
Q 1834 4238 1429 3725 
Q 1025 3213 1025 2328 
Q 1025 1447 1429 934 
Q 1834 422 2522 422 
Q 3209 422 3611 934 
Q 4013 1447 4013 2328 
Q 4013 3213 3611 3725 
Q 3209 4238 2522 4238 
z
M 2522 4750 
Q 3503 4750 4090 4092 
Q 4678 3434 4678 2328 
Q 4678 1225 4090 567 
Q 3503 -91 2522 -91 
Q 1538 -91 948 565 
Q 359 1222 359 2328 
Q 359 3434 948 4092 
Q 1538 4750 2522 4750 
z
" transform="scale(0.015625)"/>
     <path id="DejaVuSans-53" d="M 3425 4513 
L 3425 3897 
Q 3066 4069 2747 4153 
Q 2428 4238 2131 4238 
Q 1616 4238 1336 4038 
Q 1056 3838 1056 3469 
Q 1056 3159 1242 3001 
Q 1428 2844 1947 2747 
L 2328 2669 
Q 3034 2534 3370 2195 
Q 3706 1856 3706 1288 
Q 3706 609 3251 259 
Q 2797 -91 1919 -91 
Q 1588 -91 1214 -16 
Q 841 59 441 206 
L 441 856 
Q 825 641 1194 531 
Q 1563 422 1919 422 
Q 2459 422 2753 634 
Q 3047 847 3047 1241 
Q 3047 1584 2836 1778 
Q 2625 1972 2144 2069 
L 1759 2144 
Q 1053 2284 737 2584 
Q 422 2884 422 3419 
Q 422 4038 858 4394 
Q 1294 4750 2059 4750 
Q 2388 4750 2728 4690 
Q 3069 4631 3425 4513 
z
" transform="scale(0.015625)"/>
    </defs>
    <use xlink:href="#DejaVuSans-4c"/>
    <use xlink:href="#DejaVuSans-61" x="55.712891"/>
    <use xlink:href="#DejaVuSans-77" x="116.992188"/>
    <use xlink:href="#DejaVuSans-72" x="198.779297"/>
    <use xlink:href="#DejaVuSans-65" x="237.642578"/>
    <use xlink:href="#DejaVuSans-6e" x="299.166016"/>
    <use xlink:href="#DejaVuSans-63" x="362.544922"/>
    <use xlink:href="#DejaVuSans-65" x="417.525391"/>
    <use xlink:href="#DejaVuSans-20" x="479.048828"/>
    <use xlink:href="#DejaVuSans-44" x="510.835938"/>
    <use xlink:href="#DejaVuSans-69" x="587.837891"/>
    <use xlink:href="#DejaVuSans-73" x="615.621094"/>
    <use xlink:href="#DejaVuSans-74" x="667.720703"/>
    <use xlink:href="#DejaVuSans-61" x="706.929688"/>
    <use xlink:href="#DejaVuSans-6e" x="768.208984"/>
    <use xlink:href="#DejaVuSans-63" x="831.587891"/>
    <use xlink:href="#DejaVuSans-65" x="886.568359"/>
    <use xlink:href="#DejaVuSans-20" x="948.091797"/>
    <use xlink:href="#DejaVuSans-74" x="979.878906"/>
    <use xlink:href="#DejaVuSans-6f" x="1019.087891"/>
    <use xlink:href="#DejaVuSans-20" x="1080.269531"/>
    <use xlink:href="#DejaVuSans-4f" x="1112.056641"/>
    <use xlink:href="#DejaVuSans-74" x="1190.767578"/>
    <use xlink:href="#DejaVuSans-68" x="1229.976562"/>
    <use xlink:href="#DejaVuSans-65" x="1293.355469"/>
    <use xlink:href="#DejaVuSans-72" x="1354.878906"/>
    <use xlink:href="#DejaVuSans-20" x="1395.992188"/>
    <use xlink:href="#DejaVuSans-53" x="1427.779297"/>
    <use xlink:href="#DejaVuSans-63" x="1491.255859"/>
    <use xlink:href="#DejaVuSans-68" x="1546.236328"/>
    <use xlink:href="#DejaVuSans-6f" x="1609.615234"/>
    <use xlink:href="#DejaVuSans-6f" x="1670.796875"/>
    <use xlink:href="#DejaVuSans-6c" x="1731.978516"/>
    <use xlink:href="#DejaVuSans-20" x="1759.761719"/>
    <use xlink:href="#DejaVuSans-44" x="1791.548828"/>
    <use xlink:href="#DejaVuSans-69" x="1868.550781"/>
    <use xlink:href="#DejaVuSans-73" x="1896.333984"/>
    <use xlink:href="#DejaVuSans-74" x="1948.433594"/>
    <use xlink:href="#DejaVuSans-72" x="1987.642578"/>
    <use xlink:href="#DejaVuSans-69" x="2028.755859"/>
    <use xlink:href="#DejaVuSans-63" x="2056.539062"/>
    <use xlink:href="#DejaVuSans-74" x="2111.519531"/>
    <use xlink:href="#DejaVuSans-73" x="2150.728516"/>
   </g>
  </g>
 </g>
 <defs>
  <clipPath id="p01ad01a730">
   <rect x="70.039938" y="26.105371" width="1116" height="665.28"/>
  </clipPath>
  <clipPath id="pbea9982a30">
   <path d="M 1205.439938 361.101308 
L 1205.439938 345.261308 
L 1221.279937 345.261308 
L 1221.279937 361.101308 
"/>
  </clipPath>
  <clipPath id="p0573c02453">
   <path d="M 1205.439938 378.941308 
L 1205.439938 363.101308 
L 1221.279937 363.101308 
L 1221.279937 378.941308 
"/>
  </clipPath>
 </defs>
</svg>
