<?xml version="1.0" encoding="utf-8" standalone="no"?>
<!DOCTYPE svg PUBLIC "-//W3C//DTD SVG 1.1//EN"
  "http://www.w3.org/Graphics/SVG/1.1/DTD/svg11.dtd">
<svg xmlns:xlink="http://www.w3.org/1999/xlink" width="904.680562pt" height="902.668058pt" viewBox="0 0 904.680562 902.668058" xmlns="http://www.w3.org/2000/svg" version="1.1">
 <metadata>
  <rdf:RDF xmlns:dc="http://purl.org/dc/elements/1.1/" xmlns:cc="http://creativecommons.org/ns#" xmlns:rdf="http://www.w3.org/1999/02/22-rdf-syntax-ns#">
   <cc:Work>
    <dc:type rdf:resource="http://purl.org/dc/dcmitype/StillImage"/>
    <dc:date>2022-01-30T14:12:04.683334</dc:date>
    <dc:format>image/svg+xml</dc:format>
    <dc:creator>
     <cc:Agent>
      <dc:title>Matplotlib v3.5.0, https://matplotlib.org/</dc:title>
     </cc:Agent>
    </dc:creator>
   </cc:Work>
  </rdf:RDF>
 </metadata>
 <defs>
  <style type="text/css">*{stroke-linejoin: round; stroke-linecap: butt}</style>
 </defs>
 <g id="figure_1">
  <g id="patch_1">
   <path d="M 0 902.668058 
L 904.680562 902.668058 
L 904.680562 0 
L 0 0 
L 0 902.668058 
z
" style="fill: none"/>
  </g>
  <g id="axes_1">
   <g id="patch_2">
    <path d="M 70.039938 857.705371 
L 628.039937 857.705371 
L 628.039937 26.105371 
L 70.039938 26.105371 
L 70.039938 857.705371 
z
" style="fill: none"/>
   </g>
   <g id="matplotlib.axis_1">
    <g id="xtick_1">
     <g id="line2d_1">
      <path d="M 70.039938 857.705371 
L 70.039938 26.105371 
" clip-path="url(#p77acbb7dcf)" style="fill: none; stroke: #e5e5e5; stroke-width: 0.8"/>
     </g>
     <g id="text_1">
      <!-- 0 -->
      <g style="fill: #4d4d4d" transform="translate(67.240438 878.591996)scale(0.088 -0.088)">
       <defs>
        <path id="DejaVuSans-30" d="M 2034 4250 
Q 1547 4250 1301 3770 
Q 1056 3291 1056 2328 
Q 1056 1369 1301 889 
Q 1547 409 2034 409 
Q 2525 409 2770 889 
Q 3016 1369 3016 2328 
Q 3016 3291 2770 3770 
Q 2525 4250 2034 4250 
z
M 2034 4750 
Q 2819 4750 3233 4129 
Q 3647 3509 3647 2328 
Q 3647 1150 3233 529 
Q 2819 -91 2034 -91 
Q 1250 -91 836 529 
Q 422 1150 422 2328 
Q 422 3509 836 4129 
Q 1250 4750 2034 4750 
z
" transform="scale(0.015625)"/>
       </defs>
       <use xlink:href="#DejaVuSans-30"/>
      </g>
     </g>
    </g>
    <g id="xtick_2">
     <g id="line2d_2">
      <path d="M 88.639938 857.705371 
L 88.639938 26.105371 
" clip-path="url(#p77acbb7dcf)" style="fill: none; stroke: #e5e5e5; stroke-width: 0.8"/>
     </g>
     <g id="text_2">
      <!-- 1 -->
      <g style="fill: #4d4d4d" transform="translate(85.840438 878.591996)scale(0.088 -0.088)">
       <defs>
        <path id="DejaVuSans-31" d="M 794 531 
L 1825 531 
L 1825 4091 
L 703 3866 
L 703 4441 
L 1819 4666 
L 2450 4666 
L 2450 531 
L 3481 531 
L 3481 0 
L 794 0 
L 794 531 
z
" transform="scale(0.015625)"/>
       </defs>
       <use xlink:href="#DejaVuSans-31"/>
      </g>
     </g>
    </g>
    <g id="xtick_3">
     <g id="line2d_3">
      <path d="M 107.239938 857.705371 
L 107.239938 26.105371 
" clip-path="url(#p77acbb7dcf)" style="fill: none; stroke: #e5e5e5; stroke-width: 0.8"/>
     </g>
     <g id="text_3">
      <!-- 2 -->
      <g style="fill: #4d4d4d" transform="translate(104.440438 878.591996)scale(0.088 -0.088)">
       <defs>
        <path id="DejaVuSans-32" d="M 1228 531 
L 3431 531 
L 3431 0 
L 469 0 
L 469 531 
Q 828 903 1448 1529 
Q 2069 2156 2228 2338 
Q 2531 2678 2651 2914 
Q 2772 3150 2772 3378 
Q 2772 3750 2511 3984 
Q 2250 4219 1831 4219 
Q 1534 4219 1204 4116 
Q 875 4013 500 3803 
L 500 4441 
Q 881 4594 1212 4672 
Q 1544 4750 1819 4750 
Q 2544 4750 2975 4387 
Q 3406 4025 3406 3419 
Q 3406 3131 3298 2873 
Q 3191 2616 2906 2266 
Q 2828 2175 2409 1742 
Q 1991 1309 1228 531 
z
" transform="scale(0.015625)"/>
       </defs>
       <use xlink:href="#DejaVuSans-32"/>
      </g>
     </g>
    </g>
    <g id="xtick_4">
     <g id="line2d_4">
      <path d="M 125.839938 857.705371 
L 125.839938 26.105371 
" clip-path="url(#p77acbb7dcf)" style="fill: none; stroke: #e5e5e5; stroke-width: 0.8"/>
     </g>
     <g id="text_4">
      <!-- 3 -->
      <g style="fill: #4d4d4d" transform="translate(123.040438 878.591996)scale(0.088 -0.088)">
       <defs>
        <path id="DejaVuSans-33" d="M 2597 2516 
Q 3050 2419 3304 2112 
Q 3559 1806 3559 1356 
Q 3559 666 3084 287 
Q 2609 -91 1734 -91 
Q 1441 -91 1130 -33 
Q 819 25 488 141 
L 488 750 
Q 750 597 1062 519 
Q 1375 441 1716 441 
Q 2309 441 2620 675 
Q 2931 909 2931 1356 
Q 2931 1769 2642 2001 
Q 2353 2234 1838 2234 
L 1294 2234 
L 1294 2753 
L 1863 2753 
Q 2328 2753 2575 2939 
Q 2822 3125 2822 3475 
Q 2822 3834 2567 4026 
Q 2313 4219 1838 4219 
Q 1578 4219 1281 4162 
Q 984 4106 628 3988 
L 628 4550 
Q 988 4650 1302 4700 
Q 1616 4750 1894 4750 
Q 2613 4750 3031 4423 
Q 3450 4097 3450 3541 
Q 3450 3153 3228 2886 
Q 3006 2619 2597 2516 
z
" transform="scale(0.015625)"/>
       </defs>
       <use xlink:href="#DejaVuSans-33"/>
      </g>
     </g>
    </g>
    <g id="xtick_5">
     <g id="line2d_5">
      <path d="M 144.439938 857.705371 
L 144.439938 26.105371 
" clip-path="url(#p77acbb7dcf)" style="fill: none; stroke: #e5e5e5; stroke-width: 0.8"/>
     </g>
     <g id="text_5">
      <!-- 4 -->
      <g style="fill: #4d4d4d" transform="translate(141.640438 878.591996)scale(0.088 -0.088)">
       <defs>
        <path id="DejaVuSans-34" d="M 2419 4116 
L 825 1625 
L 2419 1625 
L 2419 4116 
z
M 2253 4666 
L 3047 4666 
L 3047 1625 
L 3713 1625 
L 3713 1100 
L 3047 1100 
L 3047 0 
L 2419 0 
L 2419 1100 
L 313 1100 
L 313 1709 
L 2253 4666 
z
" transform="scale(0.015625)"/>
       </defs>
       <use xlink:href="#DejaVuSans-34"/>
      </g>
     </g>
    </g>
    <g id="xtick_6">
     <g id="line2d_6">
      <path d="M 163.039938 857.705371 
L 163.039938 26.105371 
" clip-path="url(#p77acbb7dcf)" style="fill: none; stroke: #e5e5e5; stroke-width: 0.8"/>
     </g>
     <g id="text_6">
      <!-- 5 -->
      <g style="fill: #4d4d4d" transform="translate(160.240438 878.591996)scale(0.088 -0.088)">
       <defs>
        <path id="DejaVuSans-35" d="M 691 4666 
L 3169 4666 
L 3169 4134 
L 1269 4134 
L 1269 2991 
Q 1406 3038 1543 3061 
Q 1681 3084 1819 3084 
Q 2600 3084 3056 2656 
Q 3513 2228 3513 1497 
Q 3513 744 3044 326 
Q 2575 -91 1722 -91 
Q 1428 -91 1123 -41 
Q 819 9 494 109 
L 494 744 
Q 775 591 1075 516 
Q 1375 441 1709 441 
Q 2250 441 2565 725 
Q 2881 1009 2881 1497 
Q 2881 1984 2565 2268 
Q 2250 2553 1709 2553 
Q 1456 2553 1204 2497 
Q 953 2441 691 2322 
L 691 4666 
z
" transform="scale(0.015625)"/>
       </defs>
       <use xlink:href="#DejaVuSans-35"/>
      </g>
     </g>
    </g>
    <g id="xtick_7">
     <g id="line2d_7">
      <path d="M 256.039938 857.705371 
L 256.039938 26.105371 
" clip-path="url(#p77acbb7dcf)" style="fill: none; stroke: #e5e5e5; stroke-width: 0.8"/>
     </g>
     <g id="text_7">
      <!-- 10 -->
      <g style="fill: #4d4d4d" transform="translate(250.440938 878.591996)scale(0.088 -0.088)">
       <use xlink:href="#DejaVuSans-31"/>
       <use xlink:href="#DejaVuSans-30" x="63.623047"/>
      </g>
     </g>
    </g>
    <g id="xtick_8">
     <g id="line2d_8">
      <path d="M 442.039938 857.705371 
L 442.039938 26.105371 
" clip-path="url(#p77acbb7dcf)" style="fill: none; stroke: #e5e5e5; stroke-width: 0.8"/>
     </g>
     <g id="text_8">
      <!-- 20 -->
      <g style="fill: #4d4d4d" transform="translate(436.440938 878.591996)scale(0.088 -0.088)">
       <use xlink:href="#DejaVuSans-32"/>
       <use xlink:href="#DejaVuSans-30" x="63.623047"/>
      </g>
     </g>
    </g>
    <g id="xtick_9">
     <g id="line2d_9">
      <path d="M 628.039937 857.705371 
L 628.039937 26.105371 
" clip-path="url(#p77acbb7dcf)" style="fill: none; stroke: #e5e5e5; stroke-width: 0.8"/>
     </g>
     <g id="text_9">
      <!-- 30 -->
      <g style="fill: #4d4d4d" transform="translate(622.440937 878.591996)scale(0.088 -0.088)">
       <use xlink:href="#DejaVuSans-33"/>
       <use xlink:href="#DejaVuSans-30" x="63.623047"/>
      </g>
     </g>
    </g>
    <g id="xtick_10">
     <g id="line2d_10">
      <path d="M 79.339938 857.705371 
L 79.339938 26.105371 
" clip-path="url(#p77acbb7dcf)" style="fill: none; stroke: #fafafa"/>
     </g>
    </g>
    <g id="xtick_11">
     <g id="line2d_11">
      <path d="M 97.939938 857.705371 
L 97.939938 26.105371 
" clip-path="url(#p77acbb7dcf)" style="fill: none; stroke: #fafafa"/>
     </g>
    </g>
    <g id="xtick_12">
     <g id="line2d_12">
      <path d="M 116.539938 857.705371 
L 116.539938 26.105371 
" clip-path="url(#p77acbb7dcf)" style="fill: none; stroke: #fafafa"/>
     </g>
    </g>
    <g id="xtick_13">
     <g id="line2d_13">
      <path d="M 135.139938 857.705371 
L 135.139938 26.105371 
" clip-path="url(#p77acbb7dcf)" style="fill: none; stroke: #fafafa"/>
     </g>
    </g>
    <g id="xtick_14">
     <g id="line2d_14">
      <path d="M 153.739937 857.705371 
L 153.739937 26.105371 
" clip-path="url(#p77acbb7dcf)" style="fill: none; stroke: #fafafa"/>
     </g>
    </g>
    <g id="xtick_15">
     <g id="line2d_15">
      <path d="M 209.539938 857.705371 
L 209.539938 26.105371 
" clip-path="url(#p77acbb7dcf)" style="fill: none; stroke: #fafafa"/>
     </g>
    </g>
    <g id="xtick_16">
     <g id="line2d_16">
      <path d="M 349.039938 857.705371 
L 349.039938 26.105371 
" clip-path="url(#p77acbb7dcf)" style="fill: none; stroke: #fafafa"/>
     </g>
    </g>
    <g id="xtick_17">
     <g id="line2d_17">
      <path d="M 535.039938 857.705371 
L 535.039938 26.105371 
" clip-path="url(#p77acbb7dcf)" style="fill: none; stroke: #fafafa"/>
     </g>
    </g>
    <g id="text_10">
     <!-- distance between schools -->
     <g transform="translate(268.955875 893.180402)scale(0.11 -0.11)">
      <defs>
       <path id="DejaVuSans-64" d="M 2906 2969 
L 2906 4863 
L 3481 4863 
L 3481 0 
L 2906 0 
L 2906 525 
Q 2725 213 2448 61 
Q 2172 -91 1784 -91 
Q 1150 -91 751 415 
Q 353 922 353 1747 
Q 353 2572 751 3078 
Q 1150 3584 1784 3584 
Q 2172 3584 2448 3432 
Q 2725 3281 2906 2969 
z
M 947 1747 
Q 947 1113 1208 752 
Q 1469 391 1925 391 
Q 2381 391 2643 752 
Q 2906 1113 2906 1747 
Q 2906 2381 2643 2742 
Q 2381 3103 1925 3103 
Q 1469 3103 1208 2742 
Q 947 2381 947 1747 
z
" transform="scale(0.015625)"/>
       <path id="DejaVuSans-69" d="M 603 3500 
L 1178 3500 
L 1178 0 
L 603 0 
L 603 3500 
z
M 603 4863 
L 1178 4863 
L 1178 4134 
L 603 4134 
L 603 4863 
z
" transform="scale(0.015625)"/>
       <path id="DejaVuSans-73" d="M 2834 3397 
L 2834 2853 
Q 2591 2978 2328 3040 
Q 2066 3103 1784 3103 
Q 1356 3103 1142 2972 
Q 928 2841 928 2578 
Q 928 2378 1081 2264 
Q 1234 2150 1697 2047 
L 1894 2003 
Q 2506 1872 2764 1633 
Q 3022 1394 3022 966 
Q 3022 478 2636 193 
Q 2250 -91 1575 -91 
Q 1294 -91 989 -36 
Q 684 19 347 128 
L 347 722 
Q 666 556 975 473 
Q 1284 391 1588 391 
Q 1994 391 2212 530 
Q 2431 669 2431 922 
Q 2431 1156 2273 1281 
Q 2116 1406 1581 1522 
L 1381 1569 
Q 847 1681 609 1914 
Q 372 2147 372 2553 
Q 372 3047 722 3315 
Q 1072 3584 1716 3584 
Q 2034 3584 2315 3537 
Q 2597 3491 2834 3397 
z
" transform="scale(0.015625)"/>
       <path id="DejaVuSans-74" d="M 1172 4494 
L 1172 3500 
L 2356 3500 
L 2356 3053 
L 1172 3053 
L 1172 1153 
Q 1172 725 1289 603 
Q 1406 481 1766 481 
L 2356 481 
L 2356 0 
L 1766 0 
Q 1100 0 847 248 
Q 594 497 594 1153 
L 594 3053 
L 172 3053 
L 172 3500 
L 594 3500 
L 594 4494 
L 1172 4494 
z
" transform="scale(0.015625)"/>
       <path id="DejaVuSans-61" d="M 2194 1759 
Q 1497 1759 1228 1600 
Q 959 1441 959 1056 
Q 959 750 1161 570 
Q 1363 391 1709 391 
Q 2188 391 2477 730 
Q 2766 1069 2766 1631 
L 2766 1759 
L 2194 1759 
z
M 3341 1997 
L 3341 0 
L 2766 0 
L 2766 531 
Q 2569 213 2275 61 
Q 1981 -91 1556 -91 
Q 1019 -91 701 211 
Q 384 513 384 1019 
Q 384 1609 779 1909 
Q 1175 2209 1959 2209 
L 2766 2209 
L 2766 2266 
Q 2766 2663 2505 2880 
Q 2244 3097 1772 3097 
Q 1472 3097 1187 3025 
Q 903 2953 641 2809 
L 641 3341 
Q 956 3463 1253 3523 
Q 1550 3584 1831 3584 
Q 2591 3584 2966 3190 
Q 3341 2797 3341 1997 
z
" transform="scale(0.015625)"/>
       <path id="DejaVuSans-6e" d="M 3513 2113 
L 3513 0 
L 2938 0 
L 2938 2094 
Q 2938 2591 2744 2837 
Q 2550 3084 2163 3084 
Q 1697 3084 1428 2787 
Q 1159 2491 1159 1978 
L 1159 0 
L 581 0 
L 581 3500 
L 1159 3500 
L 1159 2956 
Q 1366 3272 1645 3428 
Q 1925 3584 2291 3584 
Q 2894 3584 3203 3211 
Q 3513 2838 3513 2113 
z
" transform="scale(0.015625)"/>
       <path id="DejaVuSans-63" d="M 3122 3366 
L 3122 2828 
Q 2878 2963 2633 3030 
Q 2388 3097 2138 3097 
Q 1578 3097 1268 2742 
Q 959 2388 959 1747 
Q 959 1106 1268 751 
Q 1578 397 2138 397 
Q 2388 397 2633 464 
Q 2878 531 3122 666 
L 3122 134 
Q 2881 22 2623 -34 
Q 2366 -91 2075 -91 
Q 1284 -91 818 406 
Q 353 903 353 1747 
Q 353 2603 823 3093 
Q 1294 3584 2113 3584 
Q 2378 3584 2631 3529 
Q 2884 3475 3122 3366 
z
" transform="scale(0.015625)"/>
       <path id="DejaVuSans-65" d="M 3597 1894 
L 3597 1613 
L 953 1613 
Q 991 1019 1311 708 
Q 1631 397 2203 397 
Q 2534 397 2845 478 
Q 3156 559 3463 722 
L 3463 178 
Q 3153 47 2828 -22 
Q 2503 -91 2169 -91 
Q 1331 -91 842 396 
Q 353 884 353 1716 
Q 353 2575 817 3079 
Q 1281 3584 2069 3584 
Q 2775 3584 3186 3129 
Q 3597 2675 3597 1894 
z
M 3022 2063 
Q 3016 2534 2758 2815 
Q 2500 3097 2075 3097 
Q 1594 3097 1305 2825 
Q 1016 2553 972 2059 
L 3022 2063 
z
" transform="scale(0.015625)"/>
       <path id="DejaVuSans-20" transform="scale(0.015625)"/>
       <path id="DejaVuSans-62" d="M 3116 1747 
Q 3116 2381 2855 2742 
Q 2594 3103 2138 3103 
Q 1681 3103 1420 2742 
Q 1159 2381 1159 1747 
Q 1159 1113 1420 752 
Q 1681 391 2138 391 
Q 2594 391 2855 752 
Q 3116 1113 3116 1747 
z
M 1159 2969 
Q 1341 3281 1617 3432 
Q 1894 3584 2278 3584 
Q 2916 3584 3314 3078 
Q 3713 2572 3713 1747 
Q 3713 922 3314 415 
Q 2916 -91 2278 -91 
Q 1894 -91 1617 61 
Q 1341 213 1159 525 
L 1159 0 
L 581 0 
L 581 4863 
L 1159 4863 
L 1159 2969 
z
" transform="scale(0.015625)"/>
       <path id="DejaVuSans-77" d="M 269 3500 
L 844 3500 
L 1563 769 
L 2278 3500 
L 2956 3500 
L 3675 769 
L 4391 3500 
L 4966 3500 
L 4050 0 
L 3372 0 
L 2619 2869 
L 1863 0 
L 1184 0 
L 269 3500 
z
" transform="scale(0.015625)"/>
       <path id="DejaVuSans-68" d="M 3513 2113 
L 3513 0 
L 2938 0 
L 2938 2094 
Q 2938 2591 2744 2837 
Q 2550 3084 2163 3084 
Q 1697 3084 1428 2787 
Q 1159 2491 1159 1978 
L 1159 0 
L 581 0 
L 581 4863 
L 1159 4863 
L 1159 2956 
Q 1366 3272 1645 3428 
Q 1925 3584 2291 3584 
Q 2894 3584 3203 3211 
Q 3513 2838 3513 2113 
z
" transform="scale(0.015625)"/>
       <path id="DejaVuSans-6f" d="M 1959 3097 
Q 1497 3097 1228 2736 
Q 959 2375 959 1747 
Q 959 1119 1226 758 
Q 1494 397 1959 397 
Q 2419 397 2687 759 
Q 2956 1122 2956 1747 
Q 2956 2369 2687 2733 
Q 2419 3097 1959 3097 
z
M 1959 3584 
Q 2709 3584 3137 3096 
Q 3566 2609 3566 1747 
Q 3566 888 3137 398 
Q 2709 -91 1959 -91 
Q 1206 -91 779 398 
Q 353 888 353 1747 
Q 353 2609 779 3096 
Q 1206 3584 1959 3584 
z
" transform="scale(0.015625)"/>
       <path id="DejaVuSans-6c" d="M 603 4863 
L 1178 4863 
L 1178 0 
L 603 0 
L 603 4863 
z
" transform="scale(0.015625)"/>
      </defs>
      <use xlink:href="#DejaVuSans-64"/>
      <use xlink:href="#DejaVuSans-69" x="63.476562"/>
      <use xlink:href="#DejaVuSans-73" x="91.259766"/>
      <use xlink:href="#DejaVuSans-74" x="143.359375"/>
      <use xlink:href="#DejaVuSans-61" x="182.568359"/>
      <use xlink:href="#DejaVuSans-6e" x="243.847656"/>
      <use xlink:href="#DejaVuSans-63" x="307.226562"/>
      <use xlink:href="#DejaVuSans-65" x="362.207031"/>
      <use xlink:href="#DejaVuSans-20" x="423.730469"/>
      <use xlink:href="#DejaVuSans-62" x="455.517578"/>
      <use xlink:href="#DejaVuSans-65" x="518.994141"/>
      <use xlink:href="#DejaVuSans-74" x="580.517578"/>
      <use xlink:href="#DejaVuSans-77" x="619.726562"/>
      <use xlink:href="#DejaVuSans-65" x="701.513672"/>
      <use xlink:href="#DejaVuSans-65" x="763.037109"/>
      <use xlink:href="#DejaVuSans-6e" x="824.560547"/>
      <use xlink:href="#DejaVuSans-20" x="887.939453"/>
      <use xlink:href="#DejaVuSans-73" x="919.726562"/>
      <use xlink:href="#DejaVuSans-63" x="971.826172"/>
      <use xlink:href="#DejaVuSans-68" x="1026.806641"/>
      <use xlink:href="#DejaVuSans-6f" x="1090.185547"/>
      <use xlink:href="#DejaVuSans-6f" x="1151.367188"/>
      <use xlink:href="#DejaVuSans-6c" x="1212.548828"/>
      <use xlink:href="#DejaVuSans-73" x="1240.332031"/>
     </g>
    </g>
   </g>
   <g id="matplotlib.axis_2">
    <g id="ytick_1">
     <g id="line2d_18">
      <path d="M 70.039938 857.705371 
L 628.039937 857.705371 
" clip-path="url(#p77acbb7dcf)" style="fill: none; stroke: #e5e5e5; stroke-width: 0.8"/>
     </g>
     <g id="text_11">
      <!-- 40000 -->
      <g style="fill: #4d4d4d" transform="translate(27.844938 860.133621)scale(0.088 -0.088)">
       <use xlink:href="#DejaVuSans-34"/>
       <use xlink:href="#DejaVuSans-30" x="63.623047"/>
       <use xlink:href="#DejaVuSans-30" x="127.246094"/>
       <use xlink:href="#DejaVuSans-30" x="190.869141"/>
       <use xlink:href="#DejaVuSans-30" x="254.492188"/>
      </g>
     </g>
    </g>
    <g id="ytick_2">
     <g id="line2d_19">
      <path d="M 70.039938 719.105371 
L 628.039937 719.105371 
" clip-path="url(#p77acbb7dcf)" style="fill: none; stroke: #e5e5e5; stroke-width: 0.8"/>
     </g>
     <g id="text_12">
      <!-- 60000 -->
      <g style="fill: #4d4d4d" transform="translate(27.844938 721.533621)scale(0.088 -0.088)">
       <defs>
        <path id="DejaVuSans-36" d="M 2113 2584 
Q 1688 2584 1439 2293 
Q 1191 2003 1191 1497 
Q 1191 994 1439 701 
Q 1688 409 2113 409 
Q 2538 409 2786 701 
Q 3034 994 3034 1497 
Q 3034 2003 2786 2293 
Q 2538 2584 2113 2584 
z
M 3366 4563 
L 3366 3988 
Q 3128 4100 2886 4159 
Q 2644 4219 2406 4219 
Q 1781 4219 1451 3797 
Q 1122 3375 1075 2522 
Q 1259 2794 1537 2939 
Q 1816 3084 2150 3084 
Q 2853 3084 3261 2657 
Q 3669 2231 3669 1497 
Q 3669 778 3244 343 
Q 2819 -91 2113 -91 
Q 1303 -91 875 529 
Q 447 1150 447 2328 
Q 447 3434 972 4092 
Q 1497 4750 2381 4750 
Q 2619 4750 2861 4703 
Q 3103 4656 3366 4563 
z
" transform="scale(0.015625)"/>
       </defs>
       <use xlink:href="#DejaVuSans-36"/>
       <use xlink:href="#DejaVuSans-30" x="63.623047"/>
       <use xlink:href="#DejaVuSans-30" x="127.246094"/>
       <use xlink:href="#DejaVuSans-30" x="190.869141"/>
       <use xlink:href="#DejaVuSans-30" x="254.492188"/>
      </g>
     </g>
    </g>
    <g id="ytick_3">
     <g id="line2d_20">
      <path d="M 70.039938 580.505371 
L 628.039937 580.505371 
" clip-path="url(#p77acbb7dcf)" style="fill: none; stroke: #e5e5e5; stroke-width: 0.8"/>
     </g>
     <g id="text_13">
      <!-- 80000 -->
      <g style="fill: #4d4d4d" transform="translate(27.844938 582.933621)scale(0.088 -0.088)">
       <defs>
        <path id="DejaVuSans-38" d="M 2034 2216 
Q 1584 2216 1326 1975 
Q 1069 1734 1069 1313 
Q 1069 891 1326 650 
Q 1584 409 2034 409 
Q 2484 409 2743 651 
Q 3003 894 3003 1313 
Q 3003 1734 2745 1975 
Q 2488 2216 2034 2216 
z
M 1403 2484 
Q 997 2584 770 2862 
Q 544 3141 544 3541 
Q 544 4100 942 4425 
Q 1341 4750 2034 4750 
Q 2731 4750 3128 4425 
Q 3525 4100 3525 3541 
Q 3525 3141 3298 2862 
Q 3072 2584 2669 2484 
Q 3125 2378 3379 2068 
Q 3634 1759 3634 1313 
Q 3634 634 3220 271 
Q 2806 -91 2034 -91 
Q 1263 -91 848 271 
Q 434 634 434 1313 
Q 434 1759 690 2068 
Q 947 2378 1403 2484 
z
M 1172 3481 
Q 1172 3119 1398 2916 
Q 1625 2713 2034 2713 
Q 2441 2713 2670 2916 
Q 2900 3119 2900 3481 
Q 2900 3844 2670 4047 
Q 2441 4250 2034 4250 
Q 1625 4250 1398 4047 
Q 1172 3844 1172 3481 
z
" transform="scale(0.015625)"/>
       </defs>
       <use xlink:href="#DejaVuSans-38"/>
       <use xlink:href="#DejaVuSans-30" x="63.623047"/>
       <use xlink:href="#DejaVuSans-30" x="127.246094"/>
       <use xlink:href="#DejaVuSans-30" x="190.869141"/>
       <use xlink:href="#DejaVuSans-30" x="254.492188"/>
      </g>
     </g>
    </g>
    <g id="ytick_4">
     <g id="line2d_21">
      <path d="M 70.039938 441.905371 
L 628.039937 441.905371 
" clip-path="url(#p77acbb7dcf)" style="fill: none; stroke: #e5e5e5; stroke-width: 0.8"/>
     </g>
     <g id="text_14">
      <!-- 100000 -->
      <g style="fill: #4d4d4d" transform="translate(22.245938 444.333621)scale(0.088 -0.088)">
       <use xlink:href="#DejaVuSans-31"/>
       <use xlink:href="#DejaVuSans-30" x="63.623047"/>
       <use xlink:href="#DejaVuSans-30" x="127.246094"/>
       <use xlink:href="#DejaVuSans-30" x="190.869141"/>
       <use xlink:href="#DejaVuSans-30" x="254.492188"/>
       <use xlink:href="#DejaVuSans-30" x="318.115234"/>
      </g>
     </g>
    </g>
    <g id="ytick_5">
     <g id="line2d_22">
      <path d="M 70.039938 303.305371 
L 628.039937 303.305371 
" clip-path="url(#p77acbb7dcf)" style="fill: none; stroke: #e5e5e5; stroke-width: 0.8"/>
     </g>
     <g id="text_15">
      <!-- 120000 -->
      <g style="fill: #4d4d4d" transform="translate(22.245938 305.733621)scale(0.088 -0.088)">
       <use xlink:href="#DejaVuSans-31"/>
       <use xlink:href="#DejaVuSans-32" x="63.623047"/>
       <use xlink:href="#DejaVuSans-30" x="127.246094"/>
       <use xlink:href="#DejaVuSans-30" x="190.869141"/>
       <use xlink:href="#DejaVuSans-30" x="254.492188"/>
       <use xlink:href="#DejaVuSans-30" x="318.115234"/>
      </g>
     </g>
    </g>
    <g id="ytick_6">
     <g id="line2d_23">
      <path d="M 70.039938 164.705371 
L 628.039937 164.705371 
" clip-path="url(#p77acbb7dcf)" style="fill: none; stroke: #e5e5e5; stroke-width: 0.8"/>
     </g>
     <g id="text_16">
      <!-- 140000 -->
      <g style="fill: #4d4d4d" transform="translate(22.245938 167.133621)scale(0.088 -0.088)">
       <use xlink:href="#DejaVuSans-31"/>
       <use xlink:href="#DejaVuSans-34" x="63.623047"/>
       <use xlink:href="#DejaVuSans-30" x="127.246094"/>
       <use xlink:href="#DejaVuSans-30" x="190.869141"/>
       <use xlink:href="#DejaVuSans-30" x="254.492188"/>
       <use xlink:href="#DejaVuSans-30" x="318.115234"/>
      </g>
     </g>
    </g>
    <g id="ytick_7">
     <g id="line2d_24">
      <path d="M 70.039938 26.105371 
L 628.039937 26.105371 
" clip-path="url(#p77acbb7dcf)" style="fill: none; stroke: #e5e5e5; stroke-width: 0.8"/>
     </g>
     <g id="text_17">
      <!-- 160000 -->
      <g style="fill: #4d4d4d" transform="translate(22.245938 28.533621)scale(0.088 -0.088)">
       <use xlink:href="#DejaVuSans-31"/>
       <use xlink:href="#DejaVuSans-36" x="63.623047"/>
       <use xlink:href="#DejaVuSans-30" x="127.246094"/>
       <use xlink:href="#DejaVuSans-30" x="190.869141"/>
       <use xlink:href="#DejaVuSans-30" x="254.492188"/>
       <use xlink:href="#DejaVuSans-30" x="318.115234"/>
      </g>
     </g>
    </g>
    <g id="ytick_8">
     <g id="line2d_25">
      <path d="M 70.039938 788.405371 
L 628.039937 788.405371 
" clip-path="url(#p77acbb7dcf)" style="fill: none; stroke: #fafafa"/>
     </g>
    </g>
    <g id="ytick_9">
     <g id="line2d_26">
      <path d="M 70.039938 649.805371 
L 628.039937 649.805371 
" clip-path="url(#p77acbb7dcf)" style="fill: none; stroke: #fafafa"/>
     </g>
    </g>
    <g id="ytick_10">
     <g id="line2d_27">
      <path d="M 70.039938 511.205371 
L 628.039937 511.205371 
" clip-path="url(#p77acbb7dcf)" style="fill: none; stroke: #fafafa"/>
     </g>
    </g>
    <g id="ytick_11">
     <g id="line2d_28">
      <path d="M 70.039938 372.605371 
L 628.039937 372.605371 
" clip-path="url(#p77acbb7dcf)" style="fill: none; stroke: #fafafa"/>
     </g>
    </g>
    <g id="ytick_12">
     <g id="line2d_29">
      <path d="M 70.039938 234.005371 
L 628.039937 234.005371 
" clip-path="url(#p77acbb7dcf)" style="fill: none; stroke: #fafafa"/>
     </g>
    </g>
    <g id="ytick_13">
     <g id="line2d_30">
      <path d="M 70.039938 95.405371 
L 628.039937 95.405371 
" clip-path="url(#p77acbb7dcf)" style="fill: none; stroke: #fafafa"/>
     </g>
    </g>
    <g id="text_18">
     <!-- median household income -->
     <g transform="translate(15.558281 509.219668)rotate(-90)scale(0.11 -0.11)">
      <defs>
       <path id="DejaVuSans-6d" d="M 3328 2828 
Q 3544 3216 3844 3400 
Q 4144 3584 4550 3584 
Q 5097 3584 5394 3201 
Q 5691 2819 5691 2113 
L 5691 0 
L 5113 0 
L 5113 2094 
Q 5113 2597 4934 2840 
Q 4756 3084 4391 3084 
Q 3944 3084 3684 2787 
Q 3425 2491 3425 1978 
L 3425 0 
L 2847 0 
L 2847 2094 
Q 2847 2600 2669 2842 
Q 2491 3084 2119 3084 
Q 1678 3084 1418 2786 
Q 1159 2488 1159 1978 
L 1159 0 
L 581 0 
L 581 3500 
L 1159 3500 
L 1159 2956 
Q 1356 3278 1631 3431 
Q 1906 3584 2284 3584 
Q 2666 3584 2933 3390 
Q 3200 3197 3328 2828 
z
" transform="scale(0.015625)"/>
       <path id="DejaVuSans-75" d="M 544 1381 
L 544 3500 
L 1119 3500 
L 1119 1403 
Q 1119 906 1312 657 
Q 1506 409 1894 409 
Q 2359 409 2629 706 
Q 2900 1003 2900 1516 
L 2900 3500 
L 3475 3500 
L 3475 0 
L 2900 0 
L 2900 538 
Q 2691 219 2414 64 
Q 2138 -91 1772 -91 
Q 1169 -91 856 284 
Q 544 659 544 1381 
z
M 1991 3584 
L 1991 3584 
z
" transform="scale(0.015625)"/>
      </defs>
      <use xlink:href="#DejaVuSans-6d"/>
      <use xlink:href="#DejaVuSans-65" x="97.412109"/>
      <use xlink:href="#DejaVuSans-64" x="158.935547"/>
      <use xlink:href="#DejaVuSans-69" x="222.412109"/>
      <use xlink:href="#DejaVuSans-61" x="250.195312"/>
      <use xlink:href="#DejaVuSans-6e" x="311.474609"/>
      <use xlink:href="#DejaVuSans-20" x="374.853516"/>
      <use xlink:href="#DejaVuSans-68" x="406.640625"/>
      <use xlink:href="#DejaVuSans-6f" x="470.019531"/>
      <use xlink:href="#DejaVuSans-75" x="531.201172"/>
      <use xlink:href="#DejaVuSans-73" x="594.580078"/>
      <use xlink:href="#DejaVuSans-65" x="646.679688"/>
      <use xlink:href="#DejaVuSans-68" x="708.203125"/>
      <use xlink:href="#DejaVuSans-6f" x="771.582031"/>
      <use xlink:href="#DejaVuSans-6c" x="832.763672"/>
      <use xlink:href="#DejaVuSans-64" x="860.546875"/>
      <use xlink:href="#DejaVuSans-20" x="924.023438"/>
      <use xlink:href="#DejaVuSans-69" x="955.810547"/>
      <use xlink:href="#DejaVuSans-6e" x="983.59375"/>
      <use xlink:href="#DejaVuSans-63" x="1046.972656"/>
      <use xlink:href="#DejaVuSans-6f" x="1101.953125"/>
      <use xlink:href="#DejaVuSans-6d" x="1163.134766"/>
      <use xlink:href="#DejaVuSans-65" x="1260.546875"/>
     </g>
    </g>
   </g>
   <g id="PathCollection_1">
    <path d="M 70.039938 827.509735 
C 70.509998 827.509735 70.960869 827.322978 71.293252 826.990595 
C 71.625634 826.658212 71.812391 826.207341 71.812391 825.737281 
C 71.812391 825.26722 71.625634 824.816349 71.293252 824.483967 
C 70.960869 824.151584 70.509998 823.964827 70.039938 823.964827 
C 69.569877 823.964827 69.119006 824.151584 68.786623 824.483967 
C 68.454241 824.816349 68.267484 825.26722 68.267484 825.737281 
C 68.267484 826.207341 68.454241 826.658212 68.786623 826.990595 
C 69.119006 827.322978 69.569877 827.509735 70.039938 827.509735 
z
" clip-path="url(#p77acbb7dcf)" style="fill: #57d3db; stroke: #57d3db; stroke-width: 0.886227"/>
    <path d="M 70.039938 827.509735 
C 70.509998 827.509735 70.960869 827.322978 71.293252 826.990595 
C 71.625634 826.658212 71.812391 826.207341 71.812391 825.737281 
C 71.812391 825.26722 71.625634 824.816349 71.293252 824.483967 
C 70.960869 824.151584 70.509998 823.964827 70.039938 823.964827 
C 69.569877 823.964827 69.119006 824.151584 68.786623 824.483967 
C 68.454241 824.816349 68.267484 825.26722 68.267484 825.737281 
C 68.267484 826.207341 68.454241 826.658212 68.786623 826.990595 
C 69.119006 827.322978 69.569877 827.509735 70.039938 827.509735 
z
" clip-path="url(#p77acbb7dcf)" style="fill: #57d3db; stroke: #57d3db; stroke-width: 0.886227"/>
    <path d="M 70.039938 827.509735 
C 70.509998 827.509735 70.960869 827.322978 71.293252 826.990595 
C 71.625634 826.658212 71.812391 826.207341 71.812391 825.737281 
C 71.812391 825.26722 71.625634 824.816349 71.293252 824.483967 
C 70.960869 824.151584 70.509998 823.964827 70.039938 823.964827 
C 69.569877 823.964827 69.119006 824.151584 68.786623 824.483967 
C 68.454241 824.816349 68.267484 825.26722 68.267484 825.737281 
C 68.267484 826.207341 68.454241 826.658212 68.786623 826.990595 
C 69.119006 827.322978 69.569877 827.509735 70.039938 827.509735 
z
" clip-path="url(#p77acbb7dcf)" style="fill: #db5f57; stroke: #db5f57; stroke-width: 0.886227"/>
    <path d="M 70.039938 827.509735 
C 70.509998 827.509735 70.960869 827.322978 71.293252 826.990595 
C 71.625634 826.658212 71.812391 826.207341 71.812391 825.737281 
C 71.812391 825.26722 71.625634 824.816349 71.293252 824.483967 
C 70.960869 824.151584 70.509998 823.964827 70.039938 823.964827 
C 69.569877 823.964827 69.119006 824.151584 68.786623 824.483967 
C 68.454241 824.816349 68.267484 825.26722 68.267484 825.737281 
C 68.267484 826.207341 68.454241 826.658212 68.786623 826.990595 
C 69.119006 827.322978 69.569877 827.509735 70.039938 827.509735 
z
" clip-path="url(#p77acbb7dcf)" style="fill: #db5f57; stroke: #db5f57; stroke-width: 0.886227"/>
    <path d="M 70.039938 827.509735 
C 70.509998 827.509735 70.960869 827.322978 71.293252 826.990595 
C 71.625634 826.658212 71.812391 826.207341 71.812391 825.737281 
C 71.812391 825.26722 71.625634 824.816349 71.293252 824.483967 
C 70.960869 824.151584 70.509998 823.964827 70.039938 823.964827 
C 69.569877 823.964827 69.119006 824.151584 68.786623 824.483967 
C 68.454241 824.816349 68.267484 825.26722 68.267484 825.737281 
C 68.267484 826.207341 68.454241 826.658212 68.786623 826.990595 
C 69.119006 827.322978 69.569877 827.509735 70.039938 827.509735 
z
" clip-path="url(#p77acbb7dcf)" style="fill: #db5f57; stroke: #db5f57; stroke-width: 0.886227"/>
    <path d="M 70.039938 827.509735 
C 70.509998 827.509735 70.960869 827.322978 71.293252 826.990595 
C 71.625634 826.658212 71.812391 826.207341 71.812391 825.737281 
C 71.812391 825.26722 71.625634 824.816349 71.293252 824.483967 
C 70.960869 824.151584 70.509998 823.964827 70.039938 823.964827 
C 69.569877 823.964827 69.119006 824.151584 68.786623 824.483967 
C 68.454241 824.816349 68.267484 825.26722 68.267484 825.737281 
C 68.267484 826.207341 68.454241 826.658212 68.786623 826.990595 
C 69.119006 827.322978 69.569877 827.509735 70.039938 827.509735 
z
" clip-path="url(#p77acbb7dcf)" style="fill: #db5f57; stroke: #db5f57; stroke-width: 0.886227"/>
    <path d="M 70.039938 827.509735 
C 70.509998 827.509735 70.960869 827.322978 71.293252 826.990595 
C 71.625634 826.658212 71.812391 826.207341 71.812391 825.737281 
C 71.812391 825.26722 71.625634 824.816349 71.293252 824.483967 
C 70.960869 824.151584 70.509998 823.964827 70.039938 823.964827 
C 69.569877 823.964827 69.119006 824.151584 68.786623 824.483967 
C 68.454241 824.816349 68.267484 825.26722 68.267484 825.737281 
C 68.267484 826.207341 68.454241 826.658212 68.786623 826.990595 
C 69.119006 827.322978 69.569877 827.509735 70.039938 827.509735 
z
" clip-path="url(#p77acbb7dcf)" style="fill: #db5f57; stroke: #db5f57; stroke-width: 0.886227"/>
    <path d="M 70.039938 827.509735 
C 70.509998 827.509735 70.960869 827.322978 71.293252 826.990595 
C 71.625634 826.658212 71.812391 826.207341 71.812391 825.737281 
C 71.812391 825.26722 71.625634 824.816349 71.293252 824.483967 
C 70.960869 824.151584 70.509998 823.964827 70.039938 823.964827 
C 69.569877 823.964827 69.119006 824.151584 68.786623 824.483967 
C 68.454241 824.816349 68.267484 825.26722 68.267484 825.737281 
C 68.267484 826.207341 68.454241 826.658212 68.786623 826.990595 
C 69.119006 827.322978 69.569877 827.509735 70.039938 827.509735 
z
" clip-path="url(#p77acbb7dcf)" style="fill: #db5f57; stroke: #db5f57; stroke-width: 0.886227"/>
    <path d="M 70.039938 827.509735 
C 70.509998 827.509735 70.960869 827.322978 71.293252 826.990595 
C 71.625634 826.658212 71.812391 826.207341 71.812391 825.737281 
C 71.812391 825.26722 71.625634 824.816349 71.293252 824.483967 
C 70.960869 824.151584 70.509998 823.964827 70.039938 823.964827 
C 69.569877 823.964827 69.119006 824.151584 68.786623 824.483967 
C 68.454241 824.816349 68.267484 825.26722 68.267484 825.737281 
C 68.267484 826.207341 68.454241 826.658212 68.786623 826.990595 
C 69.119006 827.322978 69.569877 827.509735 70.039938 827.509735 
z
" clip-path="url(#p77acbb7dcf)" style="fill: #db5f57; stroke: #db5f57; stroke-width: 0.886227"/>
    <path d="M 70.039938 827.509735 
C 70.509998 827.509735 70.960869 827.322978 71.293252 826.990595 
C 71.625634 826.658212 71.812391 826.207341 71.812391 825.737281 
C 71.812391 825.26722 71.625634 824.816349 71.293252 824.483967 
C 70.960869 824.151584 70.509998 823.964827 70.039938 823.964827 
C 69.569877 823.964827 69.119006 824.151584 68.786623 824.483967 
C 68.454241 824.816349 68.267484 825.26722 68.267484 825.737281 
C 68.267484 826.207341 68.454241 826.658212 68.786623 826.990595 
C 69.119006 827.322978 69.569877 827.509735 70.039938 827.509735 
z
" clip-path="url(#p77acbb7dcf)" style="fill: #db5f57; stroke: #db5f57; stroke-width: 0.886227"/>
    <path d="M 70.039938 827.509735 
C 70.509998 827.509735 70.960869 827.322978 71.293252 826.990595 
C 71.625634 826.658212 71.812391 826.207341 71.812391 825.737281 
C 71.812391 825.26722 71.625634 824.816349 71.293252 824.483967 
C 70.960869 824.151584 70.509998 823.964827 70.039938 823.964827 
C 69.569877 823.964827 69.119006 824.151584 68.786623 824.483967 
C 68.454241 824.816349 68.267484 825.26722 68.267484 825.737281 
C 68.267484 826.207341 68.454241 826.658212 68.786623 826.990595 
C 69.119006 827.322978 69.569877 827.509735 70.039938 827.509735 
z
" clip-path="url(#p77acbb7dcf)" style="fill: #db5f57; stroke: #db5f57; stroke-width: 0.886227"/>
    <path d="M 70.039938 827.509735 
C 70.509998 827.509735 70.960869 827.322978 71.293252 826.990595 
C 71.625634 826.658212 71.812391 826.207341 71.812391 825.737281 
C 71.812391 825.26722 71.625634 824.816349 71.293252 824.483967 
C 70.960869 824.151584 70.509998 823.964827 70.039938 823.964827 
C 69.569877 823.964827 69.119006 824.151584 68.786623 824.483967 
C 68.454241 824.816349 68.267484 825.26722 68.267484 825.737281 
C 68.267484 826.207341 68.454241 826.658212 68.786623 826.990595 
C 69.119006 827.322978 69.569877 827.509735 70.039938 827.509735 
z
" clip-path="url(#p77acbb7dcf)" style="fill: #db5f57; stroke: #db5f57; stroke-width: 0.886227"/>
    <path d="M 70.039938 827.509735 
C 70.509998 827.509735 70.960869 827.322978 71.293252 826.990595 
C 71.625634 826.658212 71.812391 826.207341 71.812391 825.737281 
C 71.812391 825.26722 71.625634 824.816349 71.293252 824.483967 
C 70.960869 824.151584 70.509998 823.964827 70.039938 823.964827 
C 69.569877 823.964827 69.119006 824.151584 68.786623 824.483967 
C 68.454241 824.816349 68.267484 825.26722 68.267484 825.737281 
C 68.267484 826.207341 68.454241 826.658212 68.786623 826.990595 
C 69.119006 827.322978 69.569877 827.509735 70.039938 827.509735 
z
" clip-path="url(#p77acbb7dcf)" style="fill: #db5f57; stroke: #db5f57; stroke-width: 0.886227"/>
    <path d="M 70.039938 827.509735 
C 70.509998 827.509735 70.960869 827.322978 71.293252 826.990595 
C 71.625634 826.658212 71.812391 826.207341 71.812391 825.737281 
C 71.812391 825.26722 71.625634 824.816349 71.293252 824.483967 
C 70.960869 824.151584 70.509998 823.964827 70.039938 823.964827 
C 69.569877 823.964827 69.119006 824.151584 68.786623 824.483967 
C 68.454241 824.816349 68.267484 825.26722 68.267484 825.737281 
C 68.267484 826.207341 68.454241 826.658212 68.786623 826.990595 
C 69.119006 827.322978 69.569877 827.509735 70.039938 827.509735 
z
" clip-path="url(#p77acbb7dcf)" style="fill: #db5f57; stroke: #db5f57; stroke-width: 0.886227"/>
    <path d="M 70.039938 827.509735 
C 70.509998 827.509735 70.960869 827.322978 71.293252 826.990595 
C 71.625634 826.658212 71.812391 826.207341 71.812391 825.737281 
C 71.812391 825.26722 71.625634 824.816349 71.293252 824.483967 
C 70.960869 824.151584 70.509998 823.964827 70.039938 823.964827 
C 69.569877 823.964827 69.119006 824.151584 68.786623 824.483967 
C 68.454241 824.816349 68.267484 825.26722 68.267484 825.737281 
C 68.267484 826.207341 68.454241 826.658212 68.786623 826.990595 
C 69.119006 827.322978 69.569877 827.509735 70.039938 827.509735 
z
" clip-path="url(#p77acbb7dcf)" style="fill: #db5f57; stroke: #db5f57; stroke-width: 0.886227"/>
    <path d="M 70.039938 827.509735 
C 70.509998 827.509735 70.960869 827.322978 71.293252 826.990595 
C 71.625634 826.658212 71.812391 826.207341 71.812391 825.737281 
C 71.812391 825.26722 71.625634 824.816349 71.293252 824.483967 
C 70.960869 824.151584 70.509998 823.964827 70.039938 823.964827 
C 69.569877 823.964827 69.119006 824.151584 68.786623 824.483967 
C 68.454241 824.816349 68.267484 825.26722 68.267484 825.737281 
C 68.267484 826.207341 68.454241 826.658212 68.786623 826.990595 
C 69.119006 827.322978 69.569877 827.509735 70.039938 827.509735 
z
" clip-path="url(#p77acbb7dcf)" style="fill: #db5f57; stroke: #db5f57; stroke-width: 0.886227"/>
    <path d="M 70.039938 827.509735 
C 70.509998 827.509735 70.960869 827.322978 71.293252 826.990595 
C 71.625634 826.658212 71.812391 826.207341 71.812391 825.737281 
C 71.812391 825.26722 71.625634 824.816349 71.293252 824.483967 
C 70.960869 824.151584 70.509998 823.964827 70.039938 823.964827 
C 69.569877 823.964827 69.119006 824.151584 68.786623 824.483967 
C 68.454241 824.816349 68.267484 825.26722 68.267484 825.737281 
C 68.267484 826.207341 68.454241 826.658212 68.786623 826.990595 
C 69.119006 827.322978 69.569877 827.509735 70.039938 827.509735 
z
" clip-path="url(#p77acbb7dcf)" style="fill: #db5f57; stroke: #db5f57; stroke-width: 0.886227"/>
    <path d="M 70.039938 827.509735 
C 70.509998 827.509735 70.960869 827.322978 71.293252 826.990595 
C 71.625634 826.658212 71.812391 826.207341 71.812391 825.737281 
C 71.812391 825.26722 71.625634 824.816349 71.293252 824.483967 
C 70.960869 824.151584 70.509998 823.964827 70.039938 823.964827 
C 69.569877 823.964827 69.119006 824.151584 68.786623 824.483967 
C 68.454241 824.816349 68.267484 825.26722 68.267484 825.737281 
C 68.267484 826.207341 68.454241 826.658212 68.786623 826.990595 
C 69.119006 827.322978 69.569877 827.509735 70.039938 827.509735 
z
" clip-path="url(#p77acbb7dcf)" style="fill: #db5f57; stroke: #db5f57; stroke-width: 0.886227"/>
    <path d="M 70.039938 827.509735 
C 70.509998 827.509735 70.960869 827.322978 71.293252 826.990595 
C 71.625634 826.658212 71.812391 826.207341 71.812391 825.737281 
C 71.812391 825.26722 71.625634 824.816349 71.293252 824.483967 
C 70.960869 824.151584 70.509998 823.964827 70.039938 823.964827 
C 69.569877 823.964827 69.119006 824.151584 68.786623 824.483967 
C 68.454241 824.816349 68.267484 825.26722 68.267484 825.737281 
C 68.267484 826.207341 68.454241 826.658212 68.786623 826.990595 
C 69.119006 827.322978 69.569877 827.509735 70.039938 827.509735 
z
" clip-path="url(#p77acbb7dcf)" style="fill: #db5f57; stroke: #db5f57; stroke-width: 0.886227"/>
    <path d="M 70.039938 827.509735 
C 70.509998 827.509735 70.960869 827.322978 71.293252 826.990595 
C 71.625634 826.658212 71.812391 826.207341 71.812391 825.737281 
C 71.812391 825.26722 71.625634 824.816349 71.293252 824.483967 
C 70.960869 824.151584 70.509998 823.964827 70.039938 823.964827 
C 69.569877 823.964827 69.119006 824.151584 68.786623 824.483967 
C 68.454241 824.816349 68.267484 825.26722 68.267484 825.737281 
C 68.267484 826.207341 68.454241 826.658212 68.786623 826.990595 
C 69.119006 827.322978 69.569877 827.509735 70.039938 827.509735 
z
" clip-path="url(#p77acbb7dcf)" style="fill: #db5f57; stroke: #db5f57; stroke-width: 0.886227"/>
    <path d="M 70.039938 827.509735 
C 70.509998 827.509735 70.960869 827.322978 71.293252 826.990595 
C 71.625634 826.658212 71.812391 826.207341 71.812391 825.737281 
C 71.812391 825.26722 71.625634 824.816349 71.293252 824.483967 
C 70.960869 824.151584 70.509998 823.964827 70.039938 823.964827 
C 69.569877 823.964827 69.119006 824.151584 68.786623 824.483967 
C 68.454241 824.816349 68.267484 825.26722 68.267484 825.737281 
C 68.267484 826.207341 68.454241 826.658212 68.786623 826.990595 
C 69.119006 827.322978 69.569877 827.509735 70.039938 827.509735 
z
" clip-path="url(#p77acbb7dcf)" style="fill: #db5f57; stroke: #db5f57; stroke-width: 0.886227"/>
    <path d="M 70.039938 827.509735 
C 70.509998 827.509735 70.960869 827.322978 71.293252 826.990595 
C 71.625634 826.658212 71.812391 826.207341 71.812391 825.737281 
C 71.812391 825.26722 71.625634 824.816349 71.293252 824.483967 
C 70.960869 824.151584 70.509998 823.964827 70.039938 823.964827 
C 69.569877 823.964827 69.119006 824.151584 68.786623 824.483967 
C 68.454241 824.816349 68.267484 825.26722 68.267484 825.737281 
C 68.267484 826.207341 68.454241 826.658212 68.786623 826.990595 
C 69.119006 827.322978 69.569877 827.509735 70.039938 827.509735 
z
" clip-path="url(#p77acbb7dcf)" style="fill: #db5f57; stroke: #db5f57; stroke-width: 0.886227"/>
    <path d="M 70.039938 827.509735 
C 70.509998 827.509735 70.960869 827.322978 71.293252 826.990595 
C 71.625634 826.658212 71.812391 826.207341 71.812391 825.737281 
C 71.812391 825.26722 71.625634 824.816349 71.293252 824.483967 
C 70.960869 824.151584 70.509998 823.964827 70.039938 823.964827 
C 69.569877 823.964827 69.119006 824.151584 68.786623 824.483967 
C 68.454241 824.816349 68.267484 825.26722 68.267484 825.737281 
C 68.267484 826.207341 68.454241 826.658212 68.786623 826.990595 
C 69.119006 827.322978 69.569877 827.509735 70.039938 827.509735 
z
" clip-path="url(#p77acbb7dcf)" style="fill: #db5f57; stroke: #db5f57; stroke-width: 0.886227"/>
    <path d="M 70.039938 827.509735 
C 70.509998 827.509735 70.960869 827.322978 71.293252 826.990595 
C 71.625634 826.658212 71.812391 826.207341 71.812391 825.737281 
C 71.812391 825.26722 71.625634 824.816349 71.293252 824.483967 
C 70.960869 824.151584 70.509998 823.964827 70.039938 823.964827 
C 69.569877 823.964827 69.119006 824.151584 68.786623 824.483967 
C 68.454241 824.816349 68.267484 825.26722 68.267484 825.737281 
C 68.267484 826.207341 68.454241 826.658212 68.786623 826.990595 
C 69.119006 827.322978 69.569877 827.509735 70.039938 827.509735 
z
" clip-path="url(#p77acbb7dcf)" style="fill: #db5f57; stroke: #db5f57; stroke-width: 0.886227"/>
    <path d="M 99.531849 387.752725 
C 100.001909 387.752725 100.45278 387.565968 100.785163 387.233585 
C 101.117546 386.901202 101.304303 386.450331 101.304303 385.980271 
C 101.304303 385.51021 101.117546 385.059339 100.785163 384.726957 
C 100.45278 384.394574 100.001909 384.207817 99.531849 384.207817 
C 99.061789 384.207817 98.610918 384.394574 98.278535 384.726957 
C 97.946152 385.059339 97.759395 385.51021 97.759395 385.980271 
C 97.759395 386.450331 97.946152 386.901202 98.278535 387.233585 
C 98.610918 387.565968 99.061789 387.752725 99.531849 387.752725 
z
" clip-path="url(#p77acbb7dcf)" style="fill: #57d3db; stroke: #57d3db; stroke-width: 0.886227"/>
    <path d="M 114.820904 474.169825 
C 115.290964 474.169825 115.741835 473.983068 116.074218 473.650685 
C 116.406601 473.318302 116.593358 472.867431 116.593358 472.397371 
C 116.593358 471.92731 116.406601 471.476439 116.074218 471.144057 
C 115.741835 470.811674 115.290964 470.624917 114.820904 470.624917 
C 114.350844 470.624917 113.899973 470.811674 113.56759 471.144057 
C 113.235207 471.476439 113.04845 471.92731 113.04845 472.397371 
C 113.04845 472.867431 113.235207 473.318302 113.56759 473.650685 
C 113.899973 473.983068 114.350844 474.169825 114.820904 474.169825 
z
" clip-path="url(#p77acbb7dcf)" style="fill: #57d3db; stroke: #57d3db; stroke-width: 0.886227"/>
    <path d="M 129.389906 599.713705 
C 129.859967 599.713705 130.310838 599.526948 130.643221 599.194565 
C 130.975603 598.862182 131.16236 598.411311 131.16236 597.941251 
C 131.16236 597.47119 130.975603 597.020319 130.643221 596.687937 
C 130.310838 596.355554 129.859967 596.168797 129.389906 596.168797 
C 128.919846 596.168797 128.468975 596.355554 128.136592 596.687937 
C 127.80421 597.020319 127.617453 597.47119 127.617453 597.941251 
C 127.617453 598.411311 127.80421 598.862182 128.136592 599.194565 
C 128.468975 599.526948 128.919846 599.713705 129.389906 599.713705 
z
" clip-path="url(#p77acbb7dcf)" style="fill: #db5f57; stroke: #db5f57; stroke-width: 0.886227"/>
    <path d="M 198.554819 655.555645 
C 199.02488 655.555645 199.475751 655.368888 199.808134 655.036505 
C 200.140516 654.704122 200.327273 654.253251 200.327273 653.783191 
C 200.327273 653.31313 200.140516 652.862259 199.808134 652.529877 
C 199.475751 652.197494 199.02488 652.010737 198.554819 652.010737 
C 198.084759 652.010737 197.633888 652.197494 197.301505 652.529877 
C 196.969122 652.862259 196.782366 653.31313 196.782366 653.783191 
C 196.782366 654.253251 196.969122 654.704122 197.301505 655.036505 
C 197.633888 655.368888 198.084759 655.555645 198.554819 655.555645 
z
" clip-path="url(#p77acbb7dcf)" style="fill: #db5f57; stroke: #db5f57; stroke-width: 0.886227"/>
    <path d="M 225.68066 246.408445 
C 226.15072 246.408445 226.601591 246.221688 226.933974 245.889305 
C 227.266356 245.556922 227.453113 245.106051 227.453113 244.635991 
C 227.453113 244.16593 227.266356 243.715059 226.933974 243.382677 
C 226.601591 243.050294 226.15072 242.863537 225.68066 242.863537 
C 225.210599 242.863537 224.759728 243.050294 224.427345 243.382677 
C 224.094963 243.715059 223.908206 244.16593 223.908206 244.635991 
C 223.908206 245.106051 224.094963 245.556922 224.427345 245.889305 
C 224.759728 246.221688 225.210599 246.408445 225.68066 246.408445 
z
" clip-path="url(#p77acbb7dcf)" style="fill: #db5f57; stroke: #db5f57; stroke-width: 0.886227"/>
    <path d="M 241.497281 422.021575 
C 241.967341 422.021575 242.418212 421.834818 242.750595 421.502435 
C 243.082978 421.170052 243.269735 420.719181 243.269735 420.249121 
C 243.269735 419.77906 243.082978 419.328189 242.750595 418.995807 
C 242.418212 418.663424 241.967341 418.476667 241.497281 418.476667 
C 241.027221 418.476667 240.576349 418.663424 240.243967 418.995807 
C 239.911584 419.328189 239.724827 419.77906 239.724827 420.249121 
C 239.724827 420.719181 239.911584 421.170052 240.243967 421.502435 
C 240.576349 421.834818 241.027221 422.021575 241.497281 422.021575 
z
" clip-path="url(#p77acbb7dcf)" style="fill: #db5f57; stroke: #db5f57; stroke-width: 0.886227"/>
    <path d="M 251.320159 269.014105 
C 251.790219 269.014105 252.241091 268.827348 252.573473 268.494965 
C 252.905856 268.162582 253.092613 267.711711 253.092613 267.241651 
C 253.092613 266.77159 252.905856 266.320719 252.573473 265.988337 
C 252.241091 265.655954 251.790219 265.469197 251.320159 265.469197 
C 250.850099 265.469197 250.399228 265.655954 250.066845 265.988337 
C 249.734462 266.320719 249.547705 266.77159 249.547705 267.241651 
C 249.547705 267.711711 249.734462 268.162582 250.066845 268.494965 
C 250.399228 268.827348 250.850099 269.014105 251.320159 269.014105 
z
" clip-path="url(#p77acbb7dcf)" style="fill: #db5f57; stroke: #db5f57; stroke-width: 0.886227"/>
    <path d="M 292.391551 245.195695 
C 292.861611 245.195695 293.312482 245.008938 293.644865 244.676555 
C 293.977248 244.344172 294.164005 243.893301 294.164005 243.423241 
C 294.164005 242.95318 293.977248 242.502309 293.644865 242.169927 
C 293.312482 241.837544 292.861611 241.650787 292.391551 241.650787 
C 291.921491 241.650787 291.47062 241.837544 291.138237 242.169927 
C 290.805854 242.502309 290.619097 242.95318 290.619097 243.423241 
C 290.619097 243.893301 290.805854 244.344172 291.138237 244.676555 
C 291.47062 245.008938 291.921491 245.195695 292.391551 245.195695 
z
" clip-path="url(#p77acbb7dcf)" style="fill: #db5f57; stroke: #db5f57; stroke-width: 0.886227"/>
    <path d="M 296.396521 333.428455 
C 296.866581 333.428455 297.317452 333.241698 297.649835 332.909315 
C 297.982218 332.576932 298.168975 332.126061 298.168975 331.656001 
C 298.168975 331.18594 297.982218 330.735069 297.649835 330.402687 
C 297.317452 330.070304 296.866581 329.883547 296.396521 329.883547 
C 295.92646 329.883547 295.475589 330.070304 295.143207 330.402687 
C 294.810824 330.735069 294.624067 331.18594 294.624067 331.656001 
C 294.624067 332.126061 294.810824 332.576932 295.143207 332.909315 
C 295.475589 333.241698 295.92646 333.428455 296.396521 333.428455 
z
" clip-path="url(#p77acbb7dcf)" style="fill: #db5f57; stroke: #db5f57; stroke-width: 0.886227"/>
    <path d="M 315.921354 518.175325 
C 316.391414 518.175325 316.842285 517.988568 317.174668 517.656185 
C 317.507051 517.323802 317.693808 516.872931 317.693808 516.402871 
C 317.693808 515.93281 317.507051 515.481939 317.174668 515.149557 
C 316.842285 514.817174 316.391414 514.630417 315.921354 514.630417 
C 315.451294 514.630417 315.000423 514.817174 314.66804 515.149557 
C 314.335657 515.481939 314.1489 515.93281 314.1489 516.402871 
C 314.1489 516.872931 314.335657 517.323802 314.66804 517.656185 
C 315.000423 517.988568 315.451294 518.175325 315.921354 518.175325 
z
" clip-path="url(#p77acbb7dcf)" style="fill: #db5f57; stroke: #db5f57; stroke-width: 0.886227"/>
    <path d="M 318.275937 629.284015 
C 318.745997 629.284015 319.196868 629.097258 319.529251 628.764875 
C 319.861634 628.432492 320.048391 627.981621 320.048391 627.511561 
C 320.048391 627.0415 319.861634 626.590629 319.529251 626.258247 
C 319.196868 625.925864 318.745997 625.739107 318.275937 625.739107 
C 317.805877 625.739107 317.355006 625.925864 317.022623 626.258247 
C 316.69024 626.590629 316.503483 627.0415 316.503483 627.511561 
C 316.503483 627.981621 316.69024 628.432492 317.022623 628.764875 
C 317.355006 629.097258 317.805877 629.284015 318.275937 629.284015 
z
" clip-path="url(#p77acbb7dcf)" style="fill: #db5f57; stroke: #db5f57; stroke-width: 0.886227"/>
    <path d="M 347.895401 490.718665 
C 348.365461 490.718665 348.816332 490.531908 349.148715 490.199525 
C 349.481098 489.867142 349.667855 489.416271 349.667855 488.946211 
C 349.667855 488.47615 349.481098 488.025279 349.148715 487.692897 
C 348.816332 487.360514 348.365461 487.173757 347.895401 487.173757 
C 347.425341 487.173757 346.97447 487.360514 346.642087 487.692897 
C 346.309704 488.025279 346.122947 488.47615 346.122947 488.946211 
C 346.122947 489.416271 346.309704 489.867142 346.642087 490.199525 
C 346.97447 490.531908 347.425341 490.718665 347.895401 490.718665 
z
" clip-path="url(#p77acbb7dcf)" style="fill: #db5f57; stroke: #db5f57; stroke-width: 0.886227"/>
    <path d="M 350.670617 565.174585 
C 351.140677 565.174585 351.591548 564.987828 351.923931 564.655445 
C 352.256314 564.323062 352.443071 563.872191 352.443071 563.402131 
C 352.443071 562.93207 352.256314 562.481199 351.923931 562.148817 
C 351.591548 561.816434 351.140677 561.629677 350.670617 561.629677 
C 350.200557 561.629677 349.749686 561.816434 349.417303 562.148817 
C 349.08492 562.481199 348.898163 562.93207 348.898163 563.402131 
C 348.898163 563.872191 349.08492 564.323062 349.417303 564.655445 
C 349.749686 564.987828 350.200557 565.174585 350.670617 565.174585 
z
" clip-path="url(#p77acbb7dcf)" style="fill: #db5f57; stroke: #db5f57; stroke-width: 0.886227"/>
    <path d="M 360.316375 375.493555 
C 360.786435 375.493555 361.237307 375.306798 361.569689 374.974415 
C 361.902072 374.642032 362.088829 374.191161 362.088829 373.721101 
C 362.088829 373.25104 361.902072 372.800169 361.569689 372.467787 
C 361.237307 372.135404 360.786435 371.948647 360.316375 371.948647 
C 359.846315 371.948647 359.395444 372.135404 359.063061 372.467787 
C 358.730678 372.800169 358.543921 373.25104 358.543921 373.721101 
C 358.543921 374.191161 358.730678 374.642032 359.063061 374.974415 
C 359.395444 375.306798 359.846315 375.493555 360.316375 375.493555 
z
" clip-path="url(#p77acbb7dcf)" style="fill: #db5f57; stroke: #db5f57; stroke-width: 0.886227"/>
    <path d="M 362.219218 250.933735 
C 362.689279 250.933735 363.14015 250.746978 363.472532 250.414595 
C 363.804915 250.082212 363.991672 249.631341 363.991672 249.161281 
C 363.991672 248.69122 363.804915 248.240349 363.472532 247.907967 
C 363.14015 247.575584 362.689279 247.388827 362.219218 247.388827 
C 361.749158 247.388827 361.298287 247.575584 360.965904 247.907967 
C 360.633521 248.240349 360.446764 248.69122 360.446764 249.161281 
C 360.446764 249.631341 360.633521 250.082212 360.965904 250.414595 
C 361.298287 250.746978 361.749158 250.933735 362.219218 250.933735 
z
" clip-path="url(#p77acbb7dcf)" style="fill: #db5f57; stroke: #db5f57; stroke-width: 0.886227"/>
    <path d="M 367.749761 578.216845 
C 368.219821 578.216845 368.670692 578.030088 369.003075 577.697705 
C 369.335458 577.365322 369.522215 576.914451 369.522215 576.444391 
C 369.522215 575.97433 369.335458 575.523459 369.003075 575.191077 
C 368.670692 574.858694 368.219821 574.671937 367.749761 574.671937 
C 367.279701 574.671937 366.828829 574.858694 366.496447 575.191077 
C 366.164064 575.523459 365.977307 575.97433 365.977307 576.444391 
C 365.977307 576.914451 366.164064 577.365322 366.496447 577.697705 
C 366.828829 578.030088 367.279701 578.216845 367.749761 578.216845 
z
" clip-path="url(#p77acbb7dcf)" style="fill: #db5f57; stroke: #db5f57; stroke-width: 0.886227"/>
    <path d="M 388.032479 522.215515 
C 388.502539 522.215515 388.95341 522.028758 389.285793 521.696375 
C 389.618175 521.363992 389.804932 520.913121 389.804932 520.443061 
C 389.804932 519.973 389.618175 519.522129 389.285793 519.189747 
C 388.95341 518.857364 388.502539 518.670607 388.032479 518.670607 
C 387.562418 518.670607 387.111547 518.857364 386.779164 519.189747 
C 386.446782 519.522129 386.260025 519.973 386.260025 520.443061 
C 386.260025 520.913121 386.446782 521.363992 386.779164 521.696375 
C 387.111547 522.028758 387.562418 522.215515 388.032479 522.215515 
z
" clip-path="url(#p77acbb7dcf)" style="fill: #db5f57; stroke: #db5f57; stroke-width: 0.886227"/>
    <path d="M 394.44922 659.838385 
C 394.919281 659.838385 395.370152 659.651628 395.702535 659.319245 
C 396.034917 658.986862 396.221674 658.535991 396.221674 658.065931 
C 396.221674 657.59587 396.034917 657.144999 395.702535 656.812617 
C 395.370152 656.480234 394.919281 656.293477 394.44922 656.293477 
C 393.97916 656.293477 393.528289 656.480234 393.195906 656.812617 
C 392.863524 657.144999 392.676767 657.59587 392.676767 658.065931 
C 392.676767 658.535991 392.863524 658.986862 393.195906 659.319245 
C 393.528289 659.651628 393.97916 659.838385 394.44922 659.838385 
z
" clip-path="url(#p77acbb7dcf)" style="fill: #db5f57; stroke: #db5f57; stroke-width: 0.886227"/>
    <path d="M 405.147748 747.343495 
C 405.617808 747.343495 406.068679 747.156738 406.401062 746.824355 
C 406.733445 746.491972 406.920202 746.041101 406.920202 745.571041 
C 406.920202 745.10098 406.733445 744.650109 406.401062 744.317727 
C 406.068679 743.985344 405.617808 743.798587 405.147748 743.798587 
C 404.677688 743.798587 404.226816 743.985344 403.894434 744.317727 
C 403.562051 744.650109 403.375294 745.10098 403.375294 745.571041 
C 403.375294 746.041101 403.562051 746.491972 403.894434 746.824355 
C 404.226816 747.156738 404.677688 747.343495 405.147748 747.343495 
z
" clip-path="url(#p77acbb7dcf)" style="fill: #db5f57; stroke: #db5f57; stroke-width: 0.886227"/>
    <path d="M 415.712654 350.767315 
C 416.182715 350.767315 416.633586 350.580558 416.965968 350.248175 
C 417.298351 349.915792 417.485108 349.464921 417.485108 348.994861 
C 417.485108 348.5248 417.298351 348.073929 416.965968 347.741547 
C 416.633586 347.409164 416.182715 347.222407 415.712654 347.222407 
C 415.242594 347.222407 414.791723 347.409164 414.45934 347.741547 
C 414.126957 348.073929 413.9402 348.5248 413.9402 348.994861 
C 413.9402 349.464921 414.126957 349.915792 414.45934 350.248175 
C 414.791723 350.580558 415.242594 350.767315 415.712654 350.767315 
z
" clip-path="url(#p77acbb7dcf)" style="fill: #db5f57; stroke: #db5f57; stroke-width: 0.886227"/>
    <path d="M 435.230142 281.980135 
C 435.700202 281.980135 436.151073 281.793378 436.483456 281.460995 
C 436.815839 281.128612 437.002596 280.677741 437.002596 280.207681 
C 437.002596 279.73762 436.815839 279.286749 436.483456 278.954367 
C 436.151073 278.621984 435.700202 278.435227 435.230142 278.435227 
C 434.760082 278.435227 434.309211 278.621984 433.976828 278.954367 
C 433.644445 279.286749 433.457688 279.73762 433.457688 280.207681 
C 433.457688 280.677741 433.644445 281.128612 433.976828 281.460995 
C 434.309211 281.793378 434.760082 281.980135 435.230142 281.980135 
z
" clip-path="url(#p77acbb7dcf)" style="fill: #db5f57; stroke: #db5f57; stroke-width: 0.886227"/>
    <path d="M 454.712574 105.119605 
C 455.182635 105.119605 455.633506 104.932848 455.965889 104.600465 
C 456.298271 104.268082 456.485028 103.817211 456.485028 103.347151 
C 456.485028 102.87709 456.298271 102.426219 455.965889 102.093837 
C 455.633506 101.761454 455.182635 101.574697 454.712574 101.574697 
C 454.242514 101.574697 453.791643 101.761454 453.45926 102.093837 
C 453.126877 102.426219 452.940121 102.87709 452.940121 103.347151 
C 452.940121 103.817211 453.126877 104.268082 453.45926 104.600465 
C 453.791643 104.932848 454.242514 105.119605 454.712574 105.119605 
z
" clip-path="url(#p77acbb7dcf)" style="fill: #db5f57; stroke: #db5f57; stroke-width: 0.886227"/>
    <path d="M 524.339382 633.740005 
C 524.809442 633.740005 525.260313 633.553248 525.592696 633.220865 
C 525.925079 632.888482 526.111836 632.437611 526.111836 631.967551 
C 526.111836 631.49749 525.925079 631.046619 525.592696 630.714237 
C 525.260313 630.381854 524.809442 630.195097 524.339382 630.195097 
C 523.869322 630.195097 523.418451 630.381854 523.086068 630.714237 
C 522.753685 631.046619 522.566928 631.49749 522.566928 631.967551 
C 522.566928 632.437611 522.753685 632.888482 523.086068 633.220865 
C 523.418451 633.553248 523.869322 633.740005 524.339382 633.740005 
z
" clip-path="url(#p77acbb7dcf)" style="fill: #db5f57; stroke: #db5f57; stroke-width: 0.886227"/>
    <path d="M 578.506909 546.186385 
C 578.976969 546.186385 579.427841 545.999628 579.760223 545.667245 
C 580.092606 545.334862 580.279363 544.883991 580.279363 544.413931 
C 580.279363 543.94387 580.092606 543.492999 579.760223 543.160617 
C 579.427841 542.828234 578.976969 542.641477 578.506909 542.641477 
C 578.036849 542.641477 577.585978 542.828234 577.253595 543.160617 
C 576.921212 543.492999 576.734455 543.94387 576.734455 544.413931 
C 576.734455 544.883991 576.921212 545.334862 577.253595 545.667245 
C 577.585978 545.999628 578.036849 546.186385 578.506909 546.186385 
z
" clip-path="url(#p77acbb7dcf)" style="fill: #db5f57; stroke: #db5f57; stroke-width: 0.886227"/>
   </g>
   <g id="line2d_31">
    <path d="M 70.039938 825.737281 
L 350.670617 563.402131 
" clip-path="url(#p77acbb7dcf)" style="fill: none; stroke: #db5f57; stroke-width: 0.886227"/>
   </g>
   <g id="line2d_32">
    <path d="M 70.039938 825.737281 
L 114.820904 472.397371 
" clip-path="url(#p77acbb7dcf)" style="fill: none; stroke: #57d3db; stroke-width: 0.886227"/>
   </g>
   <g id="line2d_33">
    <path d="M 70.039938 825.737281 
L 367.749761 576.444391 
" clip-path="url(#p77acbb7dcf)" style="fill: none; stroke: #db5f57; stroke-width: 0.886227"/>
   </g>
   <g id="line2d_34">
    <path d="M 70.039938 825.737281 
L 315.921354 516.402871 
" clip-path="url(#p77acbb7dcf)" style="fill: none; stroke: #db5f57; stroke-width: 0.886227"/>
   </g>
   <g id="line2d_35">
    <path d="M 70.039938 825.737281 
L 225.68066 244.635991 
" clip-path="url(#p77acbb7dcf)" style="fill: none; stroke: #db5f57; stroke-width: 0.886227"/>
   </g>
   <g id="line2d_36">
    <path d="M 70.039938 825.737281 
L 524.339382 631.967551 
" clip-path="url(#p77acbb7dcf)" style="fill: none; stroke: #db5f57; stroke-width: 0.886227"/>
   </g>
   <g id="line2d_37">
    <path d="M 70.039938 825.737281 
L 241.497281 420.249121 
" clip-path="url(#p77acbb7dcf)" style="fill: none; stroke: #db5f57; stroke-width: 0.886227"/>
   </g>
   <g id="line2d_38">
    <path d="M 70.039938 825.737281 
L 362.219218 249.161281 
" clip-path="url(#p77acbb7dcf)" style="fill: none; stroke: #db5f57; stroke-width: 0.886227"/>
   </g>
   <g id="line2d_39">
    <path d="M 70.039938 825.737281 
L 198.554819 653.783191 
" clip-path="url(#p77acbb7dcf)" style="fill: none; stroke: #db5f57; stroke-width: 0.886227"/>
   </g>
   <g id="line2d_40">
    <path d="M 70.039938 825.737281 
L 347.895401 488.946211 
" clip-path="url(#p77acbb7dcf)" style="fill: none; stroke: #db5f57; stroke-width: 0.886227"/>
   </g>
   <g id="line2d_41">
    <path d="M 70.039938 825.737281 
L 405.147748 745.571041 
" clip-path="url(#p77acbb7dcf)" style="fill: none; stroke: #db5f57; stroke-width: 0.886227"/>
   </g>
   <g id="line2d_42">
    <path d="M 70.039938 825.737281 
L 292.391551 243.423241 
" clip-path="url(#p77acbb7dcf)" style="fill: none; stroke: #db5f57; stroke-width: 0.886227"/>
   </g>
   <g id="line2d_43">
    <path d="M 70.039938 825.737281 
L 454.712574 103.347151 
" clip-path="url(#p77acbb7dcf)" style="fill: none; stroke: #db5f57; stroke-width: 0.886227"/>
   </g>
   <g id="line2d_44">
    <path d="M 70.039938 825.737281 
L 435.230142 280.207681 
" clip-path="url(#p77acbb7dcf)" style="fill: none; stroke: #db5f57; stroke-width: 0.886227"/>
   </g>
   <g id="line2d_45">
    <path d="M 70.039938 825.737281 
L 129.389906 597.941251 
" clip-path="url(#p77acbb7dcf)" style="fill: none; stroke: #db5f57; stroke-width: 0.886227"/>
   </g>
   <g id="line2d_46">
    <path d="M 70.039938 825.737281 
L 251.320159 267.241651 
" clip-path="url(#p77acbb7dcf)" style="fill: none; stroke: #db5f57; stroke-width: 0.886227"/>
   </g>
   <g id="line2d_47">
    <path d="M 70.039938 825.737281 
L 360.316375 373.721101 
" clip-path="url(#p77acbb7dcf)" style="fill: none; stroke: #db5f57; stroke-width: 0.886227"/>
   </g>
   <g id="line2d_48">
    <path d="M 70.039938 825.737281 
L 99.531849 385.980271 
" clip-path="url(#p77acbb7dcf)" style="fill: none; stroke: #57d3db; stroke-width: 0.886227"/>
   </g>
   <g id="line2d_49">
    <path d="M 70.039938 825.737281 
L 318.275937 627.511561 
" clip-path="url(#p77acbb7dcf)" style="fill: none; stroke: #db5f57; stroke-width: 0.886227"/>
   </g>
   <g id="line2d_50">
    <path d="M 70.039938 825.737281 
L 578.506909 544.413931 
" clip-path="url(#p77acbb7dcf)" style="fill: none; stroke: #db5f57; stroke-width: 0.886227"/>
   </g>
   <g id="line2d_51">
    <path d="M 70.039938 825.737281 
L 296.396521 331.656001 
" clip-path="url(#p77acbb7dcf)" style="fill: none; stroke: #db5f57; stroke-width: 0.886227"/>
   </g>
   <g id="line2d_52">
    <path d="M 70.039938 825.737281 
L 394.44922 658.065931 
" clip-path="url(#p77acbb7dcf)" style="fill: none; stroke: #db5f57; stroke-width: 0.886227"/>
   </g>
   <g id="line2d_53">
    <path d="M 70.039938 825.737281 
L 388.032479 520.443061 
" clip-path="url(#p77acbb7dcf)" style="fill: none; stroke: #db5f57; stroke-width: 0.886227"/>
   </g>
   <g id="line2d_54">
    <path d="M 70.039938 825.737281 
L 415.712654 348.994861 
" clip-path="url(#p77acbb7dcf)" style="fill: none; stroke: #db5f57; stroke-width: 0.886227"/>
   </g>
   <g id="patch_3">
    <path d="M 635.239938 473.221308 
L 897.480563 473.221308 
L 897.480563 399.789433 
L 635.239938 399.789433 
L 635.239938 473.221308 
z
" style="fill: none"/>
   </g>
   <g id="text_19">
    <!-- town_high.isin(['North Andover','Andover']) -->
    <g transform="translate(647.439938 423.230058)scale(0.11 -0.11)">
     <defs>
      <path id="DejaVuSans-5f" d="M 3263 -1063 
L 3263 -1509 
L -63 -1509 
L -63 -1063 
L 3263 -1063 
z
" transform="scale(0.015625)"/>
      <path id="DejaVuSans-67" d="M 2906 1791 
Q 2906 2416 2648 2759 
Q 2391 3103 1925 3103 
Q 1463 3103 1205 2759 
Q 947 2416 947 1791 
Q 947 1169 1205 825 
Q 1463 481 1925 481 
Q 2391 481 2648 825 
Q 2906 1169 2906 1791 
z
M 3481 434 
Q 3481 -459 3084 -895 
Q 2688 -1331 1869 -1331 
Q 1566 -1331 1297 -1286 
Q 1028 -1241 775 -1147 
L 775 -588 
Q 1028 -725 1275 -790 
Q 1522 -856 1778 -856 
Q 2344 -856 2625 -561 
Q 2906 -266 2906 331 
L 2906 616 
Q 2728 306 2450 153 
Q 2172 0 1784 0 
Q 1141 0 747 490 
Q 353 981 353 1791 
Q 353 2603 747 3093 
Q 1141 3584 1784 3584 
Q 2172 3584 2450 3431 
Q 2728 3278 2906 2969 
L 2906 3500 
L 3481 3500 
L 3481 434 
z
" transform="scale(0.015625)"/>
      <path id="DejaVuSans-2e" d="M 684 794 
L 1344 794 
L 1344 0 
L 684 0 
L 684 794 
z
" transform="scale(0.015625)"/>
      <path id="DejaVuSans-28" d="M 1984 4856 
Q 1566 4138 1362 3434 
Q 1159 2731 1159 2009 
Q 1159 1288 1364 580 
Q 1569 -128 1984 -844 
L 1484 -844 
Q 1016 -109 783 600 
Q 550 1309 550 2009 
Q 550 2706 781 3412 
Q 1013 4119 1484 4856 
L 1984 4856 
z
" transform="scale(0.015625)"/>
      <path id="DejaVuSans-5b" d="M 550 4863 
L 1875 4863 
L 1875 4416 
L 1125 4416 
L 1125 -397 
L 1875 -397 
L 1875 -844 
L 550 -844 
L 550 4863 
z
" transform="scale(0.015625)"/>
      <path id="DejaVuSans-27" d="M 1147 4666 
L 1147 2931 
L 616 2931 
L 616 4666 
L 1147 4666 
z
" transform="scale(0.015625)"/>
      <path id="DejaVuSans-4e" d="M 628 4666 
L 1478 4666 
L 3547 763 
L 3547 4666 
L 4159 4666 
L 4159 0 
L 3309 0 
L 1241 3903 
L 1241 0 
L 628 0 
L 628 4666 
z
" transform="scale(0.015625)"/>
      <path id="DejaVuSans-72" d="M 2631 2963 
Q 2534 3019 2420 3045 
Q 2306 3072 2169 3072 
Q 1681 3072 1420 2755 
Q 1159 2438 1159 1844 
L 1159 0 
L 581 0 
L 581 3500 
L 1159 3500 
L 1159 2956 
Q 1341 3275 1631 3429 
Q 1922 3584 2338 3584 
Q 2397 3584 2469 3576 
Q 2541 3569 2628 3553 
L 2631 2963 
z
" transform="scale(0.015625)"/>
      <path id="DejaVuSans-41" d="M 2188 4044 
L 1331 1722 
L 3047 1722 
L 2188 4044 
z
M 1831 4666 
L 2547 4666 
L 4325 0 
L 3669 0 
L 3244 1197 
L 1141 1197 
L 716 0 
L 50 0 
L 1831 4666 
z
" transform="scale(0.015625)"/>
      <path id="DejaVuSans-76" d="M 191 3500 
L 800 3500 
L 1894 563 
L 2988 3500 
L 3597 3500 
L 2284 0 
L 1503 0 
L 191 3500 
z
" transform="scale(0.015625)"/>
      <path id="DejaVuSans-2c" d="M 750 794 
L 1409 794 
L 1409 256 
L 897 -744 
L 494 -744 
L 750 256 
L 750 794 
z
" transform="scale(0.015625)"/>
      <path id="DejaVuSans-5d" d="M 1947 4863 
L 1947 -844 
L 622 -844 
L 622 -397 
L 1369 -397 
L 1369 4416 
L 622 4416 
L 622 4863 
L 1947 4863 
z
" transform="scale(0.015625)"/>
      <path id="DejaVuSans-29" d="M 513 4856 
L 1013 4856 
Q 1481 4119 1714 3412 
Q 1947 2706 1947 2009 
Q 1947 1309 1714 600 
Q 1481 -109 1013 -844 
L 513 -844 
Q 928 -128 1133 580 
Q 1338 1288 1338 2009 
Q 1338 2731 1133 3434 
Q 928 4138 513 4856 
z
" transform="scale(0.015625)"/>
     </defs>
     <use xlink:href="#DejaVuSans-74"/>
     <use xlink:href="#DejaVuSans-6f" x="39.208984"/>
     <use xlink:href="#DejaVuSans-77" x="100.390625"/>
     <use xlink:href="#DejaVuSans-6e" x="182.177734"/>
     <use xlink:href="#DejaVuSans-5f" x="245.556641"/>
     <use xlink:href="#DejaVuSans-68" x="295.556641"/>
     <use xlink:href="#DejaVuSans-69" x="358.935547"/>
     <use xlink:href="#DejaVuSans-67" x="386.71875"/>
     <use xlink:href="#DejaVuSans-68" x="450.195312"/>
     <use xlink:href="#DejaVuSans-2e" x="513.574219"/>
     <use xlink:href="#DejaVuSans-69" x="545.361328"/>
     <use xlink:href="#DejaVuSans-73" x="573.144531"/>
     <use xlink:href="#DejaVuSans-69" x="625.244141"/>
     <use xlink:href="#DejaVuSans-6e" x="653.027344"/>
     <use xlink:href="#DejaVuSans-28" x="716.40625"/>
     <use xlink:href="#DejaVuSans-5b" x="755.419922"/>
     <use xlink:href="#DejaVuSans-27" x="794.433594"/>
     <use xlink:href="#DejaVuSans-4e" x="821.923828"/>
     <use xlink:href="#DejaVuSans-6f" x="896.728516"/>
     <use xlink:href="#DejaVuSans-72" x="957.910156"/>
     <use xlink:href="#DejaVuSans-74" x="999.023438"/>
     <use xlink:href="#DejaVuSans-68" x="1038.232422"/>
     <use xlink:href="#DejaVuSans-20" x="1101.611328"/>
     <use xlink:href="#DejaVuSans-41" x="1133.398438"/>
     <use xlink:href="#DejaVuSans-6e" x="1201.806641"/>
     <use xlink:href="#DejaVuSans-64" x="1265.185547"/>
     <use xlink:href="#DejaVuSans-6f" x="1328.662109"/>
     <use xlink:href="#DejaVuSans-76" x="1389.84375"/>
     <use xlink:href="#DejaVuSans-65" x="1449.023438"/>
     <use xlink:href="#DejaVuSans-72" x="1510.546875"/>
     <use xlink:href="#DejaVuSans-27" x="1551.660156"/>
     <use xlink:href="#DejaVuSans-2c" x="1579.150391"/>
     <use xlink:href="#DejaVuSans-27" x="1610.9375"/>
     <use xlink:href="#DejaVuSans-41" x="1638.427734"/>
     <use xlink:href="#DejaVuSans-6e" x="1706.835938"/>
     <use xlink:href="#DejaVuSans-64" x="1770.214844"/>
     <use xlink:href="#DejaVuSans-6f" x="1833.691406"/>
     <use xlink:href="#DejaVuSans-76" x="1894.873047"/>
     <use xlink:href="#DejaVuSans-65" x="1954.052734"/>
     <use xlink:href="#DejaVuSans-72" x="2015.576172"/>
     <use xlink:href="#DejaVuSans-27" x="2056.689453"/>
     <use xlink:href="#DejaVuSans-5d" x="2084.179688"/>
     <use xlink:href="#DejaVuSans-29" x="2123.193359"/>
    </g>
   </g>
   <g id="patch_4">
    <path d="M 647.439938 443.181308 
L 663.279938 443.181308 
L 663.279938 427.341308 
L 647.439938 427.341308 
L 647.439938 443.181308 
z
" clip-path="url(#p085dcb3e8e)" style="fill: none"/>
   </g>
   <g id="line2d_55">
    <path d="M 655.359938 435.261308 
" clip-path="url(#p085dcb3e8e)" style="fill: none; stroke: #1f77b4; stroke-width: 1.5; stroke-linecap: square"/>
    <defs>
     <path id="m263805a494" d="M 0 1.772454 
C 0.47006 1.772454 0.920931 1.585697 1.253314 1.253314 
C 1.585697 0.920931 1.772454 0.47006 1.772454 0 
C 1.772454 -0.47006 1.585697 -0.920931 1.253314 -1.253314 
C 0.920931 -1.585697 0.47006 -1.772454 0 -1.772454 
C -0.47006 -1.772454 -0.920931 -1.585697 -1.253314 -1.253314 
C -1.585697 -0.920931 -1.772454 -0.47006 -1.772454 0 
C -1.772454 0.47006 -1.585697 0.920931 -1.253314 1.253314 
C -0.920931 1.585697 -0.47006 1.772454 0 1.772454 
z
" style="stroke: #db5f57; stroke-width: 0.886227"/>
    </defs>
    <g clip-path="url(#p085dcb3e8e)">
     <use xlink:href="#m263805a494" x="655.359938" y="435.261308" style="fill: #db5f57; stroke: #db5f57; stroke-width: 0.886227"/>
    </g>
   </g>
   <g id="line2d_56">
    <path d="M 647.439938 435.261308 
L 663.279938 435.261308 
" clip-path="url(#p085dcb3e8e)" style="fill: none; stroke: #db5f57; stroke-width: 0.886227"/>
   </g>
   <g id="text_20">
    <!-- False -->
    <g transform="translate(666.279938 437.689558)scale(0.088 -0.088)">
     <defs>
      <path id="DejaVuSans-46" d="M 628 4666 
L 3309 4666 
L 3309 4134 
L 1259 4134 
L 1259 2759 
L 3109 2759 
L 3109 2228 
L 1259 2228 
L 1259 0 
L 628 0 
L 628 4666 
z
" transform="scale(0.015625)"/>
     </defs>
     <use xlink:href="#DejaVuSans-46"/>
     <use xlink:href="#DejaVuSans-61" x="48.394531"/>
     <use xlink:href="#DejaVuSans-6c" x="109.673828"/>
     <use xlink:href="#DejaVuSans-73" x="137.457031"/>
     <use xlink:href="#DejaVuSans-65" x="189.556641"/>
    </g>
   </g>
   <g id="patch_5">
    <path d="M 647.439938 461.021308 
L 663.279938 461.021308 
L 663.279938 445.181308 
L 647.439938 445.181308 
L 647.439938 461.021308 
z
" clip-path="url(#p4e7b603e7f)" style="fill: none"/>
   </g>
   <g id="line2d_57">
    <path d="M 655.359938 453.101308 
" clip-path="url(#p4e7b603e7f)" style="fill: none; stroke: #1f77b4; stroke-width: 1.5; stroke-linecap: square"/>
    <defs>
     <path id="maadd7e5f38" d="M 0 1.772454 
C 0.47006 1.772454 0.920931 1.585697 1.253314 1.253314 
C 1.585697 0.920931 1.772454 0.47006 1.772454 0 
C 1.772454 -0.47006 1.585697 -0.920931 1.253314 -1.253314 
C 0.920931 -1.585697 0.47006 -1.772454 0 -1.772454 
C -0.47006 -1.772454 -0.920931 -1.585697 -1.253314 -1.253314 
C -1.585697 -0.920931 -1.772454 -0.47006 -1.772454 0 
C -1.772454 0.47006 -1.585697 0.920931 -1.253314 1.253314 
C -0.920931 1.585697 -0.47006 1.772454 0 1.772454 
z
" style="stroke: #57d3db; stroke-width: 0.886227"/>
    </defs>
    <g clip-path="url(#p4e7b603e7f)">
     <use xlink:href="#maadd7e5f38" x="655.359938" y="453.101308" style="fill: #57d3db; stroke: #57d3db; stroke-width: 0.886227"/>
    </g>
   </g>
   <g id="line2d_58">
    <path d="M 647.439938 453.101308 
L 663.279938 453.101308 
" clip-path="url(#p4e7b603e7f)" style="fill: none; stroke: #57d3db; stroke-width: 0.886227"/>
   </g>
   <g id="text_21">
    <!-- True -->
    <g transform="translate(666.279938 455.529558)scale(0.088 -0.088)">
     <defs>
      <path id="DejaVuSans-54" d="M -19 4666 
L 3928 4666 
L 3928 4134 
L 2272 4134 
L 2272 0 
L 1638 0 
L 1638 4134 
L -19 4134 
L -19 4666 
z
" transform="scale(0.015625)"/>
     </defs>
     <use xlink:href="#DejaVuSans-54"/>
     <use xlink:href="#DejaVuSans-72" x="46.333984"/>
     <use xlink:href="#DejaVuSans-75" x="87.447266"/>
     <use xlink:href="#DejaVuSans-65" x="150.826172"/>
    </g>
   </g>
  </g>
  <g id="text_22">
   <!-- Lawrence Distance to Other School Districts -->
   <g transform="translate(194.655344 17.229937)scale(0.132 -0.132)">
    <defs>
     <path id="DejaVuSans-4c" d="M 628 4666 
L 1259 4666 
L 1259 531 
L 3531 531 
L 3531 0 
L 628 0 
L 628 4666 
z
" transform="scale(0.015625)"/>
     <path id="DejaVuSans-44" d="M 1259 4147 
L 1259 519 
L 2022 519 
Q 2988 519 3436 956 
Q 3884 1394 3884 2338 
Q 3884 3275 3436 3711 
Q 2988 4147 2022 4147 
L 1259 4147 
z
M 628 4666 
L 1925 4666 
Q 3281 4666 3915 4102 
Q 4550 3538 4550 2338 
Q 4550 1131 3912 565 
Q 3275 0 1925 0 
L 628 0 
L 628 4666 
z
" transform="scale(0.015625)"/>
     <path id="DejaVuSans-4f" d="M 2522 4238 
Q 1834 4238 1429 3725 
Q 1025 3213 1025 2328 
Q 1025 1447 1429 934 
Q 1834 422 2522 422 
Q 3209 422 3611 934 
Q 4013 1447 4013 2328 
Q 4013 3213 3611 3725 
Q 3209 4238 2522 4238 
z
M 2522 4750 
Q 3503 4750 4090 4092 
Q 4678 3434 4678 2328 
Q 4678 1225 4090 567 
Q 3503 -91 2522 -91 
Q 1538 -91 948 565 
Q 359 1222 359 2328 
Q 359 3434 948 4092 
Q 1538 4750 2522 4750 
z
" transform="scale(0.015625)"/>
     <path id="DejaVuSans-53" d="M 3425 4513 
L 3425 3897 
Q 3066 4069 2747 4153 
Q 2428 4238 2131 4238 
Q 1616 4238 1336 4038 
Q 1056 3838 1056 3469 
Q 1056 3159 1242 3001 
Q 1428 2844 1947 2747 
L 2328 2669 
Q 3034 2534 3370 2195 
Q 3706 1856 3706 1288 
Q 3706 609 3251 259 
Q 2797 -91 1919 -91 
Q 1588 -91 1214 -16 
Q 841 59 441 206 
L 441 856 
Q 825 641 1194 531 
Q 1563 422 1919 422 
Q 2459 422 2753 634 
Q 3047 847 3047 1241 
Q 3047 1584 2836 1778 
Q 2625 1972 2144 2069 
L 1759 2144 
Q 1053 2284 737 2584 
Q 422 2884 422 3419 
Q 422 4038 858 4394 
Q 1294 4750 2059 4750 
Q 2388 4750 2728 4690 
Q 3069 4631 3425 4513 
z
" transform="scale(0.015625)"/>
    </defs>
    <use xlink:href="#DejaVuSans-4c"/>
    <use xlink:href="#DejaVuSans-61" x="55.712891"/>
    <use xlink:href="#DejaVuSans-77" x="116.992188"/>
    <use xlink:href="#DejaVuSans-72" x="198.779297"/>
    <use xlink:href="#DejaVuSans-65" x="237.642578"/>
    <use xlink:href="#DejaVuSans-6e" x="299.166016"/>
    <use xlink:href="#DejaVuSans-63" x="362.544922"/>
    <use xlink:href="#DejaVuSans-65" x="417.525391"/>
    <use xlink:href="#DejaVuSans-20" x="479.048828"/>
    <use xlink:href="#DejaVuSans-44" x="510.835938"/>
    <use xlink:href="#DejaVuSans-69" x="587.837891"/>
    <use xlink:href="#DejaVuSans-73" x="615.621094"/>
    <use xlink:href="#DejaVuSans-74" x="667.720703"/>
    <use xlink:href="#DejaVuSans-61" x="706.929688"/>
    <use xlink:href="#DejaVuSans-6e" x="768.208984"/>
    <use xlink:href="#DejaVuSans-63" x="831.587891"/>
    <use xlink:href="#DejaVuSans-65" x="886.568359"/>
    <use xlink:href="#DejaVuSans-20" x="948.091797"/>
    <use xlink:href="#DejaVuSans-74" x="979.878906"/>
    <use xlink:href="#DejaVuSans-6f" x="1019.087891"/>
    <use xlink:href="#DejaVuSans-20" x="1080.269531"/>
    <use xlink:href="#DejaVuSans-4f" x="1112.056641"/>
    <use xlink:href="#DejaVuSans-74" x="1190.767578"/>
    <use xlink:href="#DejaVuSans-68" x="1229.976562"/>
    <use xlink:href="#DejaVuSans-65" x="1293.355469"/>
    <use xlink:href="#DejaVuSans-72" x="1354.878906"/>
    <use xlink:href="#DejaVuSans-20" x="1395.992188"/>
    <use xlink:href="#DejaVuSans-53" x="1427.779297"/>
    <use xlink:href="#DejaVuSans-63" x="1491.255859"/>
    <use xlink:href="#DejaVuSans-68" x="1546.236328"/>
    <use xlink:href="#DejaVuSans-6f" x="1609.615234"/>
    <use xlink:href="#DejaVuSans-6f" x="1670.796875"/>
    <use xlink:href="#DejaVuSans-6c" x="1731.978516"/>
    <use xlink:href="#DejaVuSans-20" x="1759.761719"/>
    <use xlink:href="#DejaVuSans-44" x="1791.548828"/>
    <use xlink:href="#DejaVuSans-69" x="1868.550781"/>
    <use xlink:href="#DejaVuSans-73" x="1896.333984"/>
    <use xlink:href="#DejaVuSans-74" x="1948.433594"/>
    <use xlink:href="#DejaVuSans-72" x="1987.642578"/>
    <use xlink:href="#DejaVuSans-69" x="2028.755859"/>
    <use xlink:href="#DejaVuSans-63" x="2056.539062"/>
    <use xlink:href="#DejaVuSans-74" x="2111.519531"/>
    <use xlink:href="#DejaVuSans-73" x="2150.728516"/>
   </g>
  </g>
 </g>
 <defs>
  <clipPath id="p77acbb7dcf">
   <rect x="70.039938" y="26.105371" width="558" height="831.6"/>
  </clipPath>
  <clipPath id="p085dcb3e8e">
   <path d="M 647.439938 443.181308 
L 647.439938 427.341308 
L 663.279938 427.341308 
L 663.279938 443.181308 
"/>
  </clipPath>
  <clipPath id="p4e7b603e7f">
   <path d="M 647.439938 461.021308 
L 647.439938 445.181308 
L 663.279938 445.181308 
L 663.279938 461.021308 
"/>
  </clipPath>
 </defs>
</svg>
