<?xml version="1.0" encoding="utf-8" standalone="no"?>
<!DOCTYPE svg PUBLIC "-//W3C//DTD SVG 1.1//EN"
  "http://www.w3.org/Graphics/SVG/1.1/DTD/svg11.dtd">
<svg xmlns:xlink="http://www.w3.org/1999/xlink" width="1516.276344pt" height="736.348058pt" viewBox="0 0 1516.276344 736.348058" xmlns="http://www.w3.org/2000/svg" version="1.1">
 <metadata>
  <rdf:RDF xmlns:dc="http://purl.org/dc/elements/1.1/" xmlns:cc="http://creativecommons.org/ns#" xmlns:rdf="http://www.w3.org/1999/02/22-rdf-syntax-ns#">
   <cc:Work>
    <dc:type rdf:resource="http://purl.org/dc/dcmitype/StillImage"/>
    <dc:date>2022-01-30T14:12:07.654174</dc:date>
    <dc:format>image/svg+xml</dc:format>
    <dc:creator>
     <cc:Agent>
      <dc:title>Matplotlib v3.5.0, https://matplotlib.org/</dc:title>
     </cc:Agent>
    </dc:creator>
   </cc:Work>
  </rdf:RDF>
 </metadata>
 <defs>
  <style type="text/css">*{stroke-linejoin: round; stroke-linecap: butt}</style>
 </defs>
 <g id="figure_1">
  <g id="patch_1">
   <path d="M 0 736.348058 
L 1516.276344 736.348058 
L 1516.276344 0 
L 0 0 
L 0 736.348058 
z
" style="fill: none"/>
  </g>
  <g id="axes_1">
   <g id="patch_2">
    <path d="M 70.039938 691.385371 
L 1186.039937 691.385371 
L 1186.039937 26.105371 
L 70.039938 26.105371 
L 70.039938 691.385371 
z
" style="fill: none"/>
   </g>
   <g id="matplotlib.axis_1">
    <g id="xtick_1">
     <g id="line2d_1">
      <path d="M 70.039938 691.385371 
L 70.039938 26.105371 
" clip-path="url(#p8289f78b46)" style="fill: none; stroke: #e5e5e5; stroke-width: 0.8"/>
     </g>
     <g id="text_1">
      <!-- 0 -->
      <g style="fill: #4d4d4d" transform="translate(67.240438 712.271996)scale(0.088 -0.088)">
       <defs>
        <path id="DejaVuSans-30" d="M 2034 4250 
Q 1547 4250 1301 3770 
Q 1056 3291 1056 2328 
Q 1056 1369 1301 889 
Q 1547 409 2034 409 
Q 2525 409 2770 889 
Q 3016 1369 3016 2328 
Q 3016 3291 2770 3770 
Q 2525 4250 2034 4250 
z
M 2034 4750 
Q 2819 4750 3233 4129 
Q 3647 3509 3647 2328 
Q 3647 1150 3233 529 
Q 2819 -91 2034 -91 
Q 1250 -91 836 529 
Q 422 1150 422 2328 
Q 422 3509 836 4129 
Q 1250 4750 2034 4750 
z
" transform="scale(0.015625)"/>
       </defs>
       <use xlink:href="#DejaVuSans-30"/>
      </g>
     </g>
    </g>
    <g id="xtick_2">
     <g id="line2d_2">
      <path d="M 107.239938 691.385371 
L 107.239938 26.105371 
" clip-path="url(#p8289f78b46)" style="fill: none; stroke: #e5e5e5; stroke-width: 0.8"/>
     </g>
     <g id="text_2">
      <!-- 1 -->
      <g style="fill: #4d4d4d" transform="translate(104.440438 712.271996)scale(0.088 -0.088)">
       <defs>
        <path id="DejaVuSans-31" d="M 794 531 
L 1825 531 
L 1825 4091 
L 703 3866 
L 703 4441 
L 1819 4666 
L 2450 4666 
L 2450 531 
L 3481 531 
L 3481 0 
L 794 0 
L 794 531 
z
" transform="scale(0.015625)"/>
       </defs>
       <use xlink:href="#DejaVuSans-31"/>
      </g>
     </g>
    </g>
    <g id="xtick_3">
     <g id="line2d_3">
      <path d="M 144.439938 691.385371 
L 144.439938 26.105371 
" clip-path="url(#p8289f78b46)" style="fill: none; stroke: #e5e5e5; stroke-width: 0.8"/>
     </g>
     <g id="text_3">
      <!-- 2 -->
      <g style="fill: #4d4d4d" transform="translate(141.640438 712.271996)scale(0.088 -0.088)">
       <defs>
        <path id="DejaVuSans-32" d="M 1228 531 
L 3431 531 
L 3431 0 
L 469 0 
L 469 531 
Q 828 903 1448 1529 
Q 2069 2156 2228 2338 
Q 2531 2678 2651 2914 
Q 2772 3150 2772 3378 
Q 2772 3750 2511 3984 
Q 2250 4219 1831 4219 
Q 1534 4219 1204 4116 
Q 875 4013 500 3803 
L 500 4441 
Q 881 4594 1212 4672 
Q 1544 4750 1819 4750 
Q 2544 4750 2975 4387 
Q 3406 4025 3406 3419 
Q 3406 3131 3298 2873 
Q 3191 2616 2906 2266 
Q 2828 2175 2409 1742 
Q 1991 1309 1228 531 
z
" transform="scale(0.015625)"/>
       </defs>
       <use xlink:href="#DejaVuSans-32"/>
      </g>
     </g>
    </g>
    <g id="xtick_4">
     <g id="line2d_4">
      <path d="M 181.639938 691.385371 
L 181.639938 26.105371 
" clip-path="url(#p8289f78b46)" style="fill: none; stroke: #e5e5e5; stroke-width: 0.8"/>
     </g>
     <g id="text_4">
      <!-- 3 -->
      <g style="fill: #4d4d4d" transform="translate(178.840438 712.271996)scale(0.088 -0.088)">
       <defs>
        <path id="DejaVuSans-33" d="M 2597 2516 
Q 3050 2419 3304 2112 
Q 3559 1806 3559 1356 
Q 3559 666 3084 287 
Q 2609 -91 1734 -91 
Q 1441 -91 1130 -33 
Q 819 25 488 141 
L 488 750 
Q 750 597 1062 519 
Q 1375 441 1716 441 
Q 2309 441 2620 675 
Q 2931 909 2931 1356 
Q 2931 1769 2642 2001 
Q 2353 2234 1838 2234 
L 1294 2234 
L 1294 2753 
L 1863 2753 
Q 2328 2753 2575 2939 
Q 2822 3125 2822 3475 
Q 2822 3834 2567 4026 
Q 2313 4219 1838 4219 
Q 1578 4219 1281 4162 
Q 984 4106 628 3988 
L 628 4550 
Q 988 4650 1302 4700 
Q 1616 4750 1894 4750 
Q 2613 4750 3031 4423 
Q 3450 4097 3450 3541 
Q 3450 3153 3228 2886 
Q 3006 2619 2597 2516 
z
" transform="scale(0.015625)"/>
       </defs>
       <use xlink:href="#DejaVuSans-33"/>
      </g>
     </g>
    </g>
    <g id="xtick_5">
     <g id="line2d_5">
      <path d="M 218.839938 691.385371 
L 218.839938 26.105371 
" clip-path="url(#p8289f78b46)" style="fill: none; stroke: #e5e5e5; stroke-width: 0.8"/>
     </g>
     <g id="text_5">
      <!-- 4 -->
      <g style="fill: #4d4d4d" transform="translate(216.040438 712.271996)scale(0.088 -0.088)">
       <defs>
        <path id="DejaVuSans-34" d="M 2419 4116 
L 825 1625 
L 2419 1625 
L 2419 4116 
z
M 2253 4666 
L 3047 4666 
L 3047 1625 
L 3713 1625 
L 3713 1100 
L 3047 1100 
L 3047 0 
L 2419 0 
L 2419 1100 
L 313 1100 
L 313 1709 
L 2253 4666 
z
" transform="scale(0.015625)"/>
       </defs>
       <use xlink:href="#DejaVuSans-34"/>
      </g>
     </g>
    </g>
    <g id="xtick_6">
     <g id="line2d_6">
      <path d="M 256.039938 691.385371 
L 256.039938 26.105371 
" clip-path="url(#p8289f78b46)" style="fill: none; stroke: #e5e5e5; stroke-width: 0.8"/>
     </g>
     <g id="text_6">
      <!-- 5 -->
      <g style="fill: #4d4d4d" transform="translate(253.240438 712.271996)scale(0.088 -0.088)">
       <defs>
        <path id="DejaVuSans-35" d="M 691 4666 
L 3169 4666 
L 3169 4134 
L 1269 4134 
L 1269 2991 
Q 1406 3038 1543 3061 
Q 1681 3084 1819 3084 
Q 2600 3084 3056 2656 
Q 3513 2228 3513 1497 
Q 3513 744 3044 326 
Q 2575 -91 1722 -91 
Q 1428 -91 1123 -41 
Q 819 9 494 109 
L 494 744 
Q 775 591 1075 516 
Q 1375 441 1709 441 
Q 2250 441 2565 725 
Q 2881 1009 2881 1497 
Q 2881 1984 2565 2268 
Q 2250 2553 1709 2553 
Q 1456 2553 1204 2497 
Q 953 2441 691 2322 
L 691 4666 
z
" transform="scale(0.015625)"/>
       </defs>
       <use xlink:href="#DejaVuSans-35"/>
      </g>
     </g>
    </g>
    <g id="xtick_7">
     <g id="line2d_7">
      <path d="M 442.039938 691.385371 
L 442.039938 26.105371 
" clip-path="url(#p8289f78b46)" style="fill: none; stroke: #e5e5e5; stroke-width: 0.8"/>
     </g>
     <g id="text_7">
      <!-- 10 -->
      <g style="fill: #4d4d4d" transform="translate(436.440938 712.271996)scale(0.088 -0.088)">
       <use xlink:href="#DejaVuSans-31"/>
       <use xlink:href="#DejaVuSans-30" x="63.623047"/>
      </g>
     </g>
    </g>
    <g id="xtick_8">
     <g id="line2d_8">
      <path d="M 814.039937 691.385371 
L 814.039937 26.105371 
" clip-path="url(#p8289f78b46)" style="fill: none; stroke: #e5e5e5; stroke-width: 0.8"/>
     </g>
     <g id="text_8">
      <!-- 20 -->
      <g style="fill: #4d4d4d" transform="translate(808.440937 712.271996)scale(0.088 -0.088)">
       <use xlink:href="#DejaVuSans-32"/>
       <use xlink:href="#DejaVuSans-30" x="63.623047"/>
      </g>
     </g>
    </g>
    <g id="xtick_9">
     <g id="line2d_9">
      <path d="M 1186.039937 691.385371 
L 1186.039937 26.105371 
" clip-path="url(#p8289f78b46)" style="fill: none; stroke: #e5e5e5; stroke-width: 0.8"/>
     </g>
     <g id="text_9">
      <!-- 30 -->
      <g style="fill: #4d4d4d" transform="translate(1180.440938 712.271996)scale(0.088 -0.088)">
       <use xlink:href="#DejaVuSans-33"/>
       <use xlink:href="#DejaVuSans-30" x="63.623047"/>
      </g>
     </g>
    </g>
    <g id="xtick_10">
     <g id="line2d_10">
      <path d="M 88.639938 691.385371 
L 88.639938 26.105371 
" clip-path="url(#p8289f78b46)" style="fill: none; stroke: #fafafa"/>
     </g>
    </g>
    <g id="xtick_11">
     <g id="line2d_11">
      <path d="M 125.839938 691.385371 
L 125.839938 26.105371 
" clip-path="url(#p8289f78b46)" style="fill: none; stroke: #fafafa"/>
     </g>
    </g>
    <g id="xtick_12">
     <g id="line2d_12">
      <path d="M 163.039938 691.385371 
L 163.039938 26.105371 
" clip-path="url(#p8289f78b46)" style="fill: none; stroke: #fafafa"/>
     </g>
    </g>
    <g id="xtick_13">
     <g id="line2d_13">
      <path d="M 200.239938 691.385371 
L 200.239938 26.105371 
" clip-path="url(#p8289f78b46)" style="fill: none; stroke: #fafafa"/>
     </g>
    </g>
    <g id="xtick_14">
     <g id="line2d_14">
      <path d="M 237.439938 691.385371 
L 237.439938 26.105371 
" clip-path="url(#p8289f78b46)" style="fill: none; stroke: #fafafa"/>
     </g>
    </g>
    <g id="xtick_15">
     <g id="line2d_15">
      <path d="M 349.039938 691.385371 
L 349.039938 26.105371 
" clip-path="url(#p8289f78b46)" style="fill: none; stroke: #fafafa"/>
     </g>
    </g>
    <g id="xtick_16">
     <g id="line2d_16">
      <path d="M 628.039937 691.385371 
L 628.039937 26.105371 
" clip-path="url(#p8289f78b46)" style="fill: none; stroke: #fafafa"/>
     </g>
    </g>
    <g id="xtick_17">
     <g id="line2d_17">
      <path d="M 1000.039938 691.385371 
L 1000.039938 26.105371 
" clip-path="url(#p8289f78b46)" style="fill: none; stroke: #fafafa"/>
     </g>
    </g>
    <g id="text_10">
     <!-- distance between schools -->
     <g transform="translate(538.955875 726.860402)scale(0.11 -0.11)">
      <defs>
       <path id="DejaVuSans-64" d="M 2906 2969 
L 2906 4863 
L 3481 4863 
L 3481 0 
L 2906 0 
L 2906 525 
Q 2725 213 2448 61 
Q 2172 -91 1784 -91 
Q 1150 -91 751 415 
Q 353 922 353 1747 
Q 353 2572 751 3078 
Q 1150 3584 1784 3584 
Q 2172 3584 2448 3432 
Q 2725 3281 2906 2969 
z
M 947 1747 
Q 947 1113 1208 752 
Q 1469 391 1925 391 
Q 2381 391 2643 752 
Q 2906 1113 2906 1747 
Q 2906 2381 2643 2742 
Q 2381 3103 1925 3103 
Q 1469 3103 1208 2742 
Q 947 2381 947 1747 
z
" transform="scale(0.015625)"/>
       <path id="DejaVuSans-69" d="M 603 3500 
L 1178 3500 
L 1178 0 
L 603 0 
L 603 3500 
z
M 603 4863 
L 1178 4863 
L 1178 4134 
L 603 4134 
L 603 4863 
z
" transform="scale(0.015625)"/>
       <path id="DejaVuSans-73" d="M 2834 3397 
L 2834 2853 
Q 2591 2978 2328 3040 
Q 2066 3103 1784 3103 
Q 1356 3103 1142 2972 
Q 928 2841 928 2578 
Q 928 2378 1081 2264 
Q 1234 2150 1697 2047 
L 1894 2003 
Q 2506 1872 2764 1633 
Q 3022 1394 3022 966 
Q 3022 478 2636 193 
Q 2250 -91 1575 -91 
Q 1294 -91 989 -36 
Q 684 19 347 128 
L 347 722 
Q 666 556 975 473 
Q 1284 391 1588 391 
Q 1994 391 2212 530 
Q 2431 669 2431 922 
Q 2431 1156 2273 1281 
Q 2116 1406 1581 1522 
L 1381 1569 
Q 847 1681 609 1914 
Q 372 2147 372 2553 
Q 372 3047 722 3315 
Q 1072 3584 1716 3584 
Q 2034 3584 2315 3537 
Q 2597 3491 2834 3397 
z
" transform="scale(0.015625)"/>
       <path id="DejaVuSans-74" d="M 1172 4494 
L 1172 3500 
L 2356 3500 
L 2356 3053 
L 1172 3053 
L 1172 1153 
Q 1172 725 1289 603 
Q 1406 481 1766 481 
L 2356 481 
L 2356 0 
L 1766 0 
Q 1100 0 847 248 
Q 594 497 594 1153 
L 594 3053 
L 172 3053 
L 172 3500 
L 594 3500 
L 594 4494 
L 1172 4494 
z
" transform="scale(0.015625)"/>
       <path id="DejaVuSans-61" d="M 2194 1759 
Q 1497 1759 1228 1600 
Q 959 1441 959 1056 
Q 959 750 1161 570 
Q 1363 391 1709 391 
Q 2188 391 2477 730 
Q 2766 1069 2766 1631 
L 2766 1759 
L 2194 1759 
z
M 3341 1997 
L 3341 0 
L 2766 0 
L 2766 531 
Q 2569 213 2275 61 
Q 1981 -91 1556 -91 
Q 1019 -91 701 211 
Q 384 513 384 1019 
Q 384 1609 779 1909 
Q 1175 2209 1959 2209 
L 2766 2209 
L 2766 2266 
Q 2766 2663 2505 2880 
Q 2244 3097 1772 3097 
Q 1472 3097 1187 3025 
Q 903 2953 641 2809 
L 641 3341 
Q 956 3463 1253 3523 
Q 1550 3584 1831 3584 
Q 2591 3584 2966 3190 
Q 3341 2797 3341 1997 
z
" transform="scale(0.015625)"/>
       <path id="DejaVuSans-6e" d="M 3513 2113 
L 3513 0 
L 2938 0 
L 2938 2094 
Q 2938 2591 2744 2837 
Q 2550 3084 2163 3084 
Q 1697 3084 1428 2787 
Q 1159 2491 1159 1978 
L 1159 0 
L 581 0 
L 581 3500 
L 1159 3500 
L 1159 2956 
Q 1366 3272 1645 3428 
Q 1925 3584 2291 3584 
Q 2894 3584 3203 3211 
Q 3513 2838 3513 2113 
z
" transform="scale(0.015625)"/>
       <path id="DejaVuSans-63" d="M 3122 3366 
L 3122 2828 
Q 2878 2963 2633 3030 
Q 2388 3097 2138 3097 
Q 1578 3097 1268 2742 
Q 959 2388 959 1747 
Q 959 1106 1268 751 
Q 1578 397 2138 397 
Q 2388 397 2633 464 
Q 2878 531 3122 666 
L 3122 134 
Q 2881 22 2623 -34 
Q 2366 -91 2075 -91 
Q 1284 -91 818 406 
Q 353 903 353 1747 
Q 353 2603 823 3093 
Q 1294 3584 2113 3584 
Q 2378 3584 2631 3529 
Q 2884 3475 3122 3366 
z
" transform="scale(0.015625)"/>
       <path id="DejaVuSans-65" d="M 3597 1894 
L 3597 1613 
L 953 1613 
Q 991 1019 1311 708 
Q 1631 397 2203 397 
Q 2534 397 2845 478 
Q 3156 559 3463 722 
L 3463 178 
Q 3153 47 2828 -22 
Q 2503 -91 2169 -91 
Q 1331 -91 842 396 
Q 353 884 353 1716 
Q 353 2575 817 3079 
Q 1281 3584 2069 3584 
Q 2775 3584 3186 3129 
Q 3597 2675 3597 1894 
z
M 3022 2063 
Q 3016 2534 2758 2815 
Q 2500 3097 2075 3097 
Q 1594 3097 1305 2825 
Q 1016 2553 972 2059 
L 3022 2063 
z
" transform="scale(0.015625)"/>
       <path id="DejaVuSans-20" transform="scale(0.015625)"/>
       <path id="DejaVuSans-62" d="M 3116 1747 
Q 3116 2381 2855 2742 
Q 2594 3103 2138 3103 
Q 1681 3103 1420 2742 
Q 1159 2381 1159 1747 
Q 1159 1113 1420 752 
Q 1681 391 2138 391 
Q 2594 391 2855 752 
Q 3116 1113 3116 1747 
z
M 1159 2969 
Q 1341 3281 1617 3432 
Q 1894 3584 2278 3584 
Q 2916 3584 3314 3078 
Q 3713 2572 3713 1747 
Q 3713 922 3314 415 
Q 2916 -91 2278 -91 
Q 1894 -91 1617 61 
Q 1341 213 1159 525 
L 1159 0 
L 581 0 
L 581 4863 
L 1159 4863 
L 1159 2969 
z
" transform="scale(0.015625)"/>
       <path id="DejaVuSans-77" d="M 269 3500 
L 844 3500 
L 1563 769 
L 2278 3500 
L 2956 3500 
L 3675 769 
L 4391 3500 
L 4966 3500 
L 4050 0 
L 3372 0 
L 2619 2869 
L 1863 0 
L 1184 0 
L 269 3500 
z
" transform="scale(0.015625)"/>
       <path id="DejaVuSans-68" d="M 3513 2113 
L 3513 0 
L 2938 0 
L 2938 2094 
Q 2938 2591 2744 2837 
Q 2550 3084 2163 3084 
Q 1697 3084 1428 2787 
Q 1159 2491 1159 1978 
L 1159 0 
L 581 0 
L 581 4863 
L 1159 4863 
L 1159 2956 
Q 1366 3272 1645 3428 
Q 1925 3584 2291 3584 
Q 2894 3584 3203 3211 
Q 3513 2838 3513 2113 
z
" transform="scale(0.015625)"/>
       <path id="DejaVuSans-6f" d="M 1959 3097 
Q 1497 3097 1228 2736 
Q 959 2375 959 1747 
Q 959 1119 1226 758 
Q 1494 397 1959 397 
Q 2419 397 2687 759 
Q 2956 1122 2956 1747 
Q 2956 2369 2687 2733 
Q 2419 3097 1959 3097 
z
M 1959 3584 
Q 2709 3584 3137 3096 
Q 3566 2609 3566 1747 
Q 3566 888 3137 398 
Q 2709 -91 1959 -91 
Q 1206 -91 779 398 
Q 353 888 353 1747 
Q 353 2609 779 3096 
Q 1206 3584 1959 3584 
z
" transform="scale(0.015625)"/>
       <path id="DejaVuSans-6c" d="M 603 4863 
L 1178 4863 
L 1178 0 
L 603 0 
L 603 4863 
z
" transform="scale(0.015625)"/>
      </defs>
      <use xlink:href="#DejaVuSans-64"/>
      <use xlink:href="#DejaVuSans-69" x="63.476562"/>
      <use xlink:href="#DejaVuSans-73" x="91.259766"/>
      <use xlink:href="#DejaVuSans-74" x="143.359375"/>
      <use xlink:href="#DejaVuSans-61" x="182.568359"/>
      <use xlink:href="#DejaVuSans-6e" x="243.847656"/>
      <use xlink:href="#DejaVuSans-63" x="307.226562"/>
      <use xlink:href="#DejaVuSans-65" x="362.207031"/>
      <use xlink:href="#DejaVuSans-20" x="423.730469"/>
      <use xlink:href="#DejaVuSans-62" x="455.517578"/>
      <use xlink:href="#DejaVuSans-65" x="518.994141"/>
      <use xlink:href="#DejaVuSans-74" x="580.517578"/>
      <use xlink:href="#DejaVuSans-77" x="619.726562"/>
      <use xlink:href="#DejaVuSans-65" x="701.513672"/>
      <use xlink:href="#DejaVuSans-65" x="763.037109"/>
      <use xlink:href="#DejaVuSans-6e" x="824.560547"/>
      <use xlink:href="#DejaVuSans-20" x="887.939453"/>
      <use xlink:href="#DejaVuSans-73" x="919.726562"/>
      <use xlink:href="#DejaVuSans-63" x="971.826172"/>
      <use xlink:href="#DejaVuSans-68" x="1026.806641"/>
      <use xlink:href="#DejaVuSans-6f" x="1090.185547"/>
      <use xlink:href="#DejaVuSans-6f" x="1151.367188"/>
      <use xlink:href="#DejaVuSans-6c" x="1212.548828"/>
      <use xlink:href="#DejaVuSans-73" x="1240.332031"/>
     </g>
    </g>
   </g>
   <g id="matplotlib.axis_2">
    <g id="ytick_1">
     <g id="line2d_18">
      <path d="M 70.039938 691.385371 
L 1186.039937 691.385371 
" clip-path="url(#p8289f78b46)" style="fill: none; stroke: #e5e5e5; stroke-width: 0.8"/>
     </g>
     <g id="text_11">
      <!-- 40000 -->
      <g style="fill: #4d4d4d" transform="translate(27.844938 693.813621)scale(0.088 -0.088)">
       <use xlink:href="#DejaVuSans-34"/>
       <use xlink:href="#DejaVuSans-30" x="63.623047"/>
       <use xlink:href="#DejaVuSans-30" x="127.246094"/>
       <use xlink:href="#DejaVuSans-30" x="190.869141"/>
       <use xlink:href="#DejaVuSans-30" x="254.492188"/>
      </g>
     </g>
    </g>
    <g id="ytick_2">
     <g id="line2d_19">
      <path d="M 70.039938 580.505371 
L 1186.039937 580.505371 
" clip-path="url(#p8289f78b46)" style="fill: none; stroke: #e5e5e5; stroke-width: 0.8"/>
     </g>
     <g id="text_12">
      <!-- 60000 -->
      <g style="fill: #4d4d4d" transform="translate(27.844938 582.933621)scale(0.088 -0.088)">
       <defs>
        <path id="DejaVuSans-36" d="M 2113 2584 
Q 1688 2584 1439 2293 
Q 1191 2003 1191 1497 
Q 1191 994 1439 701 
Q 1688 409 2113 409 
Q 2538 409 2786 701 
Q 3034 994 3034 1497 
Q 3034 2003 2786 2293 
Q 2538 2584 2113 2584 
z
M 3366 4563 
L 3366 3988 
Q 3128 4100 2886 4159 
Q 2644 4219 2406 4219 
Q 1781 4219 1451 3797 
Q 1122 3375 1075 2522 
Q 1259 2794 1537 2939 
Q 1816 3084 2150 3084 
Q 2853 3084 3261 2657 
Q 3669 2231 3669 1497 
Q 3669 778 3244 343 
Q 2819 -91 2113 -91 
Q 1303 -91 875 529 
Q 447 1150 447 2328 
Q 447 3434 972 4092 
Q 1497 4750 2381 4750 
Q 2619 4750 2861 4703 
Q 3103 4656 3366 4563 
z
" transform="scale(0.015625)"/>
       </defs>
       <use xlink:href="#DejaVuSans-36"/>
       <use xlink:href="#DejaVuSans-30" x="63.623047"/>
       <use xlink:href="#DejaVuSans-30" x="127.246094"/>
       <use xlink:href="#DejaVuSans-30" x="190.869141"/>
       <use xlink:href="#DejaVuSans-30" x="254.492188"/>
      </g>
     </g>
    </g>
    <g id="ytick_3">
     <g id="line2d_20">
      <path d="M 70.039938 469.625371 
L 1186.039937 469.625371 
" clip-path="url(#p8289f78b46)" style="fill: none; stroke: #e5e5e5; stroke-width: 0.8"/>
     </g>
     <g id="text_13">
      <!-- 80000 -->
      <g style="fill: #4d4d4d" transform="translate(27.844938 472.053621)scale(0.088 -0.088)">
       <defs>
        <path id="DejaVuSans-38" d="M 2034 2216 
Q 1584 2216 1326 1975 
Q 1069 1734 1069 1313 
Q 1069 891 1326 650 
Q 1584 409 2034 409 
Q 2484 409 2743 651 
Q 3003 894 3003 1313 
Q 3003 1734 2745 1975 
Q 2488 2216 2034 2216 
z
M 1403 2484 
Q 997 2584 770 2862 
Q 544 3141 544 3541 
Q 544 4100 942 4425 
Q 1341 4750 2034 4750 
Q 2731 4750 3128 4425 
Q 3525 4100 3525 3541 
Q 3525 3141 3298 2862 
Q 3072 2584 2669 2484 
Q 3125 2378 3379 2068 
Q 3634 1759 3634 1313 
Q 3634 634 3220 271 
Q 2806 -91 2034 -91 
Q 1263 -91 848 271 
Q 434 634 434 1313 
Q 434 1759 690 2068 
Q 947 2378 1403 2484 
z
M 1172 3481 
Q 1172 3119 1398 2916 
Q 1625 2713 2034 2713 
Q 2441 2713 2670 2916 
Q 2900 3119 2900 3481 
Q 2900 3844 2670 4047 
Q 2441 4250 2034 4250 
Q 1625 4250 1398 4047 
Q 1172 3844 1172 3481 
z
" transform="scale(0.015625)"/>
       </defs>
       <use xlink:href="#DejaVuSans-38"/>
       <use xlink:href="#DejaVuSans-30" x="63.623047"/>
       <use xlink:href="#DejaVuSans-30" x="127.246094"/>
       <use xlink:href="#DejaVuSans-30" x="190.869141"/>
       <use xlink:href="#DejaVuSans-30" x="254.492188"/>
      </g>
     </g>
    </g>
    <g id="ytick_4">
     <g id="line2d_21">
      <path d="M 70.039938 358.745371 
L 1186.039937 358.745371 
" clip-path="url(#p8289f78b46)" style="fill: none; stroke: #e5e5e5; stroke-width: 0.8"/>
     </g>
     <g id="text_14">
      <!-- 100000 -->
      <g style="fill: #4d4d4d" transform="translate(22.245938 361.173621)scale(0.088 -0.088)">
       <use xlink:href="#DejaVuSans-31"/>
       <use xlink:href="#DejaVuSans-30" x="63.623047"/>
       <use xlink:href="#DejaVuSans-30" x="127.246094"/>
       <use xlink:href="#DejaVuSans-30" x="190.869141"/>
       <use xlink:href="#DejaVuSans-30" x="254.492188"/>
       <use xlink:href="#DejaVuSans-30" x="318.115234"/>
      </g>
     </g>
    </g>
    <g id="ytick_5">
     <g id="line2d_22">
      <path d="M 70.039938 247.865371 
L 1186.039937 247.865371 
" clip-path="url(#p8289f78b46)" style="fill: none; stroke: #e5e5e5; stroke-width: 0.8"/>
     </g>
     <g id="text_15">
      <!-- 120000 -->
      <g style="fill: #4d4d4d" transform="translate(22.245938 250.293621)scale(0.088 -0.088)">
       <use xlink:href="#DejaVuSans-31"/>
       <use xlink:href="#DejaVuSans-32" x="63.623047"/>
       <use xlink:href="#DejaVuSans-30" x="127.246094"/>
       <use xlink:href="#DejaVuSans-30" x="190.869141"/>
       <use xlink:href="#DejaVuSans-30" x="254.492188"/>
       <use xlink:href="#DejaVuSans-30" x="318.115234"/>
      </g>
     </g>
    </g>
    <g id="ytick_6">
     <g id="line2d_23">
      <path d="M 70.039938 136.985371 
L 1186.039937 136.985371 
" clip-path="url(#p8289f78b46)" style="fill: none; stroke: #e5e5e5; stroke-width: 0.8"/>
     </g>
     <g id="text_16">
      <!-- 140000 -->
      <g style="fill: #4d4d4d" transform="translate(22.245938 139.413621)scale(0.088 -0.088)">
       <use xlink:href="#DejaVuSans-31"/>
       <use xlink:href="#DejaVuSans-34" x="63.623047"/>
       <use xlink:href="#DejaVuSans-30" x="127.246094"/>
       <use xlink:href="#DejaVuSans-30" x="190.869141"/>
       <use xlink:href="#DejaVuSans-30" x="254.492188"/>
       <use xlink:href="#DejaVuSans-30" x="318.115234"/>
      </g>
     </g>
    </g>
    <g id="ytick_7">
     <g id="line2d_24">
      <path d="M 70.039938 26.105371 
L 1186.039937 26.105371 
" clip-path="url(#p8289f78b46)" style="fill: none; stroke: #e5e5e5; stroke-width: 0.8"/>
     </g>
     <g id="text_17">
      <!-- 160000 -->
      <g style="fill: #4d4d4d" transform="translate(22.245938 28.533621)scale(0.088 -0.088)">
       <use xlink:href="#DejaVuSans-31"/>
       <use xlink:href="#DejaVuSans-36" x="63.623047"/>
       <use xlink:href="#DejaVuSans-30" x="127.246094"/>
       <use xlink:href="#DejaVuSans-30" x="190.869141"/>
       <use xlink:href="#DejaVuSans-30" x="254.492188"/>
       <use xlink:href="#DejaVuSans-30" x="318.115234"/>
      </g>
     </g>
    </g>
    <g id="ytick_8">
     <g id="line2d_25">
      <path d="M 70.039938 635.945371 
L 1186.039937 635.945371 
" clip-path="url(#p8289f78b46)" style="fill: none; stroke: #fafafa"/>
     </g>
    </g>
    <g id="ytick_9">
     <g id="line2d_26">
      <path d="M 70.039938 525.065371 
L 1186.039937 525.065371 
" clip-path="url(#p8289f78b46)" style="fill: none; stroke: #fafafa"/>
     </g>
    </g>
    <g id="ytick_10">
     <g id="line2d_27">
      <path d="M 70.039938 414.185371 
L 1186.039937 414.185371 
" clip-path="url(#p8289f78b46)" style="fill: none; stroke: #fafafa"/>
     </g>
    </g>
    <g id="ytick_11">
     <g id="line2d_28">
      <path d="M 70.039938 303.305371 
L 1186.039937 303.305371 
" clip-path="url(#p8289f78b46)" style="fill: none; stroke: #fafafa"/>
     </g>
    </g>
    <g id="ytick_12">
     <g id="line2d_29">
      <path d="M 70.039938 192.425371 
L 1186.039937 192.425371 
" clip-path="url(#p8289f78b46)" style="fill: none; stroke: #fafafa"/>
     </g>
    </g>
    <g id="ytick_13">
     <g id="line2d_30">
      <path d="M 70.039938 81.545371 
L 1186.039937 81.545371 
" clip-path="url(#p8289f78b46)" style="fill: none; stroke: #fafafa"/>
     </g>
    </g>
    <g id="text_18">
     <!-- median household income -->
     <g transform="translate(15.558281 427.139668)rotate(-90)scale(0.11 -0.11)">
      <defs>
       <path id="DejaVuSans-6d" d="M 3328 2828 
Q 3544 3216 3844 3400 
Q 4144 3584 4550 3584 
Q 5097 3584 5394 3201 
Q 5691 2819 5691 2113 
L 5691 0 
L 5113 0 
L 5113 2094 
Q 5113 2597 4934 2840 
Q 4756 3084 4391 3084 
Q 3944 3084 3684 2787 
Q 3425 2491 3425 1978 
L 3425 0 
L 2847 0 
L 2847 2094 
Q 2847 2600 2669 2842 
Q 2491 3084 2119 3084 
Q 1678 3084 1418 2786 
Q 1159 2488 1159 1978 
L 1159 0 
L 581 0 
L 581 3500 
L 1159 3500 
L 1159 2956 
Q 1356 3278 1631 3431 
Q 1906 3584 2284 3584 
Q 2666 3584 2933 3390 
Q 3200 3197 3328 2828 
z
" transform="scale(0.015625)"/>
       <path id="DejaVuSans-75" d="M 544 1381 
L 544 3500 
L 1119 3500 
L 1119 1403 
Q 1119 906 1312 657 
Q 1506 409 1894 409 
Q 2359 409 2629 706 
Q 2900 1003 2900 1516 
L 2900 3500 
L 3475 3500 
L 3475 0 
L 2900 0 
L 2900 538 
Q 2691 219 2414 64 
Q 2138 -91 1772 -91 
Q 1169 -91 856 284 
Q 544 659 544 1381 
z
M 1991 3584 
L 1991 3584 
z
" transform="scale(0.015625)"/>
      </defs>
      <use xlink:href="#DejaVuSans-6d"/>
      <use xlink:href="#DejaVuSans-65" x="97.412109"/>
      <use xlink:href="#DejaVuSans-64" x="158.935547"/>
      <use xlink:href="#DejaVuSans-69" x="222.412109"/>
      <use xlink:href="#DejaVuSans-61" x="250.195312"/>
      <use xlink:href="#DejaVuSans-6e" x="311.474609"/>
      <use xlink:href="#DejaVuSans-20" x="374.853516"/>
      <use xlink:href="#DejaVuSans-68" x="406.640625"/>
      <use xlink:href="#DejaVuSans-6f" x="470.019531"/>
      <use xlink:href="#DejaVuSans-75" x="531.201172"/>
      <use xlink:href="#DejaVuSans-73" x="594.580078"/>
      <use xlink:href="#DejaVuSans-65" x="646.679688"/>
      <use xlink:href="#DejaVuSans-68" x="708.203125"/>
      <use xlink:href="#DejaVuSans-6f" x="771.582031"/>
      <use xlink:href="#DejaVuSans-6c" x="832.763672"/>
      <use xlink:href="#DejaVuSans-64" x="860.546875"/>
      <use xlink:href="#DejaVuSans-20" x="924.023438"/>
      <use xlink:href="#DejaVuSans-69" x="955.810547"/>
      <use xlink:href="#DejaVuSans-6e" x="983.59375"/>
      <use xlink:href="#DejaVuSans-63" x="1046.972656"/>
      <use xlink:href="#DejaVuSans-6f" x="1101.953125"/>
      <use xlink:href="#DejaVuSans-6d" x="1163.134766"/>
      <use xlink:href="#DejaVuSans-65" x="1260.546875"/>
     </g>
    </g>
   </g>
   <g id="PathCollection_1">
    <path d="M 70.039938 603.450361 
C 70.509998 603.450361 70.960869 603.263604 71.293252 602.931221 
C 71.625634 602.598838 71.812391 602.147967 71.812391 601.677907 
C 71.812391 601.207846 71.625634 600.756975 71.293252 600.424593 
C 70.960869 600.09221 70.509998 599.905453 70.039938 599.905453 
C 69.569877 599.905453 69.119006 600.09221 68.786623 600.424593 
C 68.454241 600.756975 68.267484 601.207846 68.267484 601.677907 
C 68.267484 602.147967 68.454241 602.598838 68.786623 602.931221 
C 69.119006 603.263604 69.569877 603.450361 70.039938 603.450361 
z
" clip-path="url(#p8289f78b46)" style="fill: #57d3db; stroke: #57d3db; stroke-width: 0.886227"/>
    <path d="M 70.039938 603.450361 
C 70.509998 603.450361 70.960869 603.263604 71.293252 602.931221 
C 71.625634 602.598838 71.812391 602.147967 71.812391 601.677907 
C 71.812391 601.207846 71.625634 600.756975 71.293252 600.424593 
C 70.960869 600.09221 70.509998 599.905453 70.039938 599.905453 
C 69.569877 599.905453 69.119006 600.09221 68.786623 600.424593 
C 68.454241 600.756975 68.267484 601.207846 68.267484 601.677907 
C 68.267484 602.147967 68.454241 602.598838 68.786623 602.931221 
C 69.119006 603.263604 69.569877 603.450361 70.039938 603.450361 
z
" clip-path="url(#p8289f78b46)" style="fill: #57d3db; stroke: #57d3db; stroke-width: 0.886227"/>
    <path d="M 70.039938 603.450361 
C 70.509998 603.450361 70.960869 603.263604 71.293252 602.931221 
C 71.625634 602.598838 71.812391 602.147967 71.812391 601.677907 
C 71.812391 601.207846 71.625634 600.756975 71.293252 600.424593 
C 70.960869 600.09221 70.509998 599.905453 70.039938 599.905453 
C 69.569877 599.905453 69.119006 600.09221 68.786623 600.424593 
C 68.454241 600.756975 68.267484 601.207846 68.267484 601.677907 
C 68.267484 602.147967 68.454241 602.598838 68.786623 602.931221 
C 69.119006 603.263604 69.569877 603.450361 70.039938 603.450361 
z
" clip-path="url(#p8289f78b46)" style="fill: #57d3db; stroke: #57d3db; stroke-width: 0.886227"/>
    <path d="M 70.039938 603.450361 
C 70.509998 603.450361 70.960869 603.263604 71.293252 602.931221 
C 71.625634 602.598838 71.812391 602.147967 71.812391 601.677907 
C 71.812391 601.207846 71.625634 600.756975 71.293252 600.424593 
C 70.960869 600.09221 70.509998 599.905453 70.039938 599.905453 
C 69.569877 599.905453 69.119006 600.09221 68.786623 600.424593 
C 68.454241 600.756975 68.267484 601.207846 68.267484 601.677907 
C 68.267484 602.147967 68.454241 602.598838 68.786623 602.931221 
C 69.119006 603.263604 69.569877 603.450361 70.039938 603.450361 
z
" clip-path="url(#p8289f78b46)" style="fill: #db5f57; stroke: #db5f57; stroke-width: 0.886227"/>
    <path d="M 70.039938 603.450361 
C 70.509998 603.450361 70.960869 603.263604 71.293252 602.931221 
C 71.625634 602.598838 71.812391 602.147967 71.812391 601.677907 
C 71.812391 601.207846 71.625634 600.756975 71.293252 600.424593 
C 70.960869 600.09221 70.509998 599.905453 70.039938 599.905453 
C 69.569877 599.905453 69.119006 600.09221 68.786623 600.424593 
C 68.454241 600.756975 68.267484 601.207846 68.267484 601.677907 
C 68.267484 602.147967 68.454241 602.598838 68.786623 602.931221 
C 69.119006 603.263604 69.569877 603.450361 70.039938 603.450361 
z
" clip-path="url(#p8289f78b46)" style="fill: #db5f57; stroke: #db5f57; stroke-width: 0.886227"/>
    <path d="M 70.039938 603.450361 
C 70.509998 603.450361 70.960869 603.263604 71.293252 602.931221 
C 71.625634 602.598838 71.812391 602.147967 71.812391 601.677907 
C 71.812391 601.207846 71.625634 600.756975 71.293252 600.424593 
C 70.960869 600.09221 70.509998 599.905453 70.039938 599.905453 
C 69.569877 599.905453 69.119006 600.09221 68.786623 600.424593 
C 68.454241 600.756975 68.267484 601.207846 68.267484 601.677907 
C 68.267484 602.147967 68.454241 602.598838 68.786623 602.931221 
C 69.119006 603.263604 69.569877 603.450361 70.039938 603.450361 
z
" clip-path="url(#p8289f78b46)" style="fill: #db5f57; stroke: #db5f57; stroke-width: 0.886227"/>
    <path d="M 70.039938 603.450361 
C 70.509998 603.450361 70.960869 603.263604 71.293252 602.931221 
C 71.625634 602.598838 71.812391 602.147967 71.812391 601.677907 
C 71.812391 601.207846 71.625634 600.756975 71.293252 600.424593 
C 70.960869 600.09221 70.509998 599.905453 70.039938 599.905453 
C 69.569877 599.905453 69.119006 600.09221 68.786623 600.424593 
C 68.454241 600.756975 68.267484 601.207846 68.267484 601.677907 
C 68.267484 602.147967 68.454241 602.598838 68.786623 602.931221 
C 69.119006 603.263604 69.569877 603.450361 70.039938 603.450361 
z
" clip-path="url(#p8289f78b46)" style="fill: #db5f57; stroke: #db5f57; stroke-width: 0.886227"/>
    <path d="M 70.039938 603.450361 
C 70.509998 603.450361 70.960869 603.263604 71.293252 602.931221 
C 71.625634 602.598838 71.812391 602.147967 71.812391 601.677907 
C 71.812391 601.207846 71.625634 600.756975 71.293252 600.424593 
C 70.960869 600.09221 70.509998 599.905453 70.039938 599.905453 
C 69.569877 599.905453 69.119006 600.09221 68.786623 600.424593 
C 68.454241 600.756975 68.267484 601.207846 68.267484 601.677907 
C 68.267484 602.147967 68.454241 602.598838 68.786623 602.931221 
C 69.119006 603.263604 69.569877 603.450361 70.039938 603.450361 
z
" clip-path="url(#p8289f78b46)" style="fill: #db5f57; stroke: #db5f57; stroke-width: 0.886227"/>
    <path d="M 70.039938 603.450361 
C 70.509998 603.450361 70.960869 603.263604 71.293252 602.931221 
C 71.625634 602.598838 71.812391 602.147967 71.812391 601.677907 
C 71.812391 601.207846 71.625634 600.756975 71.293252 600.424593 
C 70.960869 600.09221 70.509998 599.905453 70.039938 599.905453 
C 69.569877 599.905453 69.119006 600.09221 68.786623 600.424593 
C 68.454241 600.756975 68.267484 601.207846 68.267484 601.677907 
C 68.267484 602.147967 68.454241 602.598838 68.786623 602.931221 
C 69.119006 603.263604 69.569877 603.450361 70.039938 603.450361 
z
" clip-path="url(#p8289f78b46)" style="fill: #db5f57; stroke: #db5f57; stroke-width: 0.886227"/>
    <path d="M 70.039938 603.450361 
C 70.509998 603.450361 70.960869 603.263604 71.293252 602.931221 
C 71.625634 602.598838 71.812391 602.147967 71.812391 601.677907 
C 71.812391 601.207846 71.625634 600.756975 71.293252 600.424593 
C 70.960869 600.09221 70.509998 599.905453 70.039938 599.905453 
C 69.569877 599.905453 69.119006 600.09221 68.786623 600.424593 
C 68.454241 600.756975 68.267484 601.207846 68.267484 601.677907 
C 68.267484 602.147967 68.454241 602.598838 68.786623 602.931221 
C 69.119006 603.263604 69.569877 603.450361 70.039938 603.450361 
z
" clip-path="url(#p8289f78b46)" style="fill: #db5f57; stroke: #db5f57; stroke-width: 0.886227"/>
    <path d="M 70.039938 603.450361 
C 70.509998 603.450361 70.960869 603.263604 71.293252 602.931221 
C 71.625634 602.598838 71.812391 602.147967 71.812391 601.677907 
C 71.812391 601.207846 71.625634 600.756975 71.293252 600.424593 
C 70.960869 600.09221 70.509998 599.905453 70.039938 599.905453 
C 69.569877 599.905453 69.119006 600.09221 68.786623 600.424593 
C 68.454241 600.756975 68.267484 601.207846 68.267484 601.677907 
C 68.267484 602.147967 68.454241 602.598838 68.786623 602.931221 
C 69.119006 603.263604 69.569877 603.450361 70.039938 603.450361 
z
" clip-path="url(#p8289f78b46)" style="fill: #db5f57; stroke: #db5f57; stroke-width: 0.886227"/>
    <path d="M 70.039938 603.450361 
C 70.509998 603.450361 70.960869 603.263604 71.293252 602.931221 
C 71.625634 602.598838 71.812391 602.147967 71.812391 601.677907 
C 71.812391 601.207846 71.625634 600.756975 71.293252 600.424593 
C 70.960869 600.09221 70.509998 599.905453 70.039938 599.905453 
C 69.569877 599.905453 69.119006 600.09221 68.786623 600.424593 
C 68.454241 600.756975 68.267484 601.207846 68.267484 601.677907 
C 68.267484 602.147967 68.454241 602.598838 68.786623 602.931221 
C 69.119006 603.263604 69.569877 603.450361 70.039938 603.450361 
z
" clip-path="url(#p8289f78b46)" style="fill: #db5f57; stroke: #db5f57; stroke-width: 0.886227"/>
    <path d="M 70.039938 603.450361 
C 70.509998 603.450361 70.960869 603.263604 71.293252 602.931221 
C 71.625634 602.598838 71.812391 602.147967 71.812391 601.677907 
C 71.812391 601.207846 71.625634 600.756975 71.293252 600.424593 
C 70.960869 600.09221 70.509998 599.905453 70.039938 599.905453 
C 69.569877 599.905453 69.119006 600.09221 68.786623 600.424593 
C 68.454241 600.756975 68.267484 601.207846 68.267484 601.677907 
C 68.267484 602.147967 68.454241 602.598838 68.786623 602.931221 
C 69.119006 603.263604 69.569877 603.450361 70.039938 603.450361 
z
" clip-path="url(#p8289f78b46)" style="fill: #db5f57; stroke: #db5f57; stroke-width: 0.886227"/>
    <path d="M 70.039938 603.450361 
C 70.509998 603.450361 70.960869 603.263604 71.293252 602.931221 
C 71.625634 602.598838 71.812391 602.147967 71.812391 601.677907 
C 71.812391 601.207846 71.625634 600.756975 71.293252 600.424593 
C 70.960869 600.09221 70.509998 599.905453 70.039938 599.905453 
C 69.569877 599.905453 69.119006 600.09221 68.786623 600.424593 
C 68.454241 600.756975 68.267484 601.207846 68.267484 601.677907 
C 68.267484 602.147967 68.454241 602.598838 68.786623 602.931221 
C 69.119006 603.263604 69.569877 603.450361 70.039938 603.450361 
z
" clip-path="url(#p8289f78b46)" style="fill: #db5f57; stroke: #db5f57; stroke-width: 0.886227"/>
    <path d="M 70.039938 603.450361 
C 70.509998 603.450361 70.960869 603.263604 71.293252 602.931221 
C 71.625634 602.598838 71.812391 602.147967 71.812391 601.677907 
C 71.812391 601.207846 71.625634 600.756975 71.293252 600.424593 
C 70.960869 600.09221 70.509998 599.905453 70.039938 599.905453 
C 69.569877 599.905453 69.119006 600.09221 68.786623 600.424593 
C 68.454241 600.756975 68.267484 601.207846 68.267484 601.677907 
C 68.267484 602.147967 68.454241 602.598838 68.786623 602.931221 
C 69.119006 603.263604 69.569877 603.450361 70.039938 603.450361 
z
" clip-path="url(#p8289f78b46)" style="fill: #db5f57; stroke: #db5f57; stroke-width: 0.886227"/>
    <path d="M 70.039938 603.450361 
C 70.509998 603.450361 70.960869 603.263604 71.293252 602.931221 
C 71.625634 602.598838 71.812391 602.147967 71.812391 601.677907 
C 71.812391 601.207846 71.625634 600.756975 71.293252 600.424593 
C 70.960869 600.09221 70.509998 599.905453 70.039938 599.905453 
C 69.569877 599.905453 69.119006 600.09221 68.786623 600.424593 
C 68.454241 600.756975 68.267484 601.207846 68.267484 601.677907 
C 68.267484 602.147967 68.454241 602.598838 68.786623 602.931221 
C 69.119006 603.263604 69.569877 603.450361 70.039938 603.450361 
z
" clip-path="url(#p8289f78b46)" style="fill: #db5f57; stroke: #db5f57; stroke-width: 0.886227"/>
    <path d="M 70.039938 603.450361 
C 70.509998 603.450361 70.960869 603.263604 71.293252 602.931221 
C 71.625634 602.598838 71.812391 602.147967 71.812391 601.677907 
C 71.812391 601.207846 71.625634 600.756975 71.293252 600.424593 
C 70.960869 600.09221 70.509998 599.905453 70.039938 599.905453 
C 69.569877 599.905453 69.119006 600.09221 68.786623 600.424593 
C 68.454241 600.756975 68.267484 601.207846 68.267484 601.677907 
C 68.267484 602.147967 68.454241 602.598838 68.786623 602.931221 
C 69.119006 603.263604 69.569877 603.450361 70.039938 603.450361 
z
" clip-path="url(#p8289f78b46)" style="fill: #db5f57; stroke: #db5f57; stroke-width: 0.886227"/>
    <path d="M 70.039938 603.450361 
C 70.509998 603.450361 70.960869 603.263604 71.293252 602.931221 
C 71.625634 602.598838 71.812391 602.147967 71.812391 601.677907 
C 71.812391 601.207846 71.625634 600.756975 71.293252 600.424593 
C 70.960869 600.09221 70.509998 599.905453 70.039938 599.905453 
C 69.569877 599.905453 69.119006 600.09221 68.786623 600.424593 
C 68.454241 600.756975 68.267484 601.207846 68.267484 601.677907 
C 68.267484 602.147967 68.454241 602.598838 68.786623 602.931221 
C 69.119006 603.263604 69.569877 603.450361 70.039938 603.450361 
z
" clip-path="url(#p8289f78b46)" style="fill: #db5f57; stroke: #db5f57; stroke-width: 0.886227"/>
    <path d="M 70.039938 603.450361 
C 70.509998 603.450361 70.960869 603.263604 71.293252 602.931221 
C 71.625634 602.598838 71.812391 602.147967 71.812391 601.677907 
C 71.812391 601.207846 71.625634 600.756975 71.293252 600.424593 
C 70.960869 600.09221 70.509998 599.905453 70.039938 599.905453 
C 69.569877 599.905453 69.119006 600.09221 68.786623 600.424593 
C 68.454241 600.756975 68.267484 601.207846 68.267484 601.677907 
C 68.267484 602.147967 68.454241 602.598838 68.786623 602.931221 
C 69.119006 603.263604 69.569877 603.450361 70.039938 603.450361 
z
" clip-path="url(#p8289f78b46)" style="fill: #db5f57; stroke: #db5f57; stroke-width: 0.886227"/>
    <path d="M 70.039938 603.450361 
C 70.509998 603.450361 70.960869 603.263604 71.293252 602.931221 
C 71.625634 602.598838 71.812391 602.147967 71.812391 601.677907 
C 71.812391 601.207846 71.625634 600.756975 71.293252 600.424593 
C 70.960869 600.09221 70.509998 599.905453 70.039938 599.905453 
C 69.569877 599.905453 69.119006 600.09221 68.786623 600.424593 
C 68.454241 600.756975 68.267484 601.207846 68.267484 601.677907 
C 68.267484 602.147967 68.454241 602.598838 68.786623 602.931221 
C 69.119006 603.263604 69.569877 603.450361 70.039938 603.450361 
z
" clip-path="url(#p8289f78b46)" style="fill: #db5f57; stroke: #db5f57; stroke-width: 0.886227"/>
    <path d="M 70.039938 603.450361 
C 70.509998 603.450361 70.960869 603.263604 71.293252 602.931221 
C 71.625634 602.598838 71.812391 602.147967 71.812391 601.677907 
C 71.812391 601.207846 71.625634 600.756975 71.293252 600.424593 
C 70.960869 600.09221 70.509998 599.905453 70.039938 599.905453 
C 69.569877 599.905453 69.119006 600.09221 68.786623 600.424593 
C 68.454241 600.756975 68.267484 601.207846 68.267484 601.677907 
C 68.267484 602.147967 68.454241 602.598838 68.786623 602.931221 
C 69.119006 603.263604 69.569877 603.450361 70.039938 603.450361 
z
" clip-path="url(#p8289f78b46)" style="fill: #db5f57; stroke: #db5f57; stroke-width: 0.886227"/>
    <path d="M 70.039938 603.450361 
C 70.509998 603.450361 70.960869 603.263604 71.293252 602.931221 
C 71.625634 602.598838 71.812391 602.147967 71.812391 601.677907 
C 71.812391 601.207846 71.625634 600.756975 71.293252 600.424593 
C 70.960869 600.09221 70.509998 599.905453 70.039938 599.905453 
C 69.569877 599.905453 69.119006 600.09221 68.786623 600.424593 
C 68.454241 600.756975 68.267484 601.207846 68.267484 601.677907 
C 68.267484 602.147967 68.454241 602.598838 68.786623 602.931221 
C 69.119006 603.263604 69.569877 603.450361 70.039938 603.450361 
z
" clip-path="url(#p8289f78b46)" style="fill: #db5f57; stroke: #db5f57; stroke-width: 0.886227"/>
    <path d="M 70.039938 603.450361 
C 70.509998 603.450361 70.960869 603.263604 71.293252 602.931221 
C 71.625634 602.598838 71.812391 602.147967 71.812391 601.677907 
C 71.812391 601.207846 71.625634 600.756975 71.293252 600.424593 
C 70.960869 600.09221 70.509998 599.905453 70.039938 599.905453 
C 69.569877 599.905453 69.119006 600.09221 68.786623 600.424593 
C 68.454241 600.756975 68.267484 601.207846 68.267484 601.677907 
C 68.267484 602.147967 68.454241 602.598838 68.786623 602.931221 
C 69.119006 603.263604 69.569877 603.450361 70.039938 603.450361 
z
" clip-path="url(#p8289f78b46)" style="fill: #db5f57; stroke: #db5f57; stroke-width: 0.886227"/>
    <path d="M 114.533195 286.189417 
C 115.003255 286.189417 115.454126 286.00266 115.786509 285.670277 
C 116.118892 285.337894 116.305649 284.887023 116.305649 284.416963 
C 116.305649 283.946902 116.118892 283.496031 115.786509 283.163649 
C 115.454126 282.831266 115.003255 282.644509 114.533195 282.644509 
C 114.063134 282.644509 113.612263 282.831266 113.279881 283.163649 
C 112.947498 283.496031 112.760741 283.946902 112.760741 284.416963 
C 112.760741 284.887023 112.947498 285.337894 113.279881 285.670277 
C 113.612263 286.00266 114.063134 286.189417 114.533195 286.189417 
z
" clip-path="url(#p8289f78b46)" style="fill: #57d3db; stroke: #57d3db; stroke-width: 0.886227"/>
    <path d="M 167.532175 533.446273 
C 168.002235 533.446273 168.453106 533.259516 168.785489 532.927133 
C 169.117872 532.59475 169.304629 532.143879 169.304629 531.673819 
C 169.304629 531.203758 169.117872 530.752887 168.785489 530.420505 
C 168.453106 530.088122 168.002235 529.901365 167.532175 529.901365 
C 167.062115 529.901365 166.611244 530.088122 166.278861 530.420505 
C 165.946478 530.752887 165.759721 531.203758 165.759721 531.673819 
C 165.759721 532.143879 165.946478 532.59475 166.278861 532.927133 
C 166.611244 533.259516 167.062115 533.446273 167.532175 533.446273 
z
" clip-path="url(#p8289f78b46)" style="fill: #57d3db; stroke: #57d3db; stroke-width: 0.886227"/>
    <path d="M 216.941172 231.159673 
C 217.411232 231.159673 217.862103 230.972916 218.194486 230.640533 
C 218.526869 230.30815 218.713625 229.857279 218.713625 229.387219 
C 218.713625 228.917158 218.526869 228.466287 218.194486 228.133905 
C 217.862103 227.801522 217.411232 227.614765 216.941172 227.614765 
C 216.471111 227.614765 216.02024 227.801522 215.687857 228.133905 
C 215.355475 228.466287 215.168718 228.917158 215.168718 229.387219 
C 215.168718 229.857279 215.355475 230.30815 215.687857 230.640533 
C 216.02024 230.972916 216.471111 231.159673 216.941172 231.159673 
z
" clip-path="url(#p8289f78b46)" style="fill: #57d3db; stroke: #57d3db; stroke-width: 0.886227"/>
    <path d="M 224.820345 423.347977 
C 225.290405 423.347977 225.741277 423.16122 226.073659 422.828837 
C 226.406042 422.496454 226.592799 422.045583 226.592799 421.575523 
C 226.592799 421.105462 226.406042 420.654591 226.073659 420.322209 
C 225.741277 419.989826 225.290405 419.803069 224.820345 419.803069 
C 224.350285 419.803069 223.899414 419.989826 223.567031 420.322209 
C 223.234648 420.654591 223.047891 421.105462 223.047891 421.575523 
C 223.047891 422.045583 223.234648 422.496454 223.567031 422.828837 
C 223.899414 423.16122 224.350285 423.347977 224.820345 423.347977 
z
" clip-path="url(#p8289f78b46)" style="fill: #db5f57; stroke: #db5f57; stroke-width: 0.886227"/>
    <path d="M 253.818977 509.002777 
C 254.289038 509.002777 254.739909 508.81602 255.072292 508.483637 
C 255.404674 508.151254 255.591431 507.700383 255.591431 507.230323 
C 255.591431 506.760262 255.404674 506.309391 255.072292 505.977009 
C 254.739909 505.644626 254.289038 505.457869 253.818977 505.457869 
C 253.348917 505.457869 252.898046 505.644626 252.565663 505.977009 
C 252.233281 506.309391 252.046524 506.760262 252.046524 507.230323 
C 252.046524 507.700383 252.233281 508.151254 252.565663 508.483637 
C 252.898046 508.81602 253.348917 509.002777 253.818977 509.002777 
z
" clip-path="url(#p8289f78b46)" style="fill: #db5f57; stroke: #db5f57; stroke-width: 0.886227"/>
    <path d="M 303.237531 201.732121 
C 303.707592 201.732121 304.158463 201.545364 304.490846 201.212981 
C 304.823228 200.880598 305.009985 200.429727 305.009985 199.959667 
C 305.009985 199.489606 304.823228 199.038735 304.490846 198.706353 
C 304.158463 198.37397 303.707592 198.187213 303.237531 198.187213 
C 302.767471 198.187213 302.3166 198.37397 301.984217 198.706353 
C 301.651835 199.038735 301.465078 199.489606 301.465078 199.959667 
C 301.465078 200.429727 301.651835 200.880598 301.984217 201.212981 
C 302.3166 201.545364 302.767471 201.732121 303.237531 201.732121 
z
" clip-path="url(#p8289f78b46)" style="fill: #db5f57; stroke: #db5f57; stroke-width: 0.886227"/>
    <path d="M 325.625404 468.149041 
C 326.095464 468.149041 326.546335 467.962284 326.878718 467.629901 
C 327.211101 467.297518 327.397858 466.846647 327.397858 466.376587 
C 327.397858 465.906526 327.211101 465.455655 326.878718 465.123273 
C 326.546335 464.79089 326.095464 464.604133 325.625404 464.604133 
C 325.155343 464.604133 324.704472 464.79089 324.37209 465.123273 
C 324.039707 465.455655 323.85295 465.906526 323.85295 466.376587 
C 323.85295 466.846647 324.039707 467.297518 324.37209 467.629901 
C 324.704472 467.962284 325.155343 468.149041 325.625404 468.149041 
z
" clip-path="url(#p8289f78b46)" style="fill: #db5f57; stroke: #db5f57; stroke-width: 0.886227"/>
    <path d="M 341.87422 420.115825 
C 342.34428 420.115825 342.795151 419.929068 343.127534 419.596685 
C 343.459917 419.264302 343.646674 418.813431 343.646674 418.343371 
C 343.646674 417.87331 343.459917 417.422439 343.127534 417.090057 
C 342.795151 416.757674 342.34428 416.570917 341.87422 416.570917 
C 341.40416 416.570917 340.953289 416.757674 340.620906 417.090057 
C 340.288523 417.422439 340.101766 417.87331 340.101766 418.343371 
C 340.101766 418.813431 340.288523 419.264302 340.620906 419.596685 
C 340.953289 419.929068 341.40416 420.115825 341.87422 420.115825 
z
" clip-path="url(#p8289f78b46)" style="fill: #db5f57; stroke: #db5f57; stroke-width: 0.886227"/>
    <path d="M 500.83495 206.322553 
C 501.30501 206.322553 501.755881 206.135796 502.088264 205.803413 
C 502.420647 205.47103 502.607404 205.020159 502.607404 204.550099 
C 502.607404 204.080038 502.420647 203.629167 502.088264 203.296785 
C 501.755881 202.964402 501.30501 202.777645 500.83495 202.777645 
C 500.36489 202.777645 499.914019 202.964402 499.581636 203.296785 
C 499.249253 203.629167 499.062496 204.080038 499.062496 204.550099 
C 499.062496 205.020159 499.249253 205.47103 499.581636 205.803413 
C 499.914019 206.135796 500.36489 206.322553 500.83495 206.322553 
z
" clip-path="url(#p8289f78b46)" style="fill: #db5f57; stroke: #db5f57; stroke-width: 0.886227"/>
    <path d="M 501.766646 89.671249 
C 502.236706 89.671249 502.687577 89.484492 503.01996 89.152109 
C 503.352343 88.819726 503.5391 88.368855 503.5391 87.898795 
C 503.5391 87.428734 503.352343 86.977863 503.01996 86.645481 
C 502.687577 86.313098 502.236706 86.126341 501.766646 86.126341 
C 501.296586 86.126341 500.845714 86.313098 500.513332 86.645481 
C 500.180949 86.977863 499.994192 87.428734 499.994192 87.898795 
C 499.994192 88.368855 500.180949 88.819726 500.513332 89.152109 
C 500.845714 89.484492 501.296586 89.671249 501.766646 89.671249 
z
" clip-path="url(#p8289f78b46)" style="fill: #db5f57; stroke: #db5f57; stroke-width: 0.886227"/>
    <path d="M 642.207591 398.150497 
C 642.677651 398.150497 643.128522 397.96374 643.460905 397.631357 
C 643.793288 397.298974 643.980045 396.848103 643.980045 396.378043 
C 643.980045 395.907982 643.793288 395.457111 643.460905 395.124729 
C 643.128522 394.792346 642.677651 394.605589 642.207591 394.605589 
C 641.73753 394.605589 641.286659 394.792346 640.954277 395.124729 
C 640.621894 395.457111 640.435137 395.907982 640.435137 396.378043 
C 640.435137 396.848103 640.621894 397.298974 640.954277 397.631357 
C 641.286659 397.96374 641.73753 398.150497 642.207591 398.150497 
z
" clip-path="url(#p8289f78b46)" style="fill: #db5f57; stroke: #db5f57; stroke-width: 0.886227"/>
    <path d="M 683.15175 384.911425 
C 683.62181 384.911425 684.072682 384.724668 684.405064 384.392285 
C 684.737447 384.059902 684.924204 383.609031 684.924204 383.138971 
C 684.924204 382.66891 684.737447 382.218039 684.405064 381.885657 
C 684.072682 381.553274 683.62181 381.366517 683.15175 381.366517 
C 682.68169 381.366517 682.230819 381.553274 681.898436 381.885657 
C 681.566053 382.218039 681.379296 382.66891 681.379296 383.138971 
C 681.379296 383.609031 681.566053 384.059902 681.898436 384.392285 
C 682.230819 384.724668 682.68169 384.911425 683.15175 384.911425 
z
" clip-path="url(#p8289f78b46)" style="fill: #db5f57; stroke: #db5f57; stroke-width: 0.886227"/>
    <path d="M 686.589471 512.567569 
C 687.059531 512.567569 687.510402 512.380812 687.842785 512.048429 
C 688.175168 511.716046 688.361924 511.265175 688.361924 510.795115 
C 688.361924 510.325054 688.175168 509.874183 687.842785 509.541801 
C 687.510402 509.209418 687.059531 509.022661 686.589471 509.022661 
C 686.11941 509.022661 685.668539 509.209418 685.336156 509.541801 
C 685.003774 509.874183 684.817017 510.325054 684.817017 510.795115 
C 684.817017 511.265175 685.003774 511.716046 685.336156 512.048429 
C 685.668539 512.380812 686.11941 512.567569 686.589471 512.567569 
z
" clip-path="url(#p8289f78b46)" style="fill: #db5f57; stroke: #db5f57; stroke-width: 0.886227"/>
    <path d="M 710.987352 202.702321 
C 711.457412 202.702321 711.908283 202.515564 712.240666 202.183181 
C 712.573049 201.850798 712.759806 201.399927 712.759806 200.929867 
C 712.759806 200.459806 712.573049 200.008935 712.240666 199.676553 
C 711.908283 199.34417 711.457412 199.157413 710.987352 199.157413 
C 710.517291 199.157413 710.06642 199.34417 709.734038 199.676553 
C 709.401655 200.008935 709.214898 200.459806 709.214898 200.929867 
C 709.214898 201.399927 709.401655 201.850798 709.734038 202.183181 
C 710.06642 202.515564 710.517291 202.702321 710.987352 202.702321 
z
" clip-path="url(#p8289f78b46)" style="fill: #db5f57; stroke: #db5f57; stroke-width: 0.886227"/>
    <path d="M 731.952288 315.777745 
C 732.422348 315.777745 732.873219 315.590988 733.205602 315.258605 
C 733.537985 314.926222 733.724742 314.475351 733.724742 314.005291 
C 733.724742 313.53523 733.537985 313.084359 733.205602 312.751977 
C 732.873219 312.419594 732.422348 312.232837 731.952288 312.232837 
C 731.482228 312.232837 731.031357 312.419594 730.698974 312.751977 
C 730.366591 313.084359 730.179834 313.53523 730.179834 314.005291 
C 730.179834 314.475351 730.366591 314.926222 730.698974 315.258605 
C 731.031357 315.590988 731.482228 315.777745 731.952288 315.777745 
z
" clip-path="url(#p8289f78b46)" style="fill: #db5f57; stroke: #db5f57; stroke-width: 0.886227"/>
    <path d="M 759.517079 350.122825 
C 759.987139 350.122825 760.438011 349.936068 760.770393 349.603685 
C 761.102776 349.271302 761.289533 348.820431 761.289533 348.350371 
C 761.289533 347.88031 761.102776 347.429439 760.770393 347.097057 
C 760.438011 346.764674 759.987139 346.577917 759.517079 346.577917 
C 759.047019 346.577917 758.596148 346.764674 758.263765 347.097057 
C 757.931382 347.429439 757.744625 347.88031 757.744625 348.350371 
C 757.744625 348.820431 757.931382 349.271302 758.263765 349.603685 
C 758.596148 349.936068 759.047019 350.122825 759.517079 350.122825 
z
" clip-path="url(#p8289f78b46)" style="fill: #db5f57; stroke: #db5f57; stroke-width: 0.886227"/>
    <path d="M 846.924202 442.524673 
C 847.394262 442.524673 847.845134 442.337916 848.177516 442.005533 
C 848.509899 441.67315 848.696656 441.222279 848.696656 440.752219 
C 848.696656 440.282158 848.509899 439.831287 848.177516 439.498905 
C 847.845134 439.166522 847.394262 438.979765 846.924202 438.979765 
C 846.454142 438.979765 846.003271 439.166522 845.670888 439.498905 
C 845.338505 439.831287 845.151748 440.282158 845.151748 440.752219 
C 845.151748 441.222279 845.338505 441.67315 845.670888 442.005533 
C 846.003271 442.337916 846.454142 442.524673 846.924202 442.524673 
z
" clip-path="url(#p8289f78b46)" style="fill: #db5f57; stroke: #db5f57; stroke-width: 0.886227"/>
    <path d="M 857.4849 485.346529 
C 857.954961 485.346529 858.405832 485.159772 858.738214 484.827389 
C 859.070597 484.495006 859.257354 484.044135 859.257354 483.574075 
C 859.257354 483.104014 859.070597 482.653143 858.738214 482.320761 
C 858.405832 481.988378 857.954961 481.801621 857.4849 481.801621 
C 857.01484 481.801621 856.563969 481.988378 856.231586 482.320761 
C 855.899203 482.653143 855.712446 483.104014 855.712446 483.574075 
C 855.712446 484.044135 855.899203 484.495006 856.231586 484.827389 
C 856.563969 485.159772 857.01484 485.346529 857.4849 485.346529 
z
" clip-path="url(#p8289f78b46)" style="fill: #db5f57; stroke: #db5f57; stroke-width: 0.886227"/>
    <path d="M 868.085241 445.845529 
C 868.555301 445.845529 869.006172 445.658772 869.338555 445.326389 
C 869.670938 444.994006 869.857694 444.543135 869.857694 444.073075 
C 869.857694 443.603014 869.670938 443.152143 869.338555 442.819761 
C 869.006172 442.487378 868.555301 442.300621 868.085241 442.300621 
C 867.61518 442.300621 867.164309 442.487378 866.831926 442.819761 
C 866.499544 443.152143 866.312787 443.603014 866.312787 444.073075 
C 866.312787 444.543135 866.499544 444.994006 866.831926 445.326389 
C 867.164309 445.658772 867.61518 445.845529 868.085241 445.845529 
z
" clip-path="url(#p8289f78b46)" style="fill: #db5f57; stroke: #db5f57; stroke-width: 0.886227"/>
    <path d="M 925.737476 530.020081 
C 926.207537 530.020081 926.658408 529.833324 926.99079 529.500941 
C 927.323173 529.168558 927.50993 528.717687 927.50993 528.247627 
C 927.50993 527.777566 927.323173 527.326695 926.99079 526.994313 
C 926.658408 526.66193 926.207537 526.475173 925.737476 526.475173 
C 925.267416 526.475173 924.816545 526.66193 924.484162 526.994313 
C 924.151779 527.326695 923.965022 527.777566 923.965022 528.247627 
C 923.965022 528.717687 924.151779 529.168558 924.484162 529.500941 
C 924.816545 529.833324 925.267416 530.020081 925.737476 530.020081 
z
" clip-path="url(#p8289f78b46)" style="fill: #db5f57; stroke: #db5f57; stroke-width: 0.886227"/>
    <path d="M 941.741193 305.970409 
C 942.211253 305.970409 942.662124 305.783652 942.994507 305.451269 
C 943.32689 305.118886 943.513647 304.668015 943.513647 304.197955 
C 943.513647 303.727894 943.32689 303.277023 942.994507 302.944641 
C 942.662124 302.612258 942.211253 302.425501 941.741193 302.425501 
C 941.271132 302.425501 940.820261 302.612258 940.487879 302.944641 
C 940.155496 303.277023 939.968739 303.727894 939.968739 304.197955 
C 939.968739 304.668015 940.155496 305.118886 940.487879 305.451269 
C 940.820261 305.783652 941.271132 305.970409 941.741193 305.970409 
z
" clip-path="url(#p8289f78b46)" style="fill: #db5f57; stroke: #db5f57; stroke-width: 0.886227"/>
    <path d="M 1032.288286 457.715233 
C 1032.758346 457.715233 1033.209218 457.528476 1033.5416 457.196093 
C 1033.873983 456.86371 1034.06074 456.412839 1034.06074 455.942779 
C 1034.06074 455.472718 1033.873983 455.021847 1033.5416 454.689465 
C 1033.209218 454.357082 1032.758346 454.170325 1032.288286 454.170325 
C 1031.818226 454.170325 1031.367355 454.357082 1031.034972 454.689465 
C 1030.702589 455.021847 1030.515832 455.472718 1030.515832 455.942779 
C 1030.515832 456.412839 1030.702589 456.86371 1031.034972 457.196093 
C 1031.367355 457.528476 1031.818226 457.715233 1032.288286 457.715233 
z
" clip-path="url(#p8289f78b46)" style="fill: #db5f57; stroke: #db5f57; stroke-width: 0.886227"/>
   </g>
   <g id="line2d_31">
    <path d="M 70.039938 601.677907 
L 1032.288286 455.942779 
" clip-path="url(#p8289f78b46)" style="fill: none; stroke: #db5f57; stroke-width: 0.886227"/>
   </g>
   <g id="line2d_32">
    <path d="M 70.039938 601.677907 
L 683.15175 383.138971 
" clip-path="url(#p8289f78b46)" style="fill: none; stroke: #db5f57; stroke-width: 0.886227"/>
   </g>
   <g id="line2d_33">
    <path d="M 70.039938 601.677907 
L 325.625404 466.376587 
" clip-path="url(#p8289f78b46)" style="fill: none; stroke: #db5f57; stroke-width: 0.886227"/>
   </g>
   <g id="line2d_34">
    <path d="M 70.039938 601.677907 
" clip-path="url(#p8289f78b46)" style="fill: none; stroke: #db5f57; stroke-width: 0.886227"/>
   </g>
   <g id="line2d_35">
    <path d="M 70.039938 601.677907 
L 341.87422 418.343371 
" clip-path="url(#p8289f78b46)" style="fill: none; stroke: #db5f57; stroke-width: 0.886227"/>
   </g>
   <g id="line2d_36">
    <path d="M 70.039938 601.677907 
L 710.987352 200.929867 
" clip-path="url(#p8289f78b46)" style="fill: none; stroke: #db5f57; stroke-width: 0.886227"/>
   </g>
   <g id="line2d_37">
    <path d="M 70.039938 601.677907 
L 686.589471 510.795115 
" clip-path="url(#p8289f78b46)" style="fill: none; stroke: #db5f57; stroke-width: 0.886227"/>
   </g>
   <g id="line2d_38">
    <path d="M 70.039938 601.677907 
L 500.83495 204.550099 
" clip-path="url(#p8289f78b46)" style="fill: none; stroke: #db5f57; stroke-width: 0.886227"/>
   </g>
   <g id="line2d_39">
    <path d="M 70.039938 601.677907 
L 925.737476 528.247627 
" clip-path="url(#p8289f78b46)" style="fill: none; stroke: #db5f57; stroke-width: 0.886227"/>
   </g>
   <g id="line2d_40">
    <path d="M 70.039938 601.677907 
L 642.207591 396.378043 
" clip-path="url(#p8289f78b46)" style="fill: none; stroke: #db5f57; stroke-width: 0.886227"/>
   </g>
   <g id="line2d_41">
    <path d="M 70.039938 601.677907 
L 303.237531 199.959667 
" clip-path="url(#p8289f78b46)" style="fill: none; stroke: #db5f57; stroke-width: 0.886227"/>
   </g>
   <g id="line2d_42">
    <path d="M 70.039938 601.677907 
L 501.766646 87.898795 
" clip-path="url(#p8289f78b46)" style="fill: none; stroke: #db5f57; stroke-width: 0.886227"/>
   </g>
   <g id="line2d_43">
    <path d="M 70.039938 601.677907 
L 216.941172 229.387219 
" clip-path="url(#p8289f78b46)" style="fill: none; stroke: #57d3db; stroke-width: 0.886227"/>
   </g>
   <g id="line2d_44">
    <path d="M 70.039938 601.677907 
L 868.085241 444.073075 
" clip-path="url(#p8289f78b46)" style="fill: none; stroke: #db5f57; stroke-width: 0.886227"/>
   </g>
   <g id="line2d_45">
    <path d="M 70.039938 601.677907 
L 857.4849 483.574075 
" clip-path="url(#p8289f78b46)" style="fill: none; stroke: #db5f57; stroke-width: 0.886227"/>
   </g>
   <g id="line2d_46">
    <path d="M 70.039938 601.677907 
L 759.517079 348.350371 
" clip-path="url(#p8289f78b46)" style="fill: none; stroke: #db5f57; stroke-width: 0.886227"/>
   </g>
   <g id="line2d_47">
    <path d="M 70.039938 601.677907 
L 941.741193 304.197955 
" clip-path="url(#p8289f78b46)" style="fill: none; stroke: #db5f57; stroke-width: 0.886227"/>
   </g>
   <g id="line2d_48">
    <path d="M 70.039938 601.677907 
L 731.952288 314.005291 
" clip-path="url(#p8289f78b46)" style="fill: none; stroke: #db5f57; stroke-width: 0.886227"/>
   </g>
   <g id="line2d_49">
    <path d="M 70.039938 601.677907 
L 253.818977 507.230323 
" clip-path="url(#p8289f78b46)" style="fill: none; stroke: #db5f57; stroke-width: 0.886227"/>
   </g>
   <g id="line2d_50">
    <path d="M 70.039938 601.677907 
L 846.924202 440.752219 
" clip-path="url(#p8289f78b46)" style="fill: none; stroke: #db5f57; stroke-width: 0.886227"/>
   </g>
   <g id="line2d_51">
    <path d="M 70.039938 601.677907 
L 167.532175 531.673819 
" clip-path="url(#p8289f78b46)" style="fill: none; stroke: #57d3db; stroke-width: 0.886227"/>
   </g>
   <g id="line2d_52">
    <path d="M 70.039938 601.677907 
L 224.820345 421.575523 
" clip-path="url(#p8289f78b46)" style="fill: none; stroke: #db5f57; stroke-width: 0.886227"/>
   </g>
   <g id="line2d_53">
    <path d="M 70.039938 601.677907 
L 114.533195 284.416963 
" clip-path="url(#p8289f78b46)" style="fill: none; stroke: #57d3db; stroke-width: 0.886227"/>
   </g>
   <g id="patch_3">
    <path d="M 1193.239937 391.141308 
L 1509.076344 391.141308 
L 1509.076344 317.709433 
L 1193.239937 317.709433 
L 1193.239937 391.141308 
z
" style="fill: none"/>
   </g>
   <g id="text_19">
    <!-- town_high.isin(['Swampscott','Salem', 'Marblehead']) -->
    <g transform="translate(1205.439938 341.150058)scale(0.11 -0.11)">
     <defs>
      <path id="DejaVuSans-5f" d="M 3263 -1063 
L 3263 -1509 
L -63 -1509 
L -63 -1063 
L 3263 -1063 
z
" transform="scale(0.015625)"/>
      <path id="DejaVuSans-67" d="M 2906 1791 
Q 2906 2416 2648 2759 
Q 2391 3103 1925 3103 
Q 1463 3103 1205 2759 
Q 947 2416 947 1791 
Q 947 1169 1205 825 
Q 1463 481 1925 481 
Q 2391 481 2648 825 
Q 2906 1169 2906 1791 
z
M 3481 434 
Q 3481 -459 3084 -895 
Q 2688 -1331 1869 -1331 
Q 1566 -1331 1297 -1286 
Q 1028 -1241 775 -1147 
L 775 -588 
Q 1028 -725 1275 -790 
Q 1522 -856 1778 -856 
Q 2344 -856 2625 -561 
Q 2906 -266 2906 331 
L 2906 616 
Q 2728 306 2450 153 
Q 2172 0 1784 0 
Q 1141 0 747 490 
Q 353 981 353 1791 
Q 353 2603 747 3093 
Q 1141 3584 1784 3584 
Q 2172 3584 2450 3431 
Q 2728 3278 2906 2969 
L 2906 3500 
L 3481 3500 
L 3481 434 
z
" transform="scale(0.015625)"/>
      <path id="DejaVuSans-2e" d="M 684 794 
L 1344 794 
L 1344 0 
L 684 0 
L 684 794 
z
" transform="scale(0.015625)"/>
      <path id="DejaVuSans-28" d="M 1984 4856 
Q 1566 4138 1362 3434 
Q 1159 2731 1159 2009 
Q 1159 1288 1364 580 
Q 1569 -128 1984 -844 
L 1484 -844 
Q 1016 -109 783 600 
Q 550 1309 550 2009 
Q 550 2706 781 3412 
Q 1013 4119 1484 4856 
L 1984 4856 
z
" transform="scale(0.015625)"/>
      <path id="DejaVuSans-5b" d="M 550 4863 
L 1875 4863 
L 1875 4416 
L 1125 4416 
L 1125 -397 
L 1875 -397 
L 1875 -844 
L 550 -844 
L 550 4863 
z
" transform="scale(0.015625)"/>
      <path id="DejaVuSans-27" d="M 1147 4666 
L 1147 2931 
L 616 2931 
L 616 4666 
L 1147 4666 
z
" transform="scale(0.015625)"/>
      <path id="DejaVuSans-53" d="M 3425 4513 
L 3425 3897 
Q 3066 4069 2747 4153 
Q 2428 4238 2131 4238 
Q 1616 4238 1336 4038 
Q 1056 3838 1056 3469 
Q 1056 3159 1242 3001 
Q 1428 2844 1947 2747 
L 2328 2669 
Q 3034 2534 3370 2195 
Q 3706 1856 3706 1288 
Q 3706 609 3251 259 
Q 2797 -91 1919 -91 
Q 1588 -91 1214 -16 
Q 841 59 441 206 
L 441 856 
Q 825 641 1194 531 
Q 1563 422 1919 422 
Q 2459 422 2753 634 
Q 3047 847 3047 1241 
Q 3047 1584 2836 1778 
Q 2625 1972 2144 2069 
L 1759 2144 
Q 1053 2284 737 2584 
Q 422 2884 422 3419 
Q 422 4038 858 4394 
Q 1294 4750 2059 4750 
Q 2388 4750 2728 4690 
Q 3069 4631 3425 4513 
z
" transform="scale(0.015625)"/>
      <path id="DejaVuSans-70" d="M 1159 525 
L 1159 -1331 
L 581 -1331 
L 581 3500 
L 1159 3500 
L 1159 2969 
Q 1341 3281 1617 3432 
Q 1894 3584 2278 3584 
Q 2916 3584 3314 3078 
Q 3713 2572 3713 1747 
Q 3713 922 3314 415 
Q 2916 -91 2278 -91 
Q 1894 -91 1617 61 
Q 1341 213 1159 525 
z
M 3116 1747 
Q 3116 2381 2855 2742 
Q 2594 3103 2138 3103 
Q 1681 3103 1420 2742 
Q 1159 2381 1159 1747 
Q 1159 1113 1420 752 
Q 1681 391 2138 391 
Q 2594 391 2855 752 
Q 3116 1113 3116 1747 
z
" transform="scale(0.015625)"/>
      <path id="DejaVuSans-2c" d="M 750 794 
L 1409 794 
L 1409 256 
L 897 -744 
L 494 -744 
L 750 256 
L 750 794 
z
" transform="scale(0.015625)"/>
      <path id="DejaVuSans-4d" d="M 628 4666 
L 1569 4666 
L 2759 1491 
L 3956 4666 
L 4897 4666 
L 4897 0 
L 4281 0 
L 4281 4097 
L 3078 897 
L 2444 897 
L 1241 4097 
L 1241 0 
L 628 0 
L 628 4666 
z
" transform="scale(0.015625)"/>
      <path id="DejaVuSans-72" d="M 2631 2963 
Q 2534 3019 2420 3045 
Q 2306 3072 2169 3072 
Q 1681 3072 1420 2755 
Q 1159 2438 1159 1844 
L 1159 0 
L 581 0 
L 581 3500 
L 1159 3500 
L 1159 2956 
Q 1341 3275 1631 3429 
Q 1922 3584 2338 3584 
Q 2397 3584 2469 3576 
Q 2541 3569 2628 3553 
L 2631 2963 
z
" transform="scale(0.015625)"/>
      <path id="DejaVuSans-5d" d="M 1947 4863 
L 1947 -844 
L 622 -844 
L 622 -397 
L 1369 -397 
L 1369 4416 
L 622 4416 
L 622 4863 
L 1947 4863 
z
" transform="scale(0.015625)"/>
      <path id="DejaVuSans-29" d="M 513 4856 
L 1013 4856 
Q 1481 4119 1714 3412 
Q 1947 2706 1947 2009 
Q 1947 1309 1714 600 
Q 1481 -109 1013 -844 
L 513 -844 
Q 928 -128 1133 580 
Q 1338 1288 1338 2009 
Q 1338 2731 1133 3434 
Q 928 4138 513 4856 
z
" transform="scale(0.015625)"/>
     </defs>
     <use xlink:href="#DejaVuSans-74"/>
     <use xlink:href="#DejaVuSans-6f" x="39.208984"/>
     <use xlink:href="#DejaVuSans-77" x="100.390625"/>
     <use xlink:href="#DejaVuSans-6e" x="182.177734"/>
     <use xlink:href="#DejaVuSans-5f" x="245.556641"/>
     <use xlink:href="#DejaVuSans-68" x="295.556641"/>
     <use xlink:href="#DejaVuSans-69" x="358.935547"/>
     <use xlink:href="#DejaVuSans-67" x="386.71875"/>
     <use xlink:href="#DejaVuSans-68" x="450.195312"/>
     <use xlink:href="#DejaVuSans-2e" x="513.574219"/>
     <use xlink:href="#DejaVuSans-69" x="545.361328"/>
     <use xlink:href="#DejaVuSans-73" x="573.144531"/>
     <use xlink:href="#DejaVuSans-69" x="625.244141"/>
     <use xlink:href="#DejaVuSans-6e" x="653.027344"/>
     <use xlink:href="#DejaVuSans-28" x="716.40625"/>
     <use xlink:href="#DejaVuSans-5b" x="755.419922"/>
     <use xlink:href="#DejaVuSans-27" x="794.433594"/>
     <use xlink:href="#DejaVuSans-53" x="821.923828"/>
     <use xlink:href="#DejaVuSans-77" x="885.400391"/>
     <use xlink:href="#DejaVuSans-61" x="967.1875"/>
     <use xlink:href="#DejaVuSans-6d" x="1028.466797"/>
     <use xlink:href="#DejaVuSans-70" x="1125.878906"/>
     <use xlink:href="#DejaVuSans-73" x="1189.355469"/>
     <use xlink:href="#DejaVuSans-63" x="1241.455078"/>
     <use xlink:href="#DejaVuSans-6f" x="1296.435547"/>
     <use xlink:href="#DejaVuSans-74" x="1357.617188"/>
     <use xlink:href="#DejaVuSans-74" x="1396.826172"/>
     <use xlink:href="#DejaVuSans-27" x="1436.035156"/>
     <use xlink:href="#DejaVuSans-2c" x="1463.525391"/>
     <use xlink:href="#DejaVuSans-27" x="1495.3125"/>
     <use xlink:href="#DejaVuSans-53" x="1522.802734"/>
     <use xlink:href="#DejaVuSans-61" x="1586.279297"/>
     <use xlink:href="#DejaVuSans-6c" x="1647.558594"/>
     <use xlink:href="#DejaVuSans-65" x="1675.341797"/>
     <use xlink:href="#DejaVuSans-6d" x="1736.865234"/>
     <use xlink:href="#DejaVuSans-27" x="1834.277344"/>
     <use xlink:href="#DejaVuSans-2c" x="1861.767578"/>
     <use xlink:href="#DejaVuSans-20" x="1893.554688"/>
     <use xlink:href="#DejaVuSans-27" x="1925.341797"/>
     <use xlink:href="#DejaVuSans-4d" x="1952.832031"/>
     <use xlink:href="#DejaVuSans-61" x="2039.111328"/>
     <use xlink:href="#DejaVuSans-72" x="2100.390625"/>
     <use xlink:href="#DejaVuSans-62" x="2141.503906"/>
     <use xlink:href="#DejaVuSans-6c" x="2204.980469"/>
     <use xlink:href="#DejaVuSans-65" x="2232.763672"/>
     <use xlink:href="#DejaVuSans-68" x="2294.287109"/>
     <use xlink:href="#DejaVuSans-65" x="2357.666016"/>
     <use xlink:href="#DejaVuSans-61" x="2419.189453"/>
     <use xlink:href="#DejaVuSans-64" x="2480.46875"/>
     <use xlink:href="#DejaVuSans-27" x="2543.945312"/>
     <use xlink:href="#DejaVuSans-5d" x="2571.435547"/>
     <use xlink:href="#DejaVuSans-29" x="2610.449219"/>
    </g>
   </g>
   <g id="patch_4">
    <path d="M 1205.439938 361.101308 
L 1221.279937 361.101308 
L 1221.279937 345.261308 
L 1205.439938 345.261308 
L 1205.439938 361.101308 
z
" clip-path="url(#pe67c8124c9)" style="fill: none"/>
   </g>
   <g id="line2d_54">
    <path d="M 1213.359938 353.181308 
" clip-path="url(#pe67c8124c9)" style="fill: none; stroke: #1f77b4; stroke-width: 1.5; stroke-linecap: square"/>
    <defs>
     <path id="m9bfbe3f18d" d="M 0 1.772454 
C 0.47006 1.772454 0.920931 1.585697 1.253314 1.253314 
C 1.585697 0.920931 1.772454 0.47006 1.772454 0 
C 1.772454 -0.47006 1.585697 -0.920931 1.253314 -1.253314 
C 0.920931 -1.585697 0.47006 -1.772454 0 -1.772454 
C -0.47006 -1.772454 -0.920931 -1.585697 -1.253314 -1.253314 
C -1.585697 -0.920931 -1.772454 -0.47006 -1.772454 0 
C -1.772454 0.47006 -1.585697 0.920931 -1.253314 1.253314 
C -0.920931 1.585697 -0.47006 1.772454 0 1.772454 
z
" style="stroke: #db5f57; stroke-width: 0.886227"/>
    </defs>
    <g clip-path="url(#pe67c8124c9)">
     <use xlink:href="#m9bfbe3f18d" x="1213.359938" y="353.181308" style="fill: #db5f57; stroke: #db5f57; stroke-width: 0.886227"/>
    </g>
   </g>
   <g id="line2d_55">
    <path d="M 1205.439938 353.181308 
L 1221.279937 353.181308 
" clip-path="url(#pe67c8124c9)" style="fill: none; stroke: #db5f57; stroke-width: 0.886227"/>
   </g>
   <g id="text_20">
    <!-- False -->
    <g transform="translate(1224.279937 355.609558)scale(0.088 -0.088)">
     <defs>
      <path id="DejaVuSans-46" d="M 628 4666 
L 3309 4666 
L 3309 4134 
L 1259 4134 
L 1259 2759 
L 3109 2759 
L 3109 2228 
L 1259 2228 
L 1259 0 
L 628 0 
L 628 4666 
z
" transform="scale(0.015625)"/>
     </defs>
     <use xlink:href="#DejaVuSans-46"/>
     <use xlink:href="#DejaVuSans-61" x="48.394531"/>
     <use xlink:href="#DejaVuSans-6c" x="109.673828"/>
     <use xlink:href="#DejaVuSans-73" x="137.457031"/>
     <use xlink:href="#DejaVuSans-65" x="189.556641"/>
    </g>
   </g>
   <g id="patch_5">
    <path d="M 1205.439938 378.941308 
L 1221.279937 378.941308 
L 1221.279937 363.101308 
L 1205.439938 363.101308 
L 1205.439938 378.941308 
z
" clip-path="url(#p193daa2c2d)" style="fill: none"/>
   </g>
   <g id="line2d_56">
    <path d="M 1213.359938 371.021308 
" clip-path="url(#p193daa2c2d)" style="fill: none; stroke: #1f77b4; stroke-width: 1.5; stroke-linecap: square"/>
    <defs>
     <path id="m1790a8cefe" d="M 0 1.772454 
C 0.47006 1.772454 0.920931 1.585697 1.253314 1.253314 
C 1.585697 0.920931 1.772454 0.47006 1.772454 0 
C 1.772454 -0.47006 1.585697 -0.920931 1.253314 -1.253314 
C 0.920931 -1.585697 0.47006 -1.772454 0 -1.772454 
C -0.47006 -1.772454 -0.920931 -1.585697 -1.253314 -1.253314 
C -1.585697 -0.920931 -1.772454 -0.47006 -1.772454 0 
C -1.772454 0.47006 -1.585697 0.920931 -1.253314 1.253314 
C -0.920931 1.585697 -0.47006 1.772454 0 1.772454 
z
" style="stroke: #57d3db; stroke-width: 0.886227"/>
    </defs>
    <g clip-path="url(#p193daa2c2d)">
     <use xlink:href="#m1790a8cefe" x="1213.359938" y="371.021308" style="fill: #57d3db; stroke: #57d3db; stroke-width: 0.886227"/>
    </g>
   </g>
   <g id="line2d_57">
    <path d="M 1205.439938 371.021308 
L 1221.279937 371.021308 
" clip-path="url(#p193daa2c2d)" style="fill: none; stroke: #57d3db; stroke-width: 0.886227"/>
   </g>
   <g id="text_21">
    <!-- True -->
    <g transform="translate(1224.279937 373.449558)scale(0.088 -0.088)">
     <defs>
      <path id="DejaVuSans-54" d="M -19 4666 
L 3928 4666 
L 3928 4134 
L 2272 4134 
L 2272 0 
L 1638 0 
L 1638 4134 
L -19 4134 
L -19 4666 
z
" transform="scale(0.015625)"/>
     </defs>
     <use xlink:href="#DejaVuSans-54"/>
     <use xlink:href="#DejaVuSans-72" x="46.333984"/>
     <use xlink:href="#DejaVuSans-75" x="87.447266"/>
     <use xlink:href="#DejaVuSans-65" x="150.826172"/>
    </g>
   </g>
  </g>
  <g id="text_22">
   <!-- Lawrence Distance to Other School Districts -->
   <g transform="translate(464.655344 17.229937)scale(0.132 -0.132)">
    <defs>
     <path id="DejaVuSans-4c" d="M 628 4666 
L 1259 4666 
L 1259 531 
L 3531 531 
L 3531 0 
L 628 0 
L 628 4666 
z
" transform="scale(0.015625)"/>
     <path id="DejaVuSans-44" d="M 1259 4147 
L 1259 519 
L 2022 519 
Q 2988 519 3436 956 
Q 3884 1394 3884 2338 
Q 3884 3275 3436 3711 
Q 2988 4147 2022 4147 
L 1259 4147 
z
M 628 4666 
L 1925 4666 
Q 3281 4666 3915 4102 
Q 4550 3538 4550 2338 
Q 4550 1131 3912 565 
Q 3275 0 1925 0 
L 628 0 
L 628 4666 
z
" transform="scale(0.015625)"/>
     <path id="DejaVuSans-4f" d="M 2522 4238 
Q 1834 4238 1429 3725 
Q 1025 3213 1025 2328 
Q 1025 1447 1429 934 
Q 1834 422 2522 422 
Q 3209 422 3611 934 
Q 4013 1447 4013 2328 
Q 4013 3213 3611 3725 
Q 3209 4238 2522 4238 
z
M 2522 4750 
Q 3503 4750 4090 4092 
Q 4678 3434 4678 2328 
Q 4678 1225 4090 567 
Q 3503 -91 2522 -91 
Q 1538 -91 948 565 
Q 359 1222 359 2328 
Q 359 3434 948 4092 
Q 1538 4750 2522 4750 
z
" transform="scale(0.015625)"/>
    </defs>
    <use xlink:href="#DejaVuSans-4c"/>
    <use xlink:href="#DejaVuSans-61" x="55.712891"/>
    <use xlink:href="#DejaVuSans-77" x="116.992188"/>
    <use xlink:href="#DejaVuSans-72" x="198.779297"/>
    <use xlink:href="#DejaVuSans-65" x="237.642578"/>
    <use xlink:href="#DejaVuSans-6e" x="299.166016"/>
    <use xlink:href="#DejaVuSans-63" x="362.544922"/>
    <use xlink:href="#DejaVuSans-65" x="417.525391"/>
    <use xlink:href="#DejaVuSans-20" x="479.048828"/>
    <use xlink:href="#DejaVuSans-44" x="510.835938"/>
    <use xlink:href="#DejaVuSans-69" x="587.837891"/>
    <use xlink:href="#DejaVuSans-73" x="615.621094"/>
    <use xlink:href="#DejaVuSans-74" x="667.720703"/>
    <use xlink:href="#DejaVuSans-61" x="706.929688"/>
    <use xlink:href="#DejaVuSans-6e" x="768.208984"/>
    <use xlink:href="#DejaVuSans-63" x="831.587891"/>
    <use xlink:href="#DejaVuSans-65" x="886.568359"/>
    <use xlink:href="#DejaVuSans-20" x="948.091797"/>
    <use xlink:href="#DejaVuSans-74" x="979.878906"/>
    <use xlink:href="#DejaVuSans-6f" x="1019.087891"/>
    <use xlink:href="#DejaVuSans-20" x="1080.269531"/>
    <use xlink:href="#DejaVuSans-4f" x="1112.056641"/>
    <use xlink:href="#DejaVuSans-74" x="1190.767578"/>
    <use xlink:href="#DejaVuSans-68" x="1229.976562"/>
    <use xlink:href="#DejaVuSans-65" x="1293.355469"/>
    <use xlink:href="#DejaVuSans-72" x="1354.878906"/>
    <use xlink:href="#DejaVuSans-20" x="1395.992188"/>
    <use xlink:href="#DejaVuSans-53" x="1427.779297"/>
    <use xlink:href="#DejaVuSans-63" x="1491.255859"/>
    <use xlink:href="#DejaVuSans-68" x="1546.236328"/>
    <use xlink:href="#DejaVuSans-6f" x="1609.615234"/>
    <use xlink:href="#DejaVuSans-6f" x="1670.796875"/>
    <use xlink:href="#DejaVuSans-6c" x="1731.978516"/>
    <use xlink:href="#DejaVuSans-20" x="1759.761719"/>
    <use xlink:href="#DejaVuSans-44" x="1791.548828"/>
    <use xlink:href="#DejaVuSans-69" x="1868.550781"/>
    <use xlink:href="#DejaVuSans-73" x="1896.333984"/>
    <use xlink:href="#DejaVuSans-74" x="1948.433594"/>
    <use xlink:href="#DejaVuSans-72" x="1987.642578"/>
    <use xlink:href="#DejaVuSans-69" x="2028.755859"/>
    <use xlink:href="#DejaVuSans-63" x="2056.539062"/>
    <use xlink:href="#DejaVuSans-74" x="2111.519531"/>
    <use xlink:href="#DejaVuSans-73" x="2150.728516"/>
   </g>
  </g>
 </g>
 <defs>
  <clipPath id="p8289f78b46">
   <rect x="70.039938" y="26.105371" width="1116" height="665.28"/>
  </clipPath>
  <clipPath id="pe67c8124c9">
   <path d="M 1205.439938 361.101308 
L 1205.439938 345.261308 
L 1221.279937 345.261308 
L 1221.279937 361.101308 
"/>
  </clipPath>
  <clipPath id="p193daa2c2d">
   <path d="M 1205.439938 378.941308 
L 1205.439938 363.101308 
L 1221.279937 363.101308 
L 1221.279937 378.941308 
"/>
  </clipPath>
 </defs>
</svg>
