<?xml version="1.0" encoding="utf-8" standalone="no"?>
<!DOCTYPE svg PUBLIC "-//W3C//DTD SVG 1.1//EN"
  "http://www.w3.org/Graphics/SVG/1.1/DTD/svg11.dtd">
<svg xmlns:xlink="http://www.w3.org/1999/xlink" width="748.7115pt" height="337.180058pt" viewBox="0 0 748.7115 337.180058" xmlns="http://www.w3.org/2000/svg" version="1.1">
 <metadata>
  <rdf:RDF xmlns:dc="http://purl.org/dc/elements/1.1/" xmlns:cc="http://creativecommons.org/ns#" xmlns:rdf="http://www.w3.org/1999/02/22-rdf-syntax-ns#">
   <cc:Work>
    <dc:type rdf:resource="http://purl.org/dc/dcmitype/StillImage"/>
    <dc:date>2022-01-30T14:12:08.358009</dc:date>
    <dc:format>image/svg+xml</dc:format>
    <dc:creator>
     <cc:Agent>
      <dc:title>Matplotlib v3.5.0, https://matplotlib.org/</dc:title>
     </cc:Agent>
    </dc:creator>
   </cc:Work>
  </rdf:RDF>
 </metadata>
 <defs>
  <style type="text/css">*{stroke-linejoin: round; stroke-linecap: butt}</style>
 </defs>
 <g id="figure_1">
  <g id="patch_1">
   <path d="M 0 337.180058 
L 748.7115 337.180058 
L 748.7115 0 
L 0 0 
L 0 337.180058 
z
" style="fill: none"/>
  </g>
  <g id="axes_1">
   <g id="patch_2">
    <path d="M 70.039938 292.217371 
L 427.159938 292.217371 
L 427.159938 26.105371 
L 70.039938 26.105371 
L 70.039938 292.217371 
z
" style="fill: none"/>
   </g>
   <g id="matplotlib.axis_1">
    <g id="xtick_1">
     <g id="line2d_1">
      <path d="M 70.039938 292.217371 
L 70.039938 26.105371 
" clip-path="url(#p9cc696df84)" style="fill: none; stroke: #e5e5e5; stroke-width: 0.8"/>
     </g>
     <g id="text_1">
      <!-- 0 -->
      <g style="fill: #4d4d4d" transform="translate(67.240438 313.103996)scale(0.088 -0.088)">
       <defs>
        <path id="DejaVuSans-30" d="M 2034 4250 
Q 1547 4250 1301 3770 
Q 1056 3291 1056 2328 
Q 1056 1369 1301 889 
Q 1547 409 2034 409 
Q 2525 409 2770 889 
Q 3016 1369 3016 2328 
Q 3016 3291 2770 3770 
Q 2525 4250 2034 4250 
z
M 2034 4750 
Q 2819 4750 3233 4129 
Q 3647 3509 3647 2328 
Q 3647 1150 3233 529 
Q 2819 -91 2034 -91 
Q 1250 -91 836 529 
Q 422 1150 422 2328 
Q 422 3509 836 4129 
Q 1250 4750 2034 4750 
z
" transform="scale(0.015625)"/>
       </defs>
       <use xlink:href="#DejaVuSans-30"/>
      </g>
     </g>
    </g>
    <g id="xtick_2">
     <g id="line2d_2">
      <path d="M 189.079937 292.217371 
L 189.079937 26.105371 
" clip-path="url(#p9cc696df84)" style="fill: none; stroke: #e5e5e5; stroke-width: 0.8"/>
     </g>
     <g id="text_2">
      <!-- 10 -->
      <g style="fill: #4d4d4d" transform="translate(183.480938 313.103996)scale(0.088 -0.088)">
       <defs>
        <path id="DejaVuSans-31" d="M 794 531 
L 1825 531 
L 1825 4091 
L 703 3866 
L 703 4441 
L 1819 4666 
L 2450 4666 
L 2450 531 
L 3481 531 
L 3481 0 
L 794 0 
L 794 531 
z
" transform="scale(0.015625)"/>
       </defs>
       <use xlink:href="#DejaVuSans-31"/>
       <use xlink:href="#DejaVuSans-30" x="63.623047"/>
      </g>
     </g>
    </g>
    <g id="xtick_3">
     <g id="line2d_3">
      <path d="M 308.119937 292.217371 
L 308.119937 26.105371 
" clip-path="url(#p9cc696df84)" style="fill: none; stroke: #e5e5e5; stroke-width: 0.8"/>
     </g>
     <g id="text_3">
      <!-- 20 -->
      <g style="fill: #4d4d4d" transform="translate(302.520938 313.103996)scale(0.088 -0.088)">
       <defs>
        <path id="DejaVuSans-32" d="M 1228 531 
L 3431 531 
L 3431 0 
L 469 0 
L 469 531 
Q 828 903 1448 1529 
Q 2069 2156 2228 2338 
Q 2531 2678 2651 2914 
Q 2772 3150 2772 3378 
Q 2772 3750 2511 3984 
Q 2250 4219 1831 4219 
Q 1534 4219 1204 4116 
Q 875 4013 500 3803 
L 500 4441 
Q 881 4594 1212 4672 
Q 1544 4750 1819 4750 
Q 2544 4750 2975 4387 
Q 3406 4025 3406 3419 
Q 3406 3131 3298 2873 
Q 3191 2616 2906 2266 
Q 2828 2175 2409 1742 
Q 1991 1309 1228 531 
z
" transform="scale(0.015625)"/>
       </defs>
       <use xlink:href="#DejaVuSans-32"/>
       <use xlink:href="#DejaVuSans-30" x="63.623047"/>
      </g>
     </g>
    </g>
    <g id="xtick_4">
     <g id="line2d_4">
      <path d="M 427.159938 292.217371 
L 427.159938 26.105371 
" clip-path="url(#p9cc696df84)" style="fill: none; stroke: #e5e5e5; stroke-width: 0.8"/>
     </g>
     <g id="text_4">
      <!-- 30 -->
      <g style="fill: #4d4d4d" transform="translate(421.560938 313.103996)scale(0.088 -0.088)">
       <defs>
        <path id="DejaVuSans-33" d="M 2597 2516 
Q 3050 2419 3304 2112 
Q 3559 1806 3559 1356 
Q 3559 666 3084 287 
Q 2609 -91 1734 -91 
Q 1441 -91 1130 -33 
Q 819 25 488 141 
L 488 750 
Q 750 597 1062 519 
Q 1375 441 1716 441 
Q 2309 441 2620 675 
Q 2931 909 2931 1356 
Q 2931 1769 2642 2001 
Q 2353 2234 1838 2234 
L 1294 2234 
L 1294 2753 
L 1863 2753 
Q 2328 2753 2575 2939 
Q 2822 3125 2822 3475 
Q 2822 3834 2567 4026 
Q 2313 4219 1838 4219 
Q 1578 4219 1281 4162 
Q 984 4106 628 3988 
L 628 4550 
Q 988 4650 1302 4700 
Q 1616 4750 1894 4750 
Q 2613 4750 3031 4423 
Q 3450 4097 3450 3541 
Q 3450 3153 3228 2886 
Q 3006 2619 2597 2516 
z
" transform="scale(0.015625)"/>
       </defs>
       <use xlink:href="#DejaVuSans-33"/>
       <use xlink:href="#DejaVuSans-30" x="63.623047"/>
      </g>
     </g>
    </g>
    <g id="xtick_5">
     <g id="line2d_5">
      <path d="M 129.559937 292.217371 
L 129.559937 26.105371 
" clip-path="url(#p9cc696df84)" style="fill: none; stroke: #fafafa"/>
     </g>
    </g>
    <g id="xtick_6">
     <g id="line2d_6">
      <path d="M 248.599938 292.217371 
L 248.599938 26.105371 
" clip-path="url(#p9cc696df84)" style="fill: none; stroke: #fafafa"/>
     </g>
    </g>
    <g id="xtick_7">
     <g id="line2d_7">
      <path d="M 367.639938 292.217371 
L 367.639938 26.105371 
" clip-path="url(#p9cc696df84)" style="fill: none; stroke: #fafafa"/>
     </g>
    </g>
    <g id="text_5">
     <!-- distance between schools -->
     <g transform="translate(171.755875 327.692402)scale(0.11 -0.11)">
      <defs>
       <path id="DejaVuSans-64" d="M 2906 2969 
L 2906 4863 
L 3481 4863 
L 3481 0 
L 2906 0 
L 2906 525 
Q 2725 213 2448 61 
Q 2172 -91 1784 -91 
Q 1150 -91 751 415 
Q 353 922 353 1747 
Q 353 2572 751 3078 
Q 1150 3584 1784 3584 
Q 2172 3584 2448 3432 
Q 2725 3281 2906 2969 
z
M 947 1747 
Q 947 1113 1208 752 
Q 1469 391 1925 391 
Q 2381 391 2643 752 
Q 2906 1113 2906 1747 
Q 2906 2381 2643 2742 
Q 2381 3103 1925 3103 
Q 1469 3103 1208 2742 
Q 947 2381 947 1747 
z
" transform="scale(0.015625)"/>
       <path id="DejaVuSans-69" d="M 603 3500 
L 1178 3500 
L 1178 0 
L 603 0 
L 603 3500 
z
M 603 4863 
L 1178 4863 
L 1178 4134 
L 603 4134 
L 603 4863 
z
" transform="scale(0.015625)"/>
       <path id="DejaVuSans-73" d="M 2834 3397 
L 2834 2853 
Q 2591 2978 2328 3040 
Q 2066 3103 1784 3103 
Q 1356 3103 1142 2972 
Q 928 2841 928 2578 
Q 928 2378 1081 2264 
Q 1234 2150 1697 2047 
L 1894 2003 
Q 2506 1872 2764 1633 
Q 3022 1394 3022 966 
Q 3022 478 2636 193 
Q 2250 -91 1575 -91 
Q 1294 -91 989 -36 
Q 684 19 347 128 
L 347 722 
Q 666 556 975 473 
Q 1284 391 1588 391 
Q 1994 391 2212 530 
Q 2431 669 2431 922 
Q 2431 1156 2273 1281 
Q 2116 1406 1581 1522 
L 1381 1569 
Q 847 1681 609 1914 
Q 372 2147 372 2553 
Q 372 3047 722 3315 
Q 1072 3584 1716 3584 
Q 2034 3584 2315 3537 
Q 2597 3491 2834 3397 
z
" transform="scale(0.015625)"/>
       <path id="DejaVuSans-74" d="M 1172 4494 
L 1172 3500 
L 2356 3500 
L 2356 3053 
L 1172 3053 
L 1172 1153 
Q 1172 725 1289 603 
Q 1406 481 1766 481 
L 2356 481 
L 2356 0 
L 1766 0 
Q 1100 0 847 248 
Q 594 497 594 1153 
L 594 3053 
L 172 3053 
L 172 3500 
L 594 3500 
L 594 4494 
L 1172 4494 
z
" transform="scale(0.015625)"/>
       <path id="DejaVuSans-61" d="M 2194 1759 
Q 1497 1759 1228 1600 
Q 959 1441 959 1056 
Q 959 750 1161 570 
Q 1363 391 1709 391 
Q 2188 391 2477 730 
Q 2766 1069 2766 1631 
L 2766 1759 
L 2194 1759 
z
M 3341 1997 
L 3341 0 
L 2766 0 
L 2766 531 
Q 2569 213 2275 61 
Q 1981 -91 1556 -91 
Q 1019 -91 701 211 
Q 384 513 384 1019 
Q 384 1609 779 1909 
Q 1175 2209 1959 2209 
L 2766 2209 
L 2766 2266 
Q 2766 2663 2505 2880 
Q 2244 3097 1772 3097 
Q 1472 3097 1187 3025 
Q 903 2953 641 2809 
L 641 3341 
Q 956 3463 1253 3523 
Q 1550 3584 1831 3584 
Q 2591 3584 2966 3190 
Q 3341 2797 3341 1997 
z
" transform="scale(0.015625)"/>
       <path id="DejaVuSans-6e" d="M 3513 2113 
L 3513 0 
L 2938 0 
L 2938 2094 
Q 2938 2591 2744 2837 
Q 2550 3084 2163 3084 
Q 1697 3084 1428 2787 
Q 1159 2491 1159 1978 
L 1159 0 
L 581 0 
L 581 3500 
L 1159 3500 
L 1159 2956 
Q 1366 3272 1645 3428 
Q 1925 3584 2291 3584 
Q 2894 3584 3203 3211 
Q 3513 2838 3513 2113 
z
" transform="scale(0.015625)"/>
       <path id="DejaVuSans-63" d="M 3122 3366 
L 3122 2828 
Q 2878 2963 2633 3030 
Q 2388 3097 2138 3097 
Q 1578 3097 1268 2742 
Q 959 2388 959 1747 
Q 959 1106 1268 751 
Q 1578 397 2138 397 
Q 2388 397 2633 464 
Q 2878 531 3122 666 
L 3122 134 
Q 2881 22 2623 -34 
Q 2366 -91 2075 -91 
Q 1284 -91 818 406 
Q 353 903 353 1747 
Q 353 2603 823 3093 
Q 1294 3584 2113 3584 
Q 2378 3584 2631 3529 
Q 2884 3475 3122 3366 
z
" transform="scale(0.015625)"/>
       <path id="DejaVuSans-65" d="M 3597 1894 
L 3597 1613 
L 953 1613 
Q 991 1019 1311 708 
Q 1631 397 2203 397 
Q 2534 397 2845 478 
Q 3156 559 3463 722 
L 3463 178 
Q 3153 47 2828 -22 
Q 2503 -91 2169 -91 
Q 1331 -91 842 396 
Q 353 884 353 1716 
Q 353 2575 817 3079 
Q 1281 3584 2069 3584 
Q 2775 3584 3186 3129 
Q 3597 2675 3597 1894 
z
M 3022 2063 
Q 3016 2534 2758 2815 
Q 2500 3097 2075 3097 
Q 1594 3097 1305 2825 
Q 1016 2553 972 2059 
L 3022 2063 
z
" transform="scale(0.015625)"/>
       <path id="DejaVuSans-20" transform="scale(0.015625)"/>
       <path id="DejaVuSans-62" d="M 3116 1747 
Q 3116 2381 2855 2742 
Q 2594 3103 2138 3103 
Q 1681 3103 1420 2742 
Q 1159 2381 1159 1747 
Q 1159 1113 1420 752 
Q 1681 391 2138 391 
Q 2594 391 2855 752 
Q 3116 1113 3116 1747 
z
M 1159 2969 
Q 1341 3281 1617 3432 
Q 1894 3584 2278 3584 
Q 2916 3584 3314 3078 
Q 3713 2572 3713 1747 
Q 3713 922 3314 415 
Q 2916 -91 2278 -91 
Q 1894 -91 1617 61 
Q 1341 213 1159 525 
L 1159 0 
L 581 0 
L 581 4863 
L 1159 4863 
L 1159 2969 
z
" transform="scale(0.015625)"/>
       <path id="DejaVuSans-77" d="M 269 3500 
L 844 3500 
L 1563 769 
L 2278 3500 
L 2956 3500 
L 3675 769 
L 4391 3500 
L 4966 3500 
L 4050 0 
L 3372 0 
L 2619 2869 
L 1863 0 
L 1184 0 
L 269 3500 
z
" transform="scale(0.015625)"/>
       <path id="DejaVuSans-68" d="M 3513 2113 
L 3513 0 
L 2938 0 
L 2938 2094 
Q 2938 2591 2744 2837 
Q 2550 3084 2163 3084 
Q 1697 3084 1428 2787 
Q 1159 2491 1159 1978 
L 1159 0 
L 581 0 
L 581 4863 
L 1159 4863 
L 1159 2956 
Q 1366 3272 1645 3428 
Q 1925 3584 2291 3584 
Q 2894 3584 3203 3211 
Q 3513 2838 3513 2113 
z
" transform="scale(0.015625)"/>
       <path id="DejaVuSans-6f" d="M 1959 3097 
Q 1497 3097 1228 2736 
Q 959 2375 959 1747 
Q 959 1119 1226 758 
Q 1494 397 1959 397 
Q 2419 397 2687 759 
Q 2956 1122 2956 1747 
Q 2956 2369 2687 2733 
Q 2419 3097 1959 3097 
z
M 1959 3584 
Q 2709 3584 3137 3096 
Q 3566 2609 3566 1747 
Q 3566 888 3137 398 
Q 2709 -91 1959 -91 
Q 1206 -91 779 398 
Q 353 888 353 1747 
Q 353 2609 779 3096 
Q 1206 3584 1959 3584 
z
" transform="scale(0.015625)"/>
       <path id="DejaVuSans-6c" d="M 603 4863 
L 1178 4863 
L 1178 0 
L 603 0 
L 603 4863 
z
" transform="scale(0.015625)"/>
      </defs>
      <use xlink:href="#DejaVuSans-64"/>
      <use xlink:href="#DejaVuSans-69" x="63.476562"/>
      <use xlink:href="#DejaVuSans-73" x="91.259766"/>
      <use xlink:href="#DejaVuSans-74" x="143.359375"/>
      <use xlink:href="#DejaVuSans-61" x="182.568359"/>
      <use xlink:href="#DejaVuSans-6e" x="243.847656"/>
      <use xlink:href="#DejaVuSans-63" x="307.226562"/>
      <use xlink:href="#DejaVuSans-65" x="362.207031"/>
      <use xlink:href="#DejaVuSans-20" x="423.730469"/>
      <use xlink:href="#DejaVuSans-62" x="455.517578"/>
      <use xlink:href="#DejaVuSans-65" x="518.994141"/>
      <use xlink:href="#DejaVuSans-74" x="580.517578"/>
      <use xlink:href="#DejaVuSans-77" x="619.726562"/>
      <use xlink:href="#DejaVuSans-65" x="701.513672"/>
      <use xlink:href="#DejaVuSans-65" x="763.037109"/>
      <use xlink:href="#DejaVuSans-6e" x="824.560547"/>
      <use xlink:href="#DejaVuSans-20" x="887.939453"/>
      <use xlink:href="#DejaVuSans-73" x="919.726562"/>
      <use xlink:href="#DejaVuSans-63" x="971.826172"/>
      <use xlink:href="#DejaVuSans-68" x="1026.806641"/>
      <use xlink:href="#DejaVuSans-6f" x="1090.185547"/>
      <use xlink:href="#DejaVuSans-6f" x="1151.367188"/>
      <use xlink:href="#DejaVuSans-6c" x="1212.548828"/>
      <use xlink:href="#DejaVuSans-73" x="1240.332031"/>
     </g>
    </g>
   </g>
   <g id="matplotlib.axis_2">
    <g id="ytick_1">
     <g id="line2d_8">
      <path d="M 70.039938 292.217371 
L 427.159938 292.217371 
" clip-path="url(#p9cc696df84)" style="fill: none; stroke: #e5e5e5; stroke-width: 0.8"/>
     </g>
     <g id="text_6">
      <!-- 0 -->
      <g style="fill: #4d4d4d" transform="translate(50.240938 294.645621)scale(0.088 -0.088)">
       <use xlink:href="#DejaVuSans-30"/>
      </g>
     </g>
    </g>
    <g id="ytick_2">
     <g id="line2d_9">
      <path d="M 70.039938 203.513371 
L 427.159938 203.513371 
" clip-path="url(#p9cc696df84)" style="fill: none; stroke: #e5e5e5; stroke-width: 0.8"/>
     </g>
     <g id="text_7">
      <!-- 50000 -->
      <g style="fill: #4d4d4d" transform="translate(27.844938 205.941621)scale(0.088 -0.088)">
       <defs>
        <path id="DejaVuSans-35" d="M 691 4666 
L 3169 4666 
L 3169 4134 
L 1269 4134 
L 1269 2991 
Q 1406 3038 1543 3061 
Q 1681 3084 1819 3084 
Q 2600 3084 3056 2656 
Q 3513 2228 3513 1497 
Q 3513 744 3044 326 
Q 2575 -91 1722 -91 
Q 1428 -91 1123 -41 
Q 819 9 494 109 
L 494 744 
Q 775 591 1075 516 
Q 1375 441 1709 441 
Q 2250 441 2565 725 
Q 2881 1009 2881 1497 
Q 2881 1984 2565 2268 
Q 2250 2553 1709 2553 
Q 1456 2553 1204 2497 
Q 953 2441 691 2322 
L 691 4666 
z
" transform="scale(0.015625)"/>
       </defs>
       <use xlink:href="#DejaVuSans-35"/>
       <use xlink:href="#DejaVuSans-30" x="63.623047"/>
       <use xlink:href="#DejaVuSans-30" x="127.246094"/>
       <use xlink:href="#DejaVuSans-30" x="190.869141"/>
       <use xlink:href="#DejaVuSans-30" x="254.492188"/>
      </g>
     </g>
    </g>
    <g id="ytick_3">
     <g id="line2d_10">
      <path d="M 70.039938 114.809371 
L 427.159938 114.809371 
" clip-path="url(#p9cc696df84)" style="fill: none; stroke: #e5e5e5; stroke-width: 0.8"/>
     </g>
     <g id="text_8">
      <!-- 100000 -->
      <g style="fill: #4d4d4d" transform="translate(22.245938 117.237621)scale(0.088 -0.088)">
       <use xlink:href="#DejaVuSans-31"/>
       <use xlink:href="#DejaVuSans-30" x="63.623047"/>
       <use xlink:href="#DejaVuSans-30" x="127.246094"/>
       <use xlink:href="#DejaVuSans-30" x="190.869141"/>
       <use xlink:href="#DejaVuSans-30" x="254.492188"/>
       <use xlink:href="#DejaVuSans-30" x="318.115234"/>
      </g>
     </g>
    </g>
    <g id="ytick_4">
     <g id="line2d_11">
      <path d="M 70.039938 26.105371 
L 427.159938 26.105371 
" clip-path="url(#p9cc696df84)" style="fill: none; stroke: #e5e5e5; stroke-width: 0.8"/>
     </g>
     <g id="text_9">
      <!-- 150000 -->
      <g style="fill: #4d4d4d" transform="translate(22.245938 28.533621)scale(0.088 -0.088)">
       <use xlink:href="#DejaVuSans-31"/>
       <use xlink:href="#DejaVuSans-35" x="63.623047"/>
       <use xlink:href="#DejaVuSans-30" x="127.246094"/>
       <use xlink:href="#DejaVuSans-30" x="190.869141"/>
       <use xlink:href="#DejaVuSans-30" x="254.492188"/>
       <use xlink:href="#DejaVuSans-30" x="318.115234"/>
      </g>
     </g>
    </g>
    <g id="ytick_5">
     <g id="line2d_12">
      <path d="M 70.039938 247.865371 
L 427.159938 247.865371 
" clip-path="url(#p9cc696df84)" style="fill: none; stroke: #fafafa"/>
     </g>
    </g>
    <g id="ytick_6">
     <g id="line2d_13">
      <path d="M 70.039938 159.161371 
L 427.159938 159.161371 
" clip-path="url(#p9cc696df84)" style="fill: none; stroke: #fafafa"/>
     </g>
    </g>
    <g id="ytick_7">
     <g id="line2d_14">
      <path d="M 70.039938 70.457371 
L 427.159938 70.457371 
" clip-path="url(#p9cc696df84)" style="fill: none; stroke: #fafafa"/>
     </g>
    </g>
    <g id="text_10">
     <!-- median household income -->
     <g transform="translate(15.558281 230.147668)rotate(-90)scale(0.11 -0.11)">
      <defs>
       <path id="DejaVuSans-6d" d="M 3328 2828 
Q 3544 3216 3844 3400 
Q 4144 3584 4550 3584 
Q 5097 3584 5394 3201 
Q 5691 2819 5691 2113 
L 5691 0 
L 5113 0 
L 5113 2094 
Q 5113 2597 4934 2840 
Q 4756 3084 4391 3084 
Q 3944 3084 3684 2787 
Q 3425 2491 3425 1978 
L 3425 0 
L 2847 0 
L 2847 2094 
Q 2847 2600 2669 2842 
Q 2491 3084 2119 3084 
Q 1678 3084 1418 2786 
Q 1159 2488 1159 1978 
L 1159 0 
L 581 0 
L 581 3500 
L 1159 3500 
L 1159 2956 
Q 1356 3278 1631 3431 
Q 1906 3584 2284 3584 
Q 2666 3584 2933 3390 
Q 3200 3197 3328 2828 
z
" transform="scale(0.015625)"/>
       <path id="DejaVuSans-75" d="M 544 1381 
L 544 3500 
L 1119 3500 
L 1119 1403 
Q 1119 906 1312 657 
Q 1506 409 1894 409 
Q 2359 409 2629 706 
Q 2900 1003 2900 1516 
L 2900 3500 
L 3475 3500 
L 3475 0 
L 2900 0 
L 2900 538 
Q 2691 219 2414 64 
Q 2138 -91 1772 -91 
Q 1169 -91 856 284 
Q 544 659 544 1381 
z
M 1991 3584 
L 1991 3584 
z
" transform="scale(0.015625)"/>
      </defs>
      <use xlink:href="#DejaVuSans-6d"/>
      <use xlink:href="#DejaVuSans-65" x="97.412109"/>
      <use xlink:href="#DejaVuSans-64" x="158.935547"/>
      <use xlink:href="#DejaVuSans-69" x="222.412109"/>
      <use xlink:href="#DejaVuSans-61" x="250.195312"/>
      <use xlink:href="#DejaVuSans-6e" x="311.474609"/>
      <use xlink:href="#DejaVuSans-20" x="374.853516"/>
      <use xlink:href="#DejaVuSans-68" x="406.640625"/>
      <use xlink:href="#DejaVuSans-6f" x="470.019531"/>
      <use xlink:href="#DejaVuSans-75" x="531.201172"/>
      <use xlink:href="#DejaVuSans-73" x="594.580078"/>
      <use xlink:href="#DejaVuSans-65" x="646.679688"/>
      <use xlink:href="#DejaVuSans-68" x="708.203125"/>
      <use xlink:href="#DejaVuSans-6f" x="771.582031"/>
      <use xlink:href="#DejaVuSans-6c" x="832.763672"/>
      <use xlink:href="#DejaVuSans-64" x="860.546875"/>
      <use xlink:href="#DejaVuSans-20" x="924.023438"/>
      <use xlink:href="#DejaVuSans-69" x="955.810547"/>
      <use xlink:href="#DejaVuSans-6e" x="983.59375"/>
      <use xlink:href="#DejaVuSans-63" x="1046.972656"/>
      <use xlink:href="#DejaVuSans-6f" x="1101.953125"/>
      <use xlink:href="#DejaVuSans-6d" x="1163.134766"/>
      <use xlink:href="#DejaVuSans-65" x="1260.546875"/>
     </g>
    </g>
   </g>
   <g id="PathCollection_1">
    <path d="M 70.039938 171.918928 
C 70.509998 171.918928 70.960869 171.732171 71.293252 171.399788 
C 71.625634 171.067405 71.812391 170.616534 71.812391 170.146474 
C 71.812391 169.676414 71.625634 169.225543 71.293252 168.89316 
C 70.960869 168.560777 70.509998 168.37402 70.039938 168.37402 
C 69.569877 168.37402 69.119006 168.560777 68.786623 168.89316 
C 68.454241 169.225543 68.267484 169.676414 68.267484 170.146474 
C 68.267484 170.616534 68.454241 171.067405 68.786623 171.399788 
C 69.119006 171.732171 69.569877 171.918928 70.039938 171.918928 
z
" clip-path="url(#p9cc696df84)" style="fill: #57d3db; stroke: #57d3db; stroke-width: 0.886227"/>
    <path d="M 70.039938 171.918928 
C 70.509998 171.918928 70.960869 171.732171 71.293252 171.399788 
C 71.625634 171.067405 71.812391 170.616534 71.812391 170.146474 
C 71.812391 169.676414 71.625634 169.225543 71.293252 168.89316 
C 70.960869 168.560777 70.509998 168.37402 70.039938 168.37402 
C 69.569877 168.37402 69.119006 168.560777 68.786623 168.89316 
C 68.454241 169.225543 68.267484 169.676414 68.267484 170.146474 
C 68.267484 170.616534 68.454241 171.067405 68.786623 171.399788 
C 69.119006 171.732171 69.569877 171.918928 70.039938 171.918928 
z
" clip-path="url(#p9cc696df84)" style="fill: #57d3db; stroke: #57d3db; stroke-width: 0.886227"/>
    <path d="M 70.039938 171.918928 
C 70.509998 171.918928 70.960869 171.732171 71.293252 171.399788 
C 71.625634 171.067405 71.812391 170.616534 71.812391 170.146474 
C 71.812391 169.676414 71.625634 169.225543 71.293252 168.89316 
C 70.960869 168.560777 70.509998 168.37402 70.039938 168.37402 
C 69.569877 168.37402 69.119006 168.560777 68.786623 168.89316 
C 68.454241 169.225543 68.267484 169.676414 68.267484 170.146474 
C 68.267484 170.616534 68.454241 171.067405 68.786623 171.399788 
C 69.119006 171.732171 69.569877 171.918928 70.039938 171.918928 
z
" clip-path="url(#p9cc696df84)" style="fill: #db5f57; stroke: #db5f57; stroke-width: 0.886227"/>
    <path d="M 70.039938 171.918928 
C 70.509998 171.918928 70.960869 171.732171 71.293252 171.399788 
C 71.625634 171.067405 71.812391 170.616534 71.812391 170.146474 
C 71.812391 169.676414 71.625634 169.225543 71.293252 168.89316 
C 70.960869 168.560777 70.509998 168.37402 70.039938 168.37402 
C 69.569877 168.37402 69.119006 168.560777 68.786623 168.89316 
C 68.454241 169.225543 68.267484 169.676414 68.267484 170.146474 
C 68.267484 170.616534 68.454241 171.067405 68.786623 171.399788 
C 69.119006 171.732171 69.569877 171.918928 70.039938 171.918928 
z
" clip-path="url(#p9cc696df84)" style="fill: #db5f57; stroke: #db5f57; stroke-width: 0.886227"/>
    <path d="M 70.039938 171.918928 
C 70.509998 171.918928 70.960869 171.732171 71.293252 171.399788 
C 71.625634 171.067405 71.812391 170.616534 71.812391 170.146474 
C 71.812391 169.676414 71.625634 169.225543 71.293252 168.89316 
C 70.960869 168.560777 70.509998 168.37402 70.039938 168.37402 
C 69.569877 168.37402 69.119006 168.560777 68.786623 168.89316 
C 68.454241 169.225543 68.267484 169.676414 68.267484 170.146474 
C 68.267484 170.616534 68.454241 171.067405 68.786623 171.399788 
C 69.119006 171.732171 69.569877 171.918928 70.039938 171.918928 
z
" clip-path="url(#p9cc696df84)" style="fill: #db5f57; stroke: #db5f57; stroke-width: 0.886227"/>
    <path d="M 70.039938 171.918928 
C 70.509998 171.918928 70.960869 171.732171 71.293252 171.399788 
C 71.625634 171.067405 71.812391 170.616534 71.812391 170.146474 
C 71.812391 169.676414 71.625634 169.225543 71.293252 168.89316 
C 70.960869 168.560777 70.509998 168.37402 70.039938 168.37402 
C 69.569877 168.37402 69.119006 168.560777 68.786623 168.89316 
C 68.454241 169.225543 68.267484 169.676414 68.267484 170.146474 
C 68.267484 170.616534 68.454241 171.067405 68.786623 171.399788 
C 69.119006 171.732171 69.569877 171.918928 70.039938 171.918928 
z
" clip-path="url(#p9cc696df84)" style="fill: #db5f57; stroke: #db5f57; stroke-width: 0.886227"/>
    <path d="M 70.039938 171.918928 
C 70.509998 171.918928 70.960869 171.732171 71.293252 171.399788 
C 71.625634 171.067405 71.812391 170.616534 71.812391 170.146474 
C 71.812391 169.676414 71.625634 169.225543 71.293252 168.89316 
C 70.960869 168.560777 70.509998 168.37402 70.039938 168.37402 
C 69.569877 168.37402 69.119006 168.560777 68.786623 168.89316 
C 68.454241 169.225543 68.267484 169.676414 68.267484 170.146474 
C 68.267484 170.616534 68.454241 171.067405 68.786623 171.399788 
C 69.119006 171.732171 69.569877 171.918928 70.039938 171.918928 
z
" clip-path="url(#p9cc696df84)" style="fill: #db5f57; stroke: #db5f57; stroke-width: 0.886227"/>
    <path d="M 70.039938 171.918928 
C 70.509998 171.918928 70.960869 171.732171 71.293252 171.399788 
C 71.625634 171.067405 71.812391 170.616534 71.812391 170.146474 
C 71.812391 169.676414 71.625634 169.225543 71.293252 168.89316 
C 70.960869 168.560777 70.509998 168.37402 70.039938 168.37402 
C 69.569877 168.37402 69.119006 168.560777 68.786623 168.89316 
C 68.454241 169.225543 68.267484 169.676414 68.267484 170.146474 
C 68.267484 170.616534 68.454241 171.067405 68.786623 171.399788 
C 69.119006 171.732171 69.569877 171.918928 70.039938 171.918928 
z
" clip-path="url(#p9cc696df84)" style="fill: #db5f57; stroke: #db5f57; stroke-width: 0.886227"/>
    <path d="M 70.039938 171.918928 
C 70.509998 171.918928 70.960869 171.732171 71.293252 171.399788 
C 71.625634 171.067405 71.812391 170.616534 71.812391 170.146474 
C 71.812391 169.676414 71.625634 169.225543 71.293252 168.89316 
C 70.960869 168.560777 70.509998 168.37402 70.039938 168.37402 
C 69.569877 168.37402 69.119006 168.560777 68.786623 168.89316 
C 68.454241 169.225543 68.267484 169.676414 68.267484 170.146474 
C 68.267484 170.616534 68.454241 171.067405 68.786623 171.399788 
C 69.119006 171.732171 69.569877 171.918928 70.039938 171.918928 
z
" clip-path="url(#p9cc696df84)" style="fill: #db5f57; stroke: #db5f57; stroke-width: 0.886227"/>
    <path d="M 70.039938 171.918928 
C 70.509998 171.918928 70.960869 171.732171 71.293252 171.399788 
C 71.625634 171.067405 71.812391 170.616534 71.812391 170.146474 
C 71.812391 169.676414 71.625634 169.225543 71.293252 168.89316 
C 70.960869 168.560777 70.509998 168.37402 70.039938 168.37402 
C 69.569877 168.37402 69.119006 168.560777 68.786623 168.89316 
C 68.454241 169.225543 68.267484 169.676414 68.267484 170.146474 
C 68.267484 170.616534 68.454241 171.067405 68.786623 171.399788 
C 69.119006 171.732171 69.569877 171.918928 70.039938 171.918928 
z
" clip-path="url(#p9cc696df84)" style="fill: #db5f57; stroke: #db5f57; stroke-width: 0.886227"/>
    <path d="M 70.039938 171.918928 
C 70.509998 171.918928 70.960869 171.732171 71.293252 171.399788 
C 71.625634 171.067405 71.812391 170.616534 71.812391 170.146474 
C 71.812391 169.676414 71.625634 169.225543 71.293252 168.89316 
C 70.960869 168.560777 70.509998 168.37402 70.039938 168.37402 
C 69.569877 168.37402 69.119006 168.560777 68.786623 168.89316 
C 68.454241 169.225543 68.267484 169.676414 68.267484 170.146474 
C 68.267484 170.616534 68.454241 171.067405 68.786623 171.399788 
C 69.119006 171.732171 69.569877 171.918928 70.039938 171.918928 
z
" clip-path="url(#p9cc696df84)" style="fill: #db5f57; stroke: #db5f57; stroke-width: 0.886227"/>
    <path d="M 70.039938 171.918928 
C 70.509998 171.918928 70.960869 171.732171 71.293252 171.399788 
C 71.625634 171.067405 71.812391 170.616534 71.812391 170.146474 
C 71.812391 169.676414 71.625634 169.225543 71.293252 168.89316 
C 70.960869 168.560777 70.509998 168.37402 70.039938 168.37402 
C 69.569877 168.37402 69.119006 168.560777 68.786623 168.89316 
C 68.454241 169.225543 68.267484 169.676414 68.267484 170.146474 
C 68.267484 170.616534 68.454241 171.067405 68.786623 171.399788 
C 69.119006 171.732171 69.569877 171.918928 70.039938 171.918928 
z
" clip-path="url(#p9cc696df84)" style="fill: #db5f57; stroke: #db5f57; stroke-width: 0.886227"/>
    <path d="M 70.039938 171.918928 
C 70.509998 171.918928 70.960869 171.732171 71.293252 171.399788 
C 71.625634 171.067405 71.812391 170.616534 71.812391 170.146474 
C 71.812391 169.676414 71.625634 169.225543 71.293252 168.89316 
C 70.960869 168.560777 70.509998 168.37402 70.039938 168.37402 
C 69.569877 168.37402 69.119006 168.560777 68.786623 168.89316 
C 68.454241 169.225543 68.267484 169.676414 68.267484 170.146474 
C 68.267484 170.616534 68.454241 171.067405 68.786623 171.399788 
C 69.119006 171.732171 69.569877 171.918928 70.039938 171.918928 
z
" clip-path="url(#p9cc696df84)" style="fill: #db5f57; stroke: #db5f57; stroke-width: 0.886227"/>
    <path d="M 70.039938 171.918928 
C 70.509998 171.918928 70.960869 171.732171 71.293252 171.399788 
C 71.625634 171.067405 71.812391 170.616534 71.812391 170.146474 
C 71.812391 169.676414 71.625634 169.225543 71.293252 168.89316 
C 70.960869 168.560777 70.509998 168.37402 70.039938 168.37402 
C 69.569877 168.37402 69.119006 168.560777 68.786623 168.89316 
C 68.454241 169.225543 68.267484 169.676414 68.267484 170.146474 
C 68.267484 170.616534 68.454241 171.067405 68.786623 171.399788 
C 69.119006 171.732171 69.569877 171.918928 70.039938 171.918928 
z
" clip-path="url(#p9cc696df84)" style="fill: #db5f57; stroke: #db5f57; stroke-width: 0.886227"/>
    <path d="M 70.039938 171.918928 
C 70.509998 171.918928 70.960869 171.732171 71.293252 171.399788 
C 71.625634 171.067405 71.812391 170.616534 71.812391 170.146474 
C 71.812391 169.676414 71.625634 169.225543 71.293252 168.89316 
C 70.960869 168.560777 70.509998 168.37402 70.039938 168.37402 
C 69.569877 168.37402 69.119006 168.560777 68.786623 168.89316 
C 68.454241 169.225543 68.267484 169.676414 68.267484 170.146474 
C 68.267484 170.616534 68.454241 171.067405 68.786623 171.399788 
C 69.119006 171.732171 69.569877 171.918928 70.039938 171.918928 
z
" clip-path="url(#p9cc696df84)" style="fill: #db5f57; stroke: #db5f57; stroke-width: 0.886227"/>
    <path d="M 70.039938 171.918928 
C 70.509998 171.918928 70.960869 171.732171 71.293252 171.399788 
C 71.625634 171.067405 71.812391 170.616534 71.812391 170.146474 
C 71.812391 169.676414 71.625634 169.225543 71.293252 168.89316 
C 70.960869 168.560777 70.509998 168.37402 70.039938 168.37402 
C 69.569877 168.37402 69.119006 168.560777 68.786623 168.89316 
C 68.454241 169.225543 68.267484 169.676414 68.267484 170.146474 
C 68.267484 170.616534 68.454241 171.067405 68.786623 171.399788 
C 69.119006 171.732171 69.569877 171.918928 70.039938 171.918928 
z
" clip-path="url(#p9cc696df84)" style="fill: #db5f57; stroke: #db5f57; stroke-width: 0.886227"/>
    <path d="M 70.039938 171.918928 
C 70.509998 171.918928 70.960869 171.732171 71.293252 171.399788 
C 71.625634 171.067405 71.812391 170.616534 71.812391 170.146474 
C 71.812391 169.676414 71.625634 169.225543 71.293252 168.89316 
C 70.960869 168.560777 70.509998 168.37402 70.039938 168.37402 
C 69.569877 168.37402 69.119006 168.560777 68.786623 168.89316 
C 68.454241 169.225543 68.267484 169.676414 68.267484 170.146474 
C 68.267484 170.616534 68.454241 171.067405 68.786623 171.399788 
C 69.119006 171.732171 69.569877 171.918928 70.039938 171.918928 
z
" clip-path="url(#p9cc696df84)" style="fill: #db5f57; stroke: #db5f57; stroke-width: 0.886227"/>
    <path d="M 70.039938 171.918928 
C 70.509998 171.918928 70.960869 171.732171 71.293252 171.399788 
C 71.625634 171.067405 71.812391 170.616534 71.812391 170.146474 
C 71.812391 169.676414 71.625634 169.225543 71.293252 168.89316 
C 70.960869 168.560777 70.509998 168.37402 70.039938 168.37402 
C 69.569877 168.37402 69.119006 168.560777 68.786623 168.89316 
C 68.454241 169.225543 68.267484 169.676414 68.267484 170.146474 
C 68.267484 170.616534 68.454241 171.067405 68.786623 171.399788 
C 69.119006 171.732171 69.569877 171.918928 70.039938 171.918928 
z
" clip-path="url(#p9cc696df84)" style="fill: #db5f57; stroke: #db5f57; stroke-width: 0.886227"/>
    <path d="M 70.039938 171.918928 
C 70.509998 171.918928 70.960869 171.732171 71.293252 171.399788 
C 71.625634 171.067405 71.812391 170.616534 71.812391 170.146474 
C 71.812391 169.676414 71.625634 169.225543 71.293252 168.89316 
C 70.960869 168.560777 70.509998 168.37402 70.039938 168.37402 
C 69.569877 168.37402 69.119006 168.560777 68.786623 168.89316 
C 68.454241 169.225543 68.267484 169.676414 68.267484 170.146474 
C 68.267484 170.616534 68.454241 171.067405 68.786623 171.399788 
C 69.119006 171.732171 69.569877 171.918928 70.039938 171.918928 
z
" clip-path="url(#p9cc696df84)" style="fill: #db5f57; stroke: #db5f57; stroke-width: 0.886227"/>
    <path d="M 70.039938 171.918928 
C 70.509998 171.918928 70.960869 171.732171 71.293252 171.399788 
C 71.625634 171.067405 71.812391 170.616534 71.812391 170.146474 
C 71.812391 169.676414 71.625634 169.225543 71.293252 168.89316 
C 70.960869 168.560777 70.509998 168.37402 70.039938 168.37402 
C 69.569877 168.37402 69.119006 168.560777 68.786623 168.89316 
C 68.454241 169.225543 68.267484 169.676414 68.267484 170.146474 
C 68.267484 170.616534 68.454241 171.067405 68.786623 171.399788 
C 69.119006 171.732171 69.569877 171.918928 70.039938 171.918928 
z
" clip-path="url(#p9cc696df84)" style="fill: #db5f57; stroke: #db5f57; stroke-width: 0.886227"/>
    <path d="M 70.039938 171.918928 
C 70.509998 171.918928 70.960869 171.732171 71.293252 171.399788 
C 71.625634 171.067405 71.812391 170.616534 71.812391 170.146474 
C 71.812391 169.676414 71.625634 169.225543 71.293252 168.89316 
C 70.960869 168.560777 70.509998 168.37402 70.039938 168.37402 
C 69.569877 168.37402 69.119006 168.560777 68.786623 168.89316 
C 68.454241 169.225543 68.267484 169.676414 68.267484 170.146474 
C 68.267484 170.616534 68.454241 171.067405 68.786623 171.399788 
C 69.119006 171.732171 69.569877 171.918928 70.039938 171.918928 
z
" clip-path="url(#p9cc696df84)" style="fill: #db5f57; stroke: #db5f57; stroke-width: 0.886227"/>
    <path d="M 70.039938 171.918928 
C 70.509998 171.918928 70.960869 171.732171 71.293252 171.399788 
C 71.625634 171.067405 71.812391 170.616534 71.812391 170.146474 
C 71.812391 169.676414 71.625634 169.225543 71.293252 168.89316 
C 70.960869 168.560777 70.509998 168.37402 70.039938 168.37402 
C 69.569877 168.37402 69.119006 168.560777 68.786623 168.89316 
C 68.454241 169.225543 68.267484 169.676414 68.267484 170.146474 
C 68.267484 170.616534 68.454241 171.067405 68.786623 171.399788 
C 69.119006 171.732171 69.569877 171.918928 70.039938 171.918928 
z
" clip-path="url(#p9cc696df84)" style="fill: #db5f57; stroke: #db5f57; stroke-width: 0.886227"/>
    <path d="M 93.089945 92.796734 
C 93.560005 92.796734 94.010876 92.609977 94.343259 92.277594 
C 94.675642 91.945212 94.862399 91.49434 94.862399 91.02428 
C 94.862399 90.55422 94.675642 90.103349 94.343259 89.770966 
C 94.010876 89.438583 93.560005 89.251826 93.089945 89.251826 
C 92.619885 89.251826 92.169014 89.438583 91.836631 89.770966 
C 91.504248 90.103349 91.317491 90.55422 91.317491 91.02428 
C 91.317491 91.49434 91.504248 91.945212 91.836631 92.277594 
C 92.169014 92.609977 92.619885 92.796734 93.089945 92.796734 
z
" clip-path="url(#p9cc696df84)" style="fill: #57d3db; stroke: #57d3db; stroke-width: 0.886227"/>
    <path d="M 98.15677 75.187216 
C 98.62683 75.187216 99.077701 75.000459 99.410084 74.668076 
C 99.742467 74.335693 99.929224 73.884822 99.929224 73.414762 
C 99.929224 72.944702 99.742467 72.493831 99.410084 72.161448 
C 99.077701 71.829065 98.62683 71.642308 98.15677 71.642308 
C 97.68671 71.642308 97.235839 71.829065 96.903456 72.161448 
C 96.571073 72.493831 96.384316 72.944702 96.384316 73.414762 
C 96.384316 73.884822 96.571073 74.335693 96.903456 74.668076 
C 97.235839 75.000459 97.68671 75.187216 98.15677 75.187216 
z
" clip-path="url(#p9cc696df84)" style="fill: #57d3db; stroke: #57d3db; stroke-width: 0.886227"/>
    <path d="M 119.341923 164.097009 
C 119.811983 164.097009 120.262854 163.910252 120.595237 163.577869 
C 120.92762 163.245487 121.114377 162.794616 121.114377 162.324555 
C 121.114377 161.854495 120.92762 161.403624 120.595237 161.071241 
C 120.262854 160.738858 119.811983 160.552102 119.341923 160.552102 
C 118.871863 160.552102 118.420992 160.738858 118.088609 161.071241 
C 117.756226 161.403624 117.569469 161.854495 117.569469 162.324555 
C 117.569469 162.794616 117.756226 163.245487 118.088609 163.577869 
C 118.420992 163.910252 118.871863 164.097009 119.341923 164.097009 
z
" clip-path="url(#p9cc696df84)" style="fill: #db5f57; stroke: #db5f57; stroke-width: 0.886227"/>
    <path d="M 121.557805 151.023814 
C 122.027866 151.023814 122.478737 150.837057 122.81112 150.504674 
C 123.143502 150.172291 123.330259 149.72142 123.330259 149.25136 
C 123.330259 148.7813 123.143502 148.330428 122.81112 147.998046 
C 122.478737 147.665663 122.027866 147.478906 121.557805 147.478906 
C 121.087745 147.478906 120.636874 147.665663 120.304491 147.998046 
C 119.972108 148.330428 119.785352 148.7813 119.785352 149.25136 
C 119.785352 149.72142 119.972108 150.172291 120.304491 150.504674 
C 120.636874 150.837057 121.087745 151.023814 121.557805 151.023814 
z
" clip-path="url(#p9cc696df84)" style="fill: #db5f57; stroke: #db5f57; stroke-width: 0.886227"/>
    <path d="M 133.496713 135.653185 
C 133.966773 135.653185 134.417644 135.466428 134.750027 135.134045 
C 135.08241 134.801662 135.269167 134.350791 135.269167 133.880731 
C 135.269167 133.41067 135.08241 132.959799 134.750027 132.627417 
C 134.417644 132.295034 133.966773 132.108277 133.496713 132.108277 
C 133.026653 132.108277 132.575782 132.295034 132.243399 132.627417 
C 131.911016 132.959799 131.724259 133.41067 131.724259 133.880731 
C 131.724259 134.350791 131.911016 134.801662 132.243399 135.134045 
C 132.575782 135.466428 133.026653 135.653185 133.496713 135.653185 
z
" clip-path="url(#p9cc696df84)" style="fill: #db5f57; stroke: #db5f57; stroke-width: 0.886227"/>
    <path d="M 147.002464 136.687473 
C 147.472525 136.687473 147.923396 136.500716 148.255778 136.168333 
C 148.588161 135.835951 148.774918 135.38508 148.774918 134.915019 
C 148.774918 134.444959 148.588161 133.994088 148.255778 133.661705 
C 147.923396 133.329322 147.472525 133.142566 147.002464 133.142566 
C 146.532404 133.142566 146.081533 133.329322 145.74915 133.661705 
C 145.416767 133.994088 145.23001 134.444959 145.23001 134.915019 
C 145.23001 135.38508 145.416767 135.835951 145.74915 136.168333 
C 146.081533 136.500716 146.532404 136.687473 147.002464 136.687473 
z
" clip-path="url(#p9cc696df84)" style="fill: #db5f57; stroke: #db5f57; stroke-width: 0.886227"/>
    <path d="M 148.461825 65.770399 
C 148.931885 65.770399 149.382756 65.583642 149.715139 65.25126 
C 150.047522 64.918877 150.234279 64.468006 150.234279 63.997945 
C 150.234279 63.527885 150.047522 63.077014 149.715139 62.744631 
C 149.382756 62.412249 148.931885 62.225492 148.461825 62.225492 
C 147.991765 62.225492 147.540894 62.412249 147.208511 62.744631 
C 146.876128 63.077014 146.689371 63.527885 146.689371 63.997945 
C 146.689371 64.468006 146.876128 64.918877 147.208511 65.25126 
C 147.540894 65.583642 147.991765 65.770399 148.461825 65.770399 
z
" clip-path="url(#p9cc696df84)" style="fill: #db5f57; stroke: #db5f57; stroke-width: 0.886227"/>
    <path d="M 174.98908 71.867912 
C 175.459141 71.867912 175.910012 71.681155 176.242395 71.348773 
C 176.574777 71.01639 176.761534 70.565519 176.761534 70.095458 
C 176.761534 69.625398 176.574777 69.174527 176.242395 68.842144 
C 175.910012 68.509761 175.459141 68.323005 174.98908 68.323005 
C 174.51902 68.323005 174.068149 68.509761 173.735766 68.842144 
C 173.403383 69.174527 173.216627 69.625398 173.216627 70.095458 
C 173.216627 70.565519 173.403383 71.01639 173.735766 71.348773 
C 174.068149 71.681155 174.51902 71.867912 174.98908 71.867912 
z
" clip-path="url(#p9cc696df84)" style="fill: #db5f57; stroke: #db5f57; stroke-width: 0.886227"/>
    <path d="M 177.84536 67.239338 
C 178.315421 67.239338 178.766292 67.052581 179.098675 66.720198 
C 179.431057 66.387815 179.617814 65.936944 179.617814 65.466884 
C 179.617814 64.996823 179.431057 64.545952 179.098675 64.21357 
C 178.766292 63.881187 178.315421 63.69443 177.84536 63.69443 
C 177.3753 63.69443 176.924429 63.881187 176.592046 64.21357 
C 176.259664 64.545952 176.072907 64.996823 176.072907 65.466884 
C 176.072907 65.936944 176.259664 66.387815 176.592046 66.720198 
C 176.924429 67.052581 177.3753 67.239338 177.84536 67.239338 
z
" clip-path="url(#p9cc696df84)" style="fill: #db5f57; stroke: #db5f57; stroke-width: 0.886227"/>
    <path d="M 177.938597 29.91092 
C 178.408657 29.91092 178.859529 29.724163 179.191911 29.391781 
C 179.524294 29.059398 179.711051 28.608527 179.711051 28.138466 
C 179.711051 27.668406 179.524294 27.217535 179.191911 26.885152 
C 178.859529 26.552769 178.408657 26.366013 177.938597 26.366013 
C 177.468537 26.366013 177.017666 26.552769 176.685283 26.885152 
C 176.3529 27.217535 176.166143 27.668406 176.166143 28.138466 
C 176.166143 28.608527 176.3529 29.059398 176.685283 29.391781 
C 177.017666 29.724163 177.468537 29.91092 177.938597 29.91092 
z
" clip-path="url(#p9cc696df84)" style="fill: #db5f57; stroke: #db5f57; stroke-width: 0.886227"/>
    <path d="M 224.367626 128.62428 
C 224.837686 128.62428 225.288557 128.437523 225.62094 128.10514 
C 225.953323 127.772757 226.140079 127.321886 226.140079 126.851826 
C 226.140079 126.381766 225.953323 125.930894 225.62094 125.598512 
C 225.288557 125.266129 224.837686 125.079372 224.367626 125.079372 
C 223.897565 125.079372 223.446694 125.266129 223.114311 125.598512 
C 222.781929 125.930894 222.595172 126.381766 222.595172 126.851826 
C 222.595172 127.321886 222.781929 127.772757 223.114311 128.10514 
C 223.446694 128.437523 223.897565 128.62428 224.367626 128.62428 
z
" clip-path="url(#p9cc696df84)" style="fill: #db5f57; stroke: #db5f57; stroke-width: 0.886227"/>
    <path d="M 237.660826 165.237743 
C 238.130886 165.237743 238.581757 165.050986 238.91414 164.718603 
C 239.246523 164.38622 239.433279 163.935349 239.433279 163.465289 
C 239.433279 162.995229 239.246523 162.544357 238.91414 162.211975 
C 238.581757 161.879592 238.130886 161.692835 237.660826 161.692835 
C 237.190765 161.692835 236.739894 161.879592 236.407511 162.211975 
C 236.075129 162.544357 235.888372 162.995229 235.888372 163.465289 
C 235.888372 163.935349 236.075129 164.38622 236.407511 164.718603 
C 236.739894 165.050986 237.190765 165.237743 237.660826 165.237743 
z
" clip-path="url(#p9cc696df84)" style="fill: #db5f57; stroke: #db5f57; stroke-width: 0.886227"/>
    <path d="M 254.78247 66.080863 
C 255.25253 66.080863 255.703402 65.894106 256.035784 65.561724 
C 256.368167 65.229341 256.554924 64.77847 256.554924 64.308409 
C 256.554924 63.838349 256.368167 63.387478 256.035784 63.055095 
C 255.703402 62.722713 255.25253 62.535956 254.78247 62.535956 
C 254.31241 62.535956 253.861539 62.722713 253.529156 63.055095 
C 253.196773 63.387478 253.010016 63.838349 253.010016 64.308409 
C 253.010016 64.77847 253.196773 65.229341 253.529156 65.561724 
C 253.861539 65.894106 254.31241 66.080863 254.78247 66.080863 
z
" clip-path="url(#p9cc696df84)" style="fill: #db5f57; stroke: #db5f57; stroke-width: 0.886227"/>
    <path d="M 262.944131 124.387777 
C 263.414191 124.387777 263.865063 124.20102 264.197445 123.868637 
C 264.529828 123.536254 264.716585 123.085383 264.716585 122.615323 
C 264.716585 122.145262 264.529828 121.694391 264.197445 121.362009 
C 263.865063 121.029626 263.414191 120.842869 262.944131 120.842869 
C 262.474071 120.842869 262.0232 121.029626 261.690817 121.362009 
C 261.358434 121.694391 261.171677 122.145262 261.171677 122.615323 
C 261.171677 123.085383 261.358434 123.536254 261.690817 123.868637 
C 262.0232 124.20102 262.474071 124.387777 262.944131 124.387777 
z
" clip-path="url(#p9cc696df84)" style="fill: #db5f57; stroke: #db5f57; stroke-width: 0.886227"/>
    <path d="M 265.711258 113.255425 
C 266.181319 113.255425 266.63219 113.068668 266.964572 112.736285 
C 267.296955 112.403902 267.483712 111.953031 267.483712 111.482971 
C 267.483712 111.01291 267.296955 110.562039 266.964572 110.229657 
C 266.63219 109.897274 266.181319 109.710517 265.711258 109.710517 
C 265.241198 109.710517 264.790327 109.897274 264.457944 110.229657 
C 264.125561 110.562039 263.938804 111.01291 263.938804 111.482971 
C 263.938804 111.953031 264.125561 112.403902 264.457944 112.736285 
C 264.790327 113.068668 265.241198 113.255425 265.711258 113.255425 
z
" clip-path="url(#p9cc696df84)" style="fill: #db5f57; stroke: #db5f57; stroke-width: 0.886227"/>
    <path d="M 272.347699 102.264999 
C 272.817759 102.264999 273.26863 102.078242 273.601013 101.745859 
C 273.933396 101.413476 274.120153 100.962605 274.120153 100.492545 
C 274.120153 100.022485 273.933396 99.571614 273.601013 99.239231 
C 273.26863 98.906848 272.817759 98.720091 272.347699 98.720091 
C 271.877639 98.720091 271.426768 98.906848 271.094385 99.239231 
C 270.762002 99.571614 270.575245 100.022485 270.575245 100.492545 
C 270.575245 100.962605 270.762002 101.413476 271.094385 101.745859 
C 271.426768 102.078242 271.877639 102.264999 272.347699 102.264999 
z
" clip-path="url(#p9cc696df84)" style="fill: #db5f57; stroke: #db5f57; stroke-width: 0.886227"/>
    <path d="M 288.782013 142.824016 
C 289.252074 142.824016 289.702945 142.637259 290.035328 142.304876 
C 290.36771 141.972493 290.554467 141.521622 290.554467 141.051562 
C 290.554467 140.581502 290.36771 140.130631 290.035328 139.798248 
C 289.702945 139.465865 289.252074 139.279108 288.782013 139.279108 
C 288.311953 139.279108 287.861082 139.465865 287.528699 139.798248 
C 287.196316 140.130631 287.00956 140.581502 287.00956 141.051562 
C 287.00956 141.521622 287.196316 141.972493 287.528699 142.304876 
C 287.861082 142.637259 288.311953 142.824016 288.782013 142.824016 
z
" clip-path="url(#p9cc696df84)" style="fill: #db5f57; stroke: #db5f57; stroke-width: 0.886227"/>
    <path d="M 305.721993 143.88669 
C 306.192054 143.88669 306.642925 143.699933 306.975308 143.36755 
C 307.30769 143.035167 307.494447 142.584296 307.494447 142.114236 
C 307.494447 141.644176 307.30769 141.193305 306.975308 140.860922 
C 306.642925 140.528539 306.192054 140.341782 305.721993 140.341782 
C 305.251933 140.341782 304.801062 140.528539 304.468679 140.860922 
C 304.136297 141.193305 303.94954 141.644176 303.94954 142.114236 
C 303.94954 142.584296 304.136297 143.035167 304.468679 143.36755 
C 304.801062 143.699933 305.251933 143.88669 305.721993 143.88669 
z
" clip-path="url(#p9cc696df84)" style="fill: #db5f57; stroke: #db5f57; stroke-width: 0.886227"/>
    <path d="M 314.058075 156.52701 
C 314.528135 156.52701 314.979007 156.340253 315.311389 156.00787 
C 315.643772 155.675487 315.830529 155.224616 315.830529 154.754556 
C 315.830529 154.284496 315.643772 153.833625 315.311389 153.501242 
C 314.979007 153.168859 314.528135 152.982102 314.058075 152.982102 
C 313.588015 152.982102 313.137144 153.168859 312.804761 153.501242 
C 312.472378 153.833625 312.285621 154.284496 312.285621 154.754556 
C 312.285621 155.224616 312.472378 155.675487 312.804761 156.00787 
C 313.137144 156.340253 313.588015 156.52701 314.058075 156.52701 
z
" clip-path="url(#p9cc696df84)" style="fill: #db5f57; stroke: #db5f57; stroke-width: 0.886227"/>
    <path d="M 322.906823 99.126651 
C 323.376883 99.126651 323.827755 98.939895 324.160137 98.607512 
C 324.49252 98.275129 324.679277 97.824258 324.679277 97.354198 
C 324.679277 96.884137 324.49252 96.433266 324.160137 96.100883 
C 323.827755 95.768501 323.376883 95.581744 322.906823 95.581744 
C 322.436763 95.581744 321.985892 95.768501 321.653509 96.100883 
C 321.321126 96.433266 321.134369 96.884137 321.134369 97.354198 
C 321.134369 97.824258 321.321126 98.275129 321.653509 98.607512 
C 321.985892 98.939895 322.436763 99.126651 322.906823 99.126651 
z
" clip-path="url(#p9cc696df84)" style="fill: #db5f57; stroke: #db5f57; stroke-width: 0.886227"/>
    <path d="M 329.537989 170.822546 
C 330.008049 170.822546 330.45892 170.63579 330.791303 170.303407 
C 331.123686 169.971024 331.310443 169.520153 331.310443 169.050093 
C 331.310443 168.580032 331.123686 168.129161 330.791303 167.796779 
C 330.45892 167.464396 330.008049 167.277639 329.537989 167.277639 
C 329.067929 167.277639 328.617058 167.464396 328.284675 167.796779 
C 327.952292 168.129161 327.765535 168.580032 327.765535 169.050093 
C 327.765535 169.520153 327.952292 169.971024 328.284675 170.303407 
C 328.617058 170.63579 329.067929 170.822546 329.537989 170.822546 
z
" clip-path="url(#p9cc696df84)" style="fill: #db5f57; stroke: #db5f57; stroke-width: 0.886227"/>
    <path d="M 354.206178 147.684995 
C 354.676238 147.684995 355.127109 147.498238 355.459492 147.165855 
C 355.791875 146.833473 355.978632 146.382602 355.978632 145.912541 
C 355.978632 145.442481 355.791875 144.99161 355.459492 144.659227 
C 355.127109 144.326844 354.676238 144.140087 354.206178 144.140087 
C 353.736117 144.140087 353.285246 144.326844 352.952864 144.659227 
C 352.620481 144.99161 352.433724 145.442481 352.433724 145.912541 
C 352.433724 146.382602 352.620481 146.833473 352.952864 147.165855 
C 353.285246 147.498238 353.736117 147.684995 354.206178 147.684995 
z
" clip-path="url(#p9cc696df84)" style="fill: #db5f57; stroke: #db5f57; stroke-width: 0.886227"/>
   </g>
   <g id="line2d_15">
    <path d="M 70.039938 170.146474 
L 354.206178 145.912541 
" clip-path="url(#p9cc696df84)" style="fill: none; stroke: #db5f57; stroke-width: 0.886227"/>
   </g>
   <g id="line2d_16">
    <path d="M 70.039938 170.146474 
L 262.944131 122.615323 
" clip-path="url(#p9cc696df84)" style="fill: none; stroke: #db5f57; stroke-width: 0.886227"/>
   </g>
   <g id="line2d_17">
    <path d="M 70.039938 170.146474 
L 121.557805 149.25136 
" clip-path="url(#p9cc696df84)" style="fill: none; stroke: #db5f57; stroke-width: 0.886227"/>
   </g>
   <g id="line2d_18">
    <path d="M 70.039938 170.146474 
L 133.496713 133.880731 
" clip-path="url(#p9cc696df84)" style="fill: none; stroke: #db5f57; stroke-width: 0.886227"/>
   </g>
   <g id="line2d_19">
    <path d="M 70.039938 170.146474 
L 254.78247 64.308409 
" clip-path="url(#p9cc696df84)" style="fill: none; stroke: #db5f57; stroke-width: 0.886227"/>
   </g>
   <g id="line2d_20">
    <path d="M 70.039938 170.146474 
L 237.660826 163.465289 
" clip-path="url(#p9cc696df84)" style="fill: none; stroke: #db5f57; stroke-width: 0.886227"/>
   </g>
   <g id="line2d_21">
    <path d="M 70.039938 170.146474 
L 177.84536 65.466884 
" clip-path="url(#p9cc696df84)" style="fill: none; stroke: #db5f57; stroke-width: 0.886227"/>
   </g>
   <g id="line2d_22">
    <path d="M 70.039938 170.146474 
L 329.537989 169.050093 
" clip-path="url(#p9cc696df84)" style="fill: none; stroke: #db5f57; stroke-width: 0.886227"/>
   </g>
   <g id="line2d_23">
    <path d="M 70.039938 170.146474 
L 224.367626 126.851826 
" clip-path="url(#p9cc696df84)" style="fill: none; stroke: #db5f57; stroke-width: 0.886227"/>
   </g>
   <g id="line2d_24">
    <path d="M 70.039938 170.146474 
L 148.461825 63.997945 
" clip-path="url(#p9cc696df84)" style="fill: none; stroke: #db5f57; stroke-width: 0.886227"/>
   </g>
   <g id="line2d_25">
    <path d="M 70.039938 170.146474 
L 177.938597 28.138466 
" clip-path="url(#p9cc696df84)" style="fill: none; stroke: #db5f57; stroke-width: 0.886227"/>
   </g>
   <g id="line2d_26">
    <path d="M 70.039938 170.146474 
L 98.15677 73.414762 
" clip-path="url(#p9cc696df84)" style="fill: none; stroke: #57d3db; stroke-width: 0.886227"/>
   </g>
   <g id="line2d_27">
    <path d="M 70.039938 170.146474 
L 305.721993 142.114236 
" clip-path="url(#p9cc696df84)" style="fill: none; stroke: #db5f57; stroke-width: 0.886227"/>
   </g>
   <g id="line2d_28">
    <path d="M 70.039938 170.146474 
L 314.058075 154.754556 
" clip-path="url(#p9cc696df84)" style="fill: none; stroke: #db5f57; stroke-width: 0.886227"/>
   </g>
   <g id="line2d_29">
    <path d="M 70.039938 170.146474 
L 174.98908 70.095458 
" clip-path="url(#p9cc696df84)" style="fill: none; stroke: #db5f57; stroke-width: 0.886227"/>
   </g>
   <g id="line2d_30">
    <path d="M 70.039938 170.146474 
L 265.711258 111.482971 
" clip-path="url(#p9cc696df84)" style="fill: none; stroke: #db5f57; stroke-width: 0.886227"/>
   </g>
   <g id="line2d_31">
    <path d="M 70.039938 170.146474 
L 322.906823 97.354198 
" clip-path="url(#p9cc696df84)" style="fill: none; stroke: #db5f57; stroke-width: 0.886227"/>
   </g>
   <g id="line2d_32">
    <path d="M 70.039938 170.146474 
L 272.347699 100.492545 
" clip-path="url(#p9cc696df84)" style="fill: none; stroke: #db5f57; stroke-width: 0.886227"/>
   </g>
   <g id="line2d_33">
    <path d="M 70.039938 170.146474 
L 119.341923 162.324555 
" clip-path="url(#p9cc696df84)" style="fill: none; stroke: #db5f57; stroke-width: 0.886227"/>
   </g>
   <g id="line2d_34">
    <path d="M 70.039938 170.146474 
L 288.782013 141.051562 
" clip-path="url(#p9cc696df84)" style="fill: none; stroke: #db5f57; stroke-width: 0.886227"/>
   </g>
   <g id="line2d_35">
    <path d="M 70.039938 170.146474 
L 147.002464 134.915019 
" clip-path="url(#p9cc696df84)" style="fill: none; stroke: #db5f57; stroke-width: 0.886227"/>
   </g>
   <g id="line2d_36">
    <path d="M 70.039938 170.146474 
L 93.089945 91.02428 
" clip-path="url(#p9cc696df84)" style="fill: none; stroke: #57d3db; stroke-width: 0.886227"/>
   </g>
   <g id="patch_3">
    <path d="M 434.359938 194.149308 
L 741.5115 194.149308 
L 741.5115 120.717433 
L 434.359938 120.717433 
L 434.359938 194.149308 
z
" style="fill: none"/>
   </g>
   <g id="text_11">
    <!-- town_high.isin(['Lynn','Marblehead', 'Swampscott']) -->
    <g transform="translate(446.559937 144.158058)scale(0.11 -0.11)">
     <defs>
      <path id="DejaVuSans-5f" d="M 3263 -1063 
L 3263 -1509 
L -63 -1509 
L -63 -1063 
L 3263 -1063 
z
" transform="scale(0.015625)"/>
      <path id="DejaVuSans-67" d="M 2906 1791 
Q 2906 2416 2648 2759 
Q 2391 3103 1925 3103 
Q 1463 3103 1205 2759 
Q 947 2416 947 1791 
Q 947 1169 1205 825 
Q 1463 481 1925 481 
Q 2391 481 2648 825 
Q 2906 1169 2906 1791 
z
M 3481 434 
Q 3481 -459 3084 -895 
Q 2688 -1331 1869 -1331 
Q 1566 -1331 1297 -1286 
Q 1028 -1241 775 -1147 
L 775 -588 
Q 1028 -725 1275 -790 
Q 1522 -856 1778 -856 
Q 2344 -856 2625 -561 
Q 2906 -266 2906 331 
L 2906 616 
Q 2728 306 2450 153 
Q 2172 0 1784 0 
Q 1141 0 747 490 
Q 353 981 353 1791 
Q 353 2603 747 3093 
Q 1141 3584 1784 3584 
Q 2172 3584 2450 3431 
Q 2728 3278 2906 2969 
L 2906 3500 
L 3481 3500 
L 3481 434 
z
" transform="scale(0.015625)"/>
      <path id="DejaVuSans-2e" d="M 684 794 
L 1344 794 
L 1344 0 
L 684 0 
L 684 794 
z
" transform="scale(0.015625)"/>
      <path id="DejaVuSans-28" d="M 1984 4856 
Q 1566 4138 1362 3434 
Q 1159 2731 1159 2009 
Q 1159 1288 1364 580 
Q 1569 -128 1984 -844 
L 1484 -844 
Q 1016 -109 783 600 
Q 550 1309 550 2009 
Q 550 2706 781 3412 
Q 1013 4119 1484 4856 
L 1984 4856 
z
" transform="scale(0.015625)"/>
      <path id="DejaVuSans-5b" d="M 550 4863 
L 1875 4863 
L 1875 4416 
L 1125 4416 
L 1125 -397 
L 1875 -397 
L 1875 -844 
L 550 -844 
L 550 4863 
z
" transform="scale(0.015625)"/>
      <path id="DejaVuSans-27" d="M 1147 4666 
L 1147 2931 
L 616 2931 
L 616 4666 
L 1147 4666 
z
" transform="scale(0.015625)"/>
      <path id="DejaVuSans-4c" d="M 628 4666 
L 1259 4666 
L 1259 531 
L 3531 531 
L 3531 0 
L 628 0 
L 628 4666 
z
" transform="scale(0.015625)"/>
      <path id="DejaVuSans-79" d="M 2059 -325 
Q 1816 -950 1584 -1140 
Q 1353 -1331 966 -1331 
L 506 -1331 
L 506 -850 
L 844 -850 
Q 1081 -850 1212 -737 
Q 1344 -625 1503 -206 
L 1606 56 
L 191 3500 
L 800 3500 
L 1894 763 
L 2988 3500 
L 3597 3500 
L 2059 -325 
z
" transform="scale(0.015625)"/>
      <path id="DejaVuSans-2c" d="M 750 794 
L 1409 794 
L 1409 256 
L 897 -744 
L 494 -744 
L 750 256 
L 750 794 
z
" transform="scale(0.015625)"/>
      <path id="DejaVuSans-4d" d="M 628 4666 
L 1569 4666 
L 2759 1491 
L 3956 4666 
L 4897 4666 
L 4897 0 
L 4281 0 
L 4281 4097 
L 3078 897 
L 2444 897 
L 1241 4097 
L 1241 0 
L 628 0 
L 628 4666 
z
" transform="scale(0.015625)"/>
      <path id="DejaVuSans-72" d="M 2631 2963 
Q 2534 3019 2420 3045 
Q 2306 3072 2169 3072 
Q 1681 3072 1420 2755 
Q 1159 2438 1159 1844 
L 1159 0 
L 581 0 
L 581 3500 
L 1159 3500 
L 1159 2956 
Q 1341 3275 1631 3429 
Q 1922 3584 2338 3584 
Q 2397 3584 2469 3576 
Q 2541 3569 2628 3553 
L 2631 2963 
z
" transform="scale(0.015625)"/>
      <path id="DejaVuSans-53" d="M 3425 4513 
L 3425 3897 
Q 3066 4069 2747 4153 
Q 2428 4238 2131 4238 
Q 1616 4238 1336 4038 
Q 1056 3838 1056 3469 
Q 1056 3159 1242 3001 
Q 1428 2844 1947 2747 
L 2328 2669 
Q 3034 2534 3370 2195 
Q 3706 1856 3706 1288 
Q 3706 609 3251 259 
Q 2797 -91 1919 -91 
Q 1588 -91 1214 -16 
Q 841 59 441 206 
L 441 856 
Q 825 641 1194 531 
Q 1563 422 1919 422 
Q 2459 422 2753 634 
Q 3047 847 3047 1241 
Q 3047 1584 2836 1778 
Q 2625 1972 2144 2069 
L 1759 2144 
Q 1053 2284 737 2584 
Q 422 2884 422 3419 
Q 422 4038 858 4394 
Q 1294 4750 2059 4750 
Q 2388 4750 2728 4690 
Q 3069 4631 3425 4513 
z
" transform="scale(0.015625)"/>
      <path id="DejaVuSans-70" d="M 1159 525 
L 1159 -1331 
L 581 -1331 
L 581 3500 
L 1159 3500 
L 1159 2969 
Q 1341 3281 1617 3432 
Q 1894 3584 2278 3584 
Q 2916 3584 3314 3078 
Q 3713 2572 3713 1747 
Q 3713 922 3314 415 
Q 2916 -91 2278 -91 
Q 1894 -91 1617 61 
Q 1341 213 1159 525 
z
M 3116 1747 
Q 3116 2381 2855 2742 
Q 2594 3103 2138 3103 
Q 1681 3103 1420 2742 
Q 1159 2381 1159 1747 
Q 1159 1113 1420 752 
Q 1681 391 2138 391 
Q 2594 391 2855 752 
Q 3116 1113 3116 1747 
z
" transform="scale(0.015625)"/>
      <path id="DejaVuSans-5d" d="M 1947 4863 
L 1947 -844 
L 622 -844 
L 622 -397 
L 1369 -397 
L 1369 4416 
L 622 4416 
L 622 4863 
L 1947 4863 
z
" transform="scale(0.015625)"/>
      <path id="DejaVuSans-29" d="M 513 4856 
L 1013 4856 
Q 1481 4119 1714 3412 
Q 1947 2706 1947 2009 
Q 1947 1309 1714 600 
Q 1481 -109 1013 -844 
L 513 -844 
Q 928 -128 1133 580 
Q 1338 1288 1338 2009 
Q 1338 2731 1133 3434 
Q 928 4138 513 4856 
z
" transform="scale(0.015625)"/>
     </defs>
     <use xlink:href="#DejaVuSans-74"/>
     <use xlink:href="#DejaVuSans-6f" x="39.208984"/>
     <use xlink:href="#DejaVuSans-77" x="100.390625"/>
     <use xlink:href="#DejaVuSans-6e" x="182.177734"/>
     <use xlink:href="#DejaVuSans-5f" x="245.556641"/>
     <use xlink:href="#DejaVuSans-68" x="295.556641"/>
     <use xlink:href="#DejaVuSans-69" x="358.935547"/>
     <use xlink:href="#DejaVuSans-67" x="386.71875"/>
     <use xlink:href="#DejaVuSans-68" x="450.195312"/>
     <use xlink:href="#DejaVuSans-2e" x="513.574219"/>
     <use xlink:href="#DejaVuSans-69" x="545.361328"/>
     <use xlink:href="#DejaVuSans-73" x="573.144531"/>
     <use xlink:href="#DejaVuSans-69" x="625.244141"/>
     <use xlink:href="#DejaVuSans-6e" x="653.027344"/>
     <use xlink:href="#DejaVuSans-28" x="716.40625"/>
     <use xlink:href="#DejaVuSans-5b" x="755.419922"/>
     <use xlink:href="#DejaVuSans-27" x="794.433594"/>
     <use xlink:href="#DejaVuSans-4c" x="821.923828"/>
     <use xlink:href="#DejaVuSans-79" x="868.511719"/>
     <use xlink:href="#DejaVuSans-6e" x="927.691406"/>
     <use xlink:href="#DejaVuSans-6e" x="991.070312"/>
     <use xlink:href="#DejaVuSans-27" x="1054.449219"/>
     <use xlink:href="#DejaVuSans-2c" x="1081.939453"/>
     <use xlink:href="#DejaVuSans-27" x="1113.726562"/>
     <use xlink:href="#DejaVuSans-4d" x="1141.216797"/>
     <use xlink:href="#DejaVuSans-61" x="1227.496094"/>
     <use xlink:href="#DejaVuSans-72" x="1288.775391"/>
     <use xlink:href="#DejaVuSans-62" x="1329.888672"/>
     <use xlink:href="#DejaVuSans-6c" x="1393.365234"/>
     <use xlink:href="#DejaVuSans-65" x="1421.148438"/>
     <use xlink:href="#DejaVuSans-68" x="1482.671875"/>
     <use xlink:href="#DejaVuSans-65" x="1546.050781"/>
     <use xlink:href="#DejaVuSans-61" x="1607.574219"/>
     <use xlink:href="#DejaVuSans-64" x="1668.853516"/>
     <use xlink:href="#DejaVuSans-27" x="1732.330078"/>
     <use xlink:href="#DejaVuSans-2c" x="1759.820312"/>
     <use xlink:href="#DejaVuSans-20" x="1791.607422"/>
     <use xlink:href="#DejaVuSans-27" x="1823.394531"/>
     <use xlink:href="#DejaVuSans-53" x="1850.884766"/>
     <use xlink:href="#DejaVuSans-77" x="1914.361328"/>
     <use xlink:href="#DejaVuSans-61" x="1996.148438"/>
     <use xlink:href="#DejaVuSans-6d" x="2057.427734"/>
     <use xlink:href="#DejaVuSans-70" x="2154.839844"/>
     <use xlink:href="#DejaVuSans-73" x="2218.316406"/>
     <use xlink:href="#DejaVuSans-63" x="2270.416016"/>
     <use xlink:href="#DejaVuSans-6f" x="2325.396484"/>
     <use xlink:href="#DejaVuSans-74" x="2386.578125"/>
     <use xlink:href="#DejaVuSans-74" x="2425.787109"/>
     <use xlink:href="#DejaVuSans-27" x="2464.996094"/>
     <use xlink:href="#DejaVuSans-5d" x="2492.486328"/>
     <use xlink:href="#DejaVuSans-29" x="2531.5"/>
    </g>
   </g>
   <g id="patch_4">
    <path d="M 446.559937 164.109308 
L 462.399937 164.109308 
L 462.399937 148.269308 
L 446.559937 148.269308 
L 446.559937 164.109308 
z
" clip-path="url(#p484c575f78)" style="fill: none"/>
   </g>
   <g id="line2d_37">
    <path d="M 454.479938 156.189308 
" clip-path="url(#p484c575f78)" style="fill: none; stroke: #1f77b4; stroke-width: 1.5; stroke-linecap: square"/>
    <defs>
     <path id="m64ceac92f5" d="M 0 1.772454 
C 0.47006 1.772454 0.920931 1.585697 1.253314 1.253314 
C 1.585697 0.920931 1.772454 0.47006 1.772454 0 
C 1.772454 -0.47006 1.585697 -0.920931 1.253314 -1.253314 
C 0.920931 -1.585697 0.47006 -1.772454 0 -1.772454 
C -0.47006 -1.772454 -0.920931 -1.585697 -1.253314 -1.253314 
C -1.585697 -0.920931 -1.772454 -0.47006 -1.772454 0 
C -1.772454 0.47006 -1.585697 0.920931 -1.253314 1.253314 
C -0.920931 1.585697 -0.47006 1.772454 0 1.772454 
z
" style="stroke: #db5f57; stroke-width: 0.886227"/>
    </defs>
    <g clip-path="url(#p484c575f78)">
     <use xlink:href="#m64ceac92f5" x="454.479938" y="156.189308" style="fill: #db5f57; stroke: #db5f57; stroke-width: 0.886227"/>
    </g>
   </g>
   <g id="line2d_38">
    <path d="M 446.559937 156.189308 
L 462.399937 156.189308 
" clip-path="url(#p484c575f78)" style="fill: none; stroke: #db5f57; stroke-width: 0.886227"/>
   </g>
   <g id="text_12">
    <!-- False -->
    <g transform="translate(465.399937 158.617558)scale(0.088 -0.088)">
     <defs>
      <path id="DejaVuSans-46" d="M 628 4666 
L 3309 4666 
L 3309 4134 
L 1259 4134 
L 1259 2759 
L 3109 2759 
L 3109 2228 
L 1259 2228 
L 1259 0 
L 628 0 
L 628 4666 
z
" transform="scale(0.015625)"/>
     </defs>
     <use xlink:href="#DejaVuSans-46"/>
     <use xlink:href="#DejaVuSans-61" x="48.394531"/>
     <use xlink:href="#DejaVuSans-6c" x="109.673828"/>
     <use xlink:href="#DejaVuSans-73" x="137.457031"/>
     <use xlink:href="#DejaVuSans-65" x="189.556641"/>
    </g>
   </g>
   <g id="patch_5">
    <path d="M 446.559937 181.949308 
L 462.399937 181.949308 
L 462.399937 166.109308 
L 446.559937 166.109308 
L 446.559937 181.949308 
z
" clip-path="url(#p2e107430ca)" style="fill: none"/>
   </g>
   <g id="line2d_39">
    <path d="M 454.479938 174.029308 
" clip-path="url(#p2e107430ca)" style="fill: none; stroke: #1f77b4; stroke-width: 1.5; stroke-linecap: square"/>
    <defs>
     <path id="mc80912eb1f" d="M 0 1.772454 
C 0.47006 1.772454 0.920931 1.585697 1.253314 1.253314 
C 1.585697 0.920931 1.772454 0.47006 1.772454 0 
C 1.772454 -0.47006 1.585697 -0.920931 1.253314 -1.253314 
C 0.920931 -1.585697 0.47006 -1.772454 0 -1.772454 
C -0.47006 -1.772454 -0.920931 -1.585697 -1.253314 -1.253314 
C -1.585697 -0.920931 -1.772454 -0.47006 -1.772454 0 
C -1.772454 0.47006 -1.585697 0.920931 -1.253314 1.253314 
C -0.920931 1.585697 -0.47006 1.772454 0 1.772454 
z
" style="stroke: #57d3db; stroke-width: 0.886227"/>
    </defs>
    <g clip-path="url(#p2e107430ca)">
     <use xlink:href="#mc80912eb1f" x="454.479938" y="174.029308" style="fill: #57d3db; stroke: #57d3db; stroke-width: 0.886227"/>
    </g>
   </g>
   <g id="line2d_40">
    <path d="M 446.559937 174.029308 
L 462.399937 174.029308 
" clip-path="url(#p2e107430ca)" style="fill: none; stroke: #57d3db; stroke-width: 0.886227"/>
   </g>
   <g id="text_13">
    <!-- True -->
    <g transform="translate(465.399937 176.457558)scale(0.088 -0.088)">
     <defs>
      <path id="DejaVuSans-54" d="M -19 4666 
L 3928 4666 
L 3928 4134 
L 2272 4134 
L 2272 0 
L 1638 0 
L 1638 4134 
L -19 4134 
L -19 4666 
z
" transform="scale(0.015625)"/>
     </defs>
     <use xlink:href="#DejaVuSans-54"/>
     <use xlink:href="#DejaVuSans-72" x="46.333984"/>
     <use xlink:href="#DejaVuSans-75" x="87.447266"/>
     <use xlink:href="#DejaVuSans-65" x="150.826172"/>
    </g>
   </g>
  </g>
  <g id="text_14">
   <!-- Salem Distance to Other School Districts -->
   <g transform="translate(108.5155 17.229938)scale(0.132 -0.132)">
    <defs>
     <path id="DejaVuSans-44" d="M 1259 4147 
L 1259 519 
L 2022 519 
Q 2988 519 3436 956 
Q 3884 1394 3884 2338 
Q 3884 3275 3436 3711 
Q 2988 4147 2022 4147 
L 1259 4147 
z
M 628 4666 
L 1925 4666 
Q 3281 4666 3915 4102 
Q 4550 3538 4550 2338 
Q 4550 1131 3912 565 
Q 3275 0 1925 0 
L 628 0 
L 628 4666 
z
" transform="scale(0.015625)"/>
     <path id="DejaVuSans-4f" d="M 2522 4238 
Q 1834 4238 1429 3725 
Q 1025 3213 1025 2328 
Q 1025 1447 1429 934 
Q 1834 422 2522 422 
Q 3209 422 3611 934 
Q 4013 1447 4013 2328 
Q 4013 3213 3611 3725 
Q 3209 4238 2522 4238 
z
M 2522 4750 
Q 3503 4750 4090 4092 
Q 4678 3434 4678 2328 
Q 4678 1225 4090 567 
Q 3503 -91 2522 -91 
Q 1538 -91 948 565 
Q 359 1222 359 2328 
Q 359 3434 948 4092 
Q 1538 4750 2522 4750 
z
" transform="scale(0.015625)"/>
    </defs>
    <use xlink:href="#DejaVuSans-53"/>
    <use xlink:href="#DejaVuSans-61" x="63.476562"/>
    <use xlink:href="#DejaVuSans-6c" x="124.755859"/>
    <use xlink:href="#DejaVuSans-65" x="152.539062"/>
    <use xlink:href="#DejaVuSans-6d" x="214.0625"/>
    <use xlink:href="#DejaVuSans-20" x="311.474609"/>
    <use xlink:href="#DejaVuSans-44" x="343.261719"/>
    <use xlink:href="#DejaVuSans-69" x="420.263672"/>
    <use xlink:href="#DejaVuSans-73" x="448.046875"/>
    <use xlink:href="#DejaVuSans-74" x="500.146484"/>
    <use xlink:href="#DejaVuSans-61" x="539.355469"/>
    <use xlink:href="#DejaVuSans-6e" x="600.634766"/>
    <use xlink:href="#DejaVuSans-63" x="664.013672"/>
    <use xlink:href="#DejaVuSans-65" x="718.994141"/>
    <use xlink:href="#DejaVuSans-20" x="780.517578"/>
    <use xlink:href="#DejaVuSans-74" x="812.304688"/>
    <use xlink:href="#DejaVuSans-6f" x="851.513672"/>
    <use xlink:href="#DejaVuSans-20" x="912.695312"/>
    <use xlink:href="#DejaVuSans-4f" x="944.482422"/>
    <use xlink:href="#DejaVuSans-74" x="1023.193359"/>
    <use xlink:href="#DejaVuSans-68" x="1062.402344"/>
    <use xlink:href="#DejaVuSans-65" x="1125.78125"/>
    <use xlink:href="#DejaVuSans-72" x="1187.304688"/>
    <use xlink:href="#DejaVuSans-20" x="1228.417969"/>
    <use xlink:href="#DejaVuSans-53" x="1260.205078"/>
    <use xlink:href="#DejaVuSans-63" x="1323.681641"/>
    <use xlink:href="#DejaVuSans-68" x="1378.662109"/>
    <use xlink:href="#DejaVuSans-6f" x="1442.041016"/>
    <use xlink:href="#DejaVuSans-6f" x="1503.222656"/>
    <use xlink:href="#DejaVuSans-6c" x="1564.404297"/>
    <use xlink:href="#DejaVuSans-20" x="1592.1875"/>
    <use xlink:href="#DejaVuSans-44" x="1623.974609"/>
    <use xlink:href="#DejaVuSans-69" x="1700.976562"/>
    <use xlink:href="#DejaVuSans-73" x="1728.759766"/>
    <use xlink:href="#DejaVuSans-74" x="1780.859375"/>
    <use xlink:href="#DejaVuSans-72" x="1820.068359"/>
    <use xlink:href="#DejaVuSans-69" x="1861.181641"/>
    <use xlink:href="#DejaVuSans-63" x="1888.964844"/>
    <use xlink:href="#DejaVuSans-74" x="1943.945312"/>
    <use xlink:href="#DejaVuSans-73" x="1983.154297"/>
   </g>
  </g>
 </g>
 <defs>
  <clipPath id="p9cc696df84">
   <rect x="70.039938" y="26.105371" width="357.12" height="266.112"/>
  </clipPath>
  <clipPath id="p484c575f78">
   <path d="M 446.559937 164.109308 
L 446.559937 148.269308 
L 462.399937 148.269308 
L 462.399937 164.109308 
"/>
  </clipPath>
  <clipPath id="p2e107430ca">
   <path d="M 446.559937 181.949308 
L 446.559937 166.109308 
L 462.399937 166.109308 
L 462.399937 181.949308 
"/>
  </clipPath>
 </defs>
</svg>
